<svg width="909" height="676" viewBox="0 0 909 676" fill="none" xmlns="http://www.w3.org/2000/svg">
<path fill-rule="evenodd" clip-rule="evenodd" d="M826.036 639.172C831.163 641.81 835.955 641.808 840.998 643.861C846.003 645.899 847.308 654.348 851.588 655.357C831.747 657.444 812.205 661.867 792.123 659.668C793.862 652.582 790.739 645.33 794.922 638.681C806.106 628.1 813.377 632.658 826.036 639.172ZM742.251 152.162C742.509 157.144 742.878 159.124 746.414 162.338C749.185 164.856 750.744 161.102 751.007 166.02C751.159 168.857 748.211 170.281 747.07 172.574C741.382 183.998 745.308 198.753 748.103 210.133C753.771 233.208 767.615 258.297 757.86 281.751C756.877 284.116 756.087 289.243 754.187 291.054C751.682 289.73 749.853 290.309 748.699 292.789C748.007 293.567 747.315 294.345 746.623 295.122C742.239 299.176 737.573 300.683 731.754 298.528C720.022 294.185 718.082 280.559 718.021 269.832C717.952 258.009 720.47 245.627 723.162 234.109C724.459 228.563 726.455 222.125 722.739 216.893C719.229 211.951 714.893 214.737 711.437 212.531C707.758 210.183 713.057 192.926 709.432 188.35C703.103 180.36 700.898 199.906 700.797 203.898C700.687 208.271 700.924 213.373 702.985 217.337C704.604 220.451 709.874 223.184 710.778 226.328C711.624 229.266 707.915 236.898 707.342 240.051C706.46 244.909 706.153 249.872 705.9 254.796C705.045 271.43 707.655 288.936 719.105 301.844C724.125 307.505 732.634 313.933 740.594 312.902C747.62 311.992 754.681 308.198 761.234 305.62C765.641 322.55 772.261 338.946 779.314 354.934C785.444 368.832 791.207 383.066 797.647 396.794C811.219 425.729 833.249 450.378 850.462 477.132C867.08 502.961 876.399 532.601 878.634 563.094C879.162 570.304 877.056 580.171 878.736 586.913C880.311 593.234 881.693 595.979 880.662 602.872C879.516 610.532 877.296 617.596 878.25 625.39C879.096 632.305 882.391 642.608 878.79 649.014C874.463 644.404 870.146 642.234 867.522 636.085C864.857 629.845 865.906 624.717 859.866 621.975C854.706 619.632 851.005 620.142 846.452 616.307C840.921 611.648 837.152 605.954 834.427 599.284C829.776 587.902 829.103 575.563 833.035 563.874C836.188 554.502 845.397 536.958 858.308 543.238C856.39 539.299 855.114 535.017 851.455 532.458C848.269 530.229 843.505 529.503 839.947 526.968C835.969 524.135 831.466 521.111 827.026 519.039C825.302 518.235 823.671 517.831 821.89 517.281C819.754 516.622 815.703 517.095 815.439 517.055C807.813 515.902 799.309 512.231 794.652 506.699C791.147 502.535 788.049 498.648 785.373 493.883C781.899 487.699 780.562 488.073 773.897 486.604C764.211 484.471 758.065 483.016 750.317 475.83C741.724 467.86 735.436 457.928 729.148 448.149C725.464 442.419 722.226 442.069 716.222 439.781C712.731 438.452 707.897 432.498 704.719 432.056C703.802 431.928 699.408 433.928 697.922 434.167C695.266 434.597 692.96 434.52 690.299 434.241C684.193 433.6 678.796 431.983 674.691 427.205C662.048 412.492 658.193 377.809 675.503 365.292C678.801 362.908 683.395 361.81 685.341 357.849C687.573 353.304 686.557 344.742 686.378 339.95C686.175 334.481 685.918 328.529 685.101 323.138C684.725 320.66 684.445 319.618 683.434 317.137C681.428 312.217 680.84 312.933 676.709 311.75C670.816 310.064 668.151 310.727 664.538 305.133C661.656 300.671 660.308 295.05 660.046 289.774C659.802 284.852 662.022 280.303 660.168 275.845C657.454 269.321 652.422 264.383 650.215 257.243C648.355 251.23 643.553 237.809 648.287 232.261C650.408 229.775 654.175 229.411 656.278 226.084C659.942 220.291 661.422 217.123 666.86 212.557C670.872 209.188 674.725 204.168 679.561 202.108C684.317 200.082 688.806 203.343 692.667 202.449C696.876 201.473 695.769 191.712 696.937 187.316C698.512 181.389 701.89 175.21 705.98 170.585C707.346 169.04 709.049 168.743 710.112 166.689C711.554 163.908 710.982 159.945 712.105 156.904C713.446 153.27 716.701 147.014 720.34 145.022C730.971 139.202 734.164 154.199 742.251 152.162ZM717.373 582.535C718.873 586.576 718.043 593.071 719.77 596.55C721.145 599.321 726.666 601.079 729.373 604.384C735.169 611.461 737.377 622.828 735.273 631.566C728.18 629.815 723.437 628.695 716.225 629.618C715.497 613.781 716.178 598.367 717.373 582.535ZM629.708 594.471C634.534 599.853 636.928 606.195 636.231 613.389C635.982 615.95 635.199 619.54 634.445 622C633.616 624.7 629.496 629.755 631.095 631.202C626.593 630.933 621.303 631.456 618.059 628.545C615.147 625.932 613.11 619.197 611.928 615.628C614.201 611.091 616.475 606.554 618.749 602.018C620.229 604.366 624.575 610.498 628.164 608.536C630.867 607.059 628.685 597.457 629.708 594.471ZM799.09 552.523C804.613 557.655 806.501 566.908 806.219 574.09C806.31 583.989 802.883 603.803 790.014 604.467C779.672 605.001 768.641 590.189 767.478 581.034C766.203 570.998 769.523 546.997 782.68 544.933C787.524 544.173 795.599 549.278 799.09 552.523ZM706.648 565.322C706.868 571.811 706.976 578.054 706.461 584.521C706.032 589.928 707.463 596.313 706.253 601.49C698.602 592.93 688.524 583.609 688.83 571.027C689.118 559.133 698.972 560.145 706.648 565.322ZM629.536 422.317L635.94 429.337C636.123 439.2 635.928 448.952 638.931 458.462C642.091 468.469 647.386 478.113 652.628 487.161C662.818 504.747 665.248 521.334 666.476 541.446C647.312 532.86 636.861 503.522 630.538 485.17C627.19 475.455 623.718 465.731 620.56 455.955C617.446 446.314 611.942 433.717 615.565 423.561C622.527 428.679 625.538 431.317 629.536 422.317ZM748.955 491.542C758.312 498.984 759.02 510.372 762.379 520.779C760.442 522.326 758.315 523.688 756.565 525.452C755.485 526.542 752.938 531.002 752.108 531.46C748.793 533.293 745.897 530.94 742.658 527.984C736.282 522.161 732.302 509.803 732.601 501.257C732.95 491.275 740.007 484.425 748.955 491.542ZM879.882 447.811C892.045 454.779 888.872 474.057 887.355 484.931C886.403 491.747 888.513 498.681 888.366 505.165C888.202 512.483 884.405 510.967 881.976 515.509C879.867 510 875.999 503.369 875.119 497.593L873.721 493.939C874.905 493.464 875.534 492.638 875.607 491.461C876.104 488.662 876.097 485.808 876.253 482.954C876.897 471.16 877.789 459.442 879.882 447.811ZM694.568 460.83C693.222 465.963 692.236 475.622 684.673 472.645C678.705 470.295 677.264 460.81 677.251 455.523C677.241 451.183 677.955 443.209 684.026 442.949C691.478 442.629 694.139 455.817 694.568 460.83ZM636.997 317.926C631.966 325.984 628.474 337.887 630.851 347.428C633.346 357.447 641.107 359.872 648.01 352.5C653.707 361.469 642.028 377.442 631.586 368.914C629.329 367.072 627.814 363.545 625.023 362.396C622.735 361.455 620.708 362.734 618.372 362.203C611.186 360.57 608.472 353.512 605.649 347.588C606.424 342.759 607.245 337.972 608.29 333.191C608.846 330.649 609.425 328.111 609.988 325.57C610.945 321.253 610.647 321.792 613.777 319.652C622.032 314.012 627.71 313.733 636.997 317.926ZM641.259 322.275L647.297 335.703C644.007 334.91 640.423 344.783 638.274 346.707C637.269 338.491 639.676 330.265 641.259 322.275ZM637.913 276.412C643.373 278.712 644.459 288.68 644.652 293.502C643.151 298.578 641.749 305.072 635.404 301.497C631.17 299.11 629.355 291.251 629.211 286.958C629.029 281.575 631.051 273.52 637.913 276.412Z" fill="#5433FF"/>
<path fill-rule="evenodd" clip-rule="evenodd" d="M597.014 159.804C594.766 160.815 599.058 168.37 599.725 169.756C601.468 173.374 603.593 180.85 607.72 178.792C604.151 172.463 600.583 166.133 597.014 159.804ZM68.9806 598.149C65.9726 596.815 61.9496 608.29 61.4136 610.621C59.9186 617.116 61.1696 621.479 66.3686 625.678C64.2166 616.396 66.7946 607.151 68.9806 598.149ZM763.344 106.762C759.603 101.906 754.199 92.8897 746.641 97.6627C743.656 99.5487 741.359 105.594 739.518 108.547C736.627 113.183 733.829 117.646 731.629 122.637C735.366 121.101 737.569 117.761 740.91 115.935C743.193 114.688 745.275 114.568 747.474 113.659C752.337 111.651 758.996 109.682 763.344 106.762ZM153.427 585.212C155.451 593.134 157.323 601.033 158.889 609.057C159.948 614.487 163.507 622.158 161.65 627.471C166.461 626.824 171.272 626.178 176.083 625.531C172.514 617.409 170.636 608.742 169.576 599.968C168.927 594.598 169.759 593.067 165.713 590.079C162.58 587.765 157.064 586.653 153.427 585.212ZM126.817 281.991C136.067 291.25 144.157 301.804 153.987 310.431C159.095 314.914 164.331 319.271 169.573 323.595C174.018 327.261 181.087 335.343 186.872 336.465C187.587 333.512 189.278 328.673 188.825 325.644C190.513 323.898 189.989 322.623 187.253 321.817C185.579 320.53 183.924 319.222 182.285 317.89C175.855 312.523 169.77 306.693 163.677 300.952C157.62 295.246 152.017 289.276 146.759 282.829C143.989 279.434 142.369 276.03 137.826 275.032C132.429 273.847 130.633 278.055 126.817 281.991ZM311.687 625.779C311.426 630.81 323.799 633.893 327.558 634.195C337.72 635.01 344.319 630.554 347.816 621.766C355.096 603.475 366.752 587.36 371.627 568.126C373.073 562.419 374.325 559.822 369.172 556.914C367.057 555.722 361.55 553.062 359.251 554.58C357.062 556.025 355.269 562.527 353.862 564.89C351.627 568.644 349.086 572.214 346.66 575.846C335.31 592.837 323.873 609.383 311.687 625.779ZM164.846 373.879L212.35 401.042C214.331 394.203 215.242 387.073 217.099 380.18C218.421 375.281 221.822 368.361 221.607 364.06C221.286 357.639 216.313 349.115 214.145 342.994C211.443 335.367 208.741 327.738 206.039 320.11C202.38 323.609 198.167 326.053 198.122 330.612C198.097 333.218 199.834 334.844 198.827 337.796C198.12 339.867 195.114 342.617 193.662 344.156C189.421 348.656 189.554 348.881 185.097 344.673C178.347 354.409 171.596 364.144 164.846 373.879ZM217.108 501.236C217.788 494.692 218.661 488.418 220.133 481.997C221.038 478.052 224.86 469.951 223.603 466.235C222.679 463.504 217.187 461.129 215.048 459.643C208.86 455.344 202.817 450.821 196.691 446.434C191.319 442.587 185.867 438.832 180.596 434.847C175.714 431.157 172.029 426.567 166.121 424.985C160.952 423.6 154.393 424.504 149.039 424.326C141.854 424.087 134.558 424.008 127.38 424.359C103.291 425.538 76.3046 423.853 53.1296 430.572C42.1766 433.747 35.1156 435.616 28.9926 445.991C21.9116 457.99 15.8616 470.458 10.7106 483.419C9.9586 485.312 8.2586 488.042 8.32179 490.11C8.4476 494.059 9.8606 493.149 13.6476 495.401C17.7396 497.834 21.7506 500.722 25.6596 503.462C32.3626 508.16 40.6846 513.065 47.6386 516.729C56.0056 521.137 64.4346 525.09 72.9456 529.529C78.3386 532.342 83.9206 534.642 89.2106 537.733C94.9536 541.09 101.384 542.046 107.575 544.667C126.745 552.784 145.298 560.285 164.11 569.545C182.472 578.583 201.045 586.221 219.832 594.194C244.113 604.497 268.154 614.027 293.477 621.152C295.331 621.674 299.229 623.514 301.06 623.43C304.975 623.25 305.862 620.389 308.214 617.165C312.836 610.829 317.288 604.372 321.709 597.896C331.298 583.847 340.675 569.642 350.999 556.114C321.744 547.951 294.618 532.89 268.901 517.433C267.806 520.51 266.934 527.327 263.424 528.356C259.084 529.63 255.931 523.617 253.986 520.852C252.145 525.436 248.995 540.898 243.103 540.56C234.962 540.092 236.399 527.278 235.385 522.194C230.897 528.159 225.696 535.018 219.597 525.845C215.37 519.486 215.839 508.326 217.108 501.236ZM556.067 428.164C552.295 426.985 548.547 425.937 544.857 424.616C543.887 422.558 542.276 421.934 540.025 422.744C538.181 422.909 536.387 422.681 534.644 422.058C526.937 420.741 518.4 419.031 511.036 416.809C504.478 414.83 498.294 413.082 491.631 411.595C487.674 410.713 470.05 405.726 467.445 408.661C466.644 409.564 468.022 420.51 467.828 422.461C467.483 425.93 467.312 431.641 465.115 434.529C464.272 435.637 461.062 436.865 459.902 437.728C456.133 440.531 452.65 444.014 448.901 446.92C440.715 453.265 432.742 459.849 424.389 465.986C418.486 470.323 411.729 472.47 405.172 475.621C409.837 476.456 418.966 471.966 423.675 470.574C429.774 468.77 435.759 466.765 441.997 465.113C454.787 461.726 467.891 457.903 480.89 454.297C488.873 452.083 497.306 449.776 505.045 446.844C508.478 445.543 511.173 442.519 513.441 445.597C515.25 448.054 513.061 451.287 511.67 453.108C503.555 463.728 481.517 466.312 469.722 470.718C456.41 475.689 443.275 480.925 429.568 484.417C413.56 488.496 396.184 491.617 381.267 498.781C368.891 504.723 354.871 507.026 341.713 510.514C329.356 513.789 314.702 514.445 303.023 520.005C308.068 523.989 315.532 526.067 321.412 528.746C328.61 532.025 335.883 535.016 343.002 538.491C346.032 539.97 349.203 542.168 352.269 543.397C356.161 544.958 355.662 544.135 359.682 543.818C365.939 543.326 374.381 542.201 379.464 546.757C385.595 552.252 381.71 558.272 382.61 564.995C383.228 569.604 383.542 568.865 388.66 569.569C393.371 570.216 398.077 570.971 402.724 571.978C408.461 573.222 414.333 575.308 419.921 577.106C428.586 579.895 429.528 583.177 438.56 579.577C464.283 569.325 490.888 560.898 516.775 551.197C528.699 546.729 540.674 538.11 551.898 531.635C566.298 523.327 579.318 514.34 589.068 500.508C593.512 494.204 598.146 483.555 597.212 475.728C596.377 468.729 591.199 460.949 587.861 454.93C583.598 447.246 579.845 444.264 573.323 439.159C568.789 435.611 561.784 428.117 556.067 428.164ZM269.594 487.643C269.993 491.507 267.735 507.434 269.972 509.884C273.797 514.074 283.179 509.184 286.809 507.936C298.601 503.882 312.307 504.769 324.315 501.559C335.964 498.445 347.358 494.41 359.072 491.238C365.356 489.535 371.32 486.867 377.501 484.84C384.382 482.583 392.063 481.346 398.444 477.951C397.654 475.988 370.044 480.71 366.906 480.965C356.007 481.85 345.746 480.169 335.004 478.194C311.31 473.836 288.985 463.502 265.597 456.798C266.693 467.584 297.047 469.732 293.431 482.249C292.422 485.738 278.843 491.441 274.352 489.252C265.228 484.803 276.389 478.542 280.937 476.981C274.014 473.012 267.389 468.706 261.07 463.815C254.305 458.579 251.394 451.233 247.768 443.653C240.189 427.805 222.253 418.586 208.321 408.72C193.256 398.052 177.215 388.983 162.159 378.339C159.472 376.439 158.217 377.311 157.273 373.842C156.263 370.127 159.974 365.406 161.775 362.573C166.509 355.123 172.023 348.072 178.277 341.836C170.212 336.347 161.5 331.816 153.937 325.603C146.271 319.305 139.927 311.617 133.164 304.407C122.36 327.916 107.218 349.72 95.3266 372.775C90.6296 381.881 88.1466 395.654 95.2896 404.478C102.807 413.765 116.824 410.15 127.435 410.642C138.634 411.162 148.85 412.431 159.896 415.607C164.893 417.045 169.442 416.62 174.245 418.928C179.878 421.634 185.418 425.11 190.777 428.318C201.316 434.626 211.162 442.523 221.114 449.721C225.196 452.673 247.331 470.174 229.823 467.472C229.823 483.849 226.954 500.621 225.448 516.919C229.6 511.961 232.561 506.922 235.073 500.965C236.567 497.421 236.586 488.377 241.565 490.521C249.055 493.745 243.221 517.438 243.221 523.847C245.077 520.261 246.377 516.399 247.713 512.599C248.725 509.72 249.99 501.557 252.102 499.626C259.172 493.164 260.163 510.788 260.163 514.466C262.453 507.969 262.874 501.035 263.104 494.17C263.194 491.462 262.525 487.248 263.209 484.628C264.347 480.261 264.212 480.546 268.785 478.7C269.055 481.68 269.325 484.662 269.594 487.643ZM487.999 625.85C488.56 631.391 490.704 635.402 487.061 640.386C494.103 639.882 501.036 639.263 508.09 639.442C513.753 639.586 522.223 640.881 527.507 638.455C529.66 637.467 530.392 639.168 531.499 637.28C532.55 635.486 530.081 629.532 529.784 628.055C528.36 620.967 527.666 613.696 526.372 606.564C525.484 601.662 522.874 592.021 526.155 587.389C530.981 580.573 533.106 590.175 534.363 594.438C538.504 608.483 538.265 621.822 538.265 636.253C544.502 636.253 552.696 633.529 558.711 631.886C567.008 629.619 575.868 627.289 583.907 624.329C591.489 621.538 598.166 617.465 602.96 610.909C606.546 606.005 614.496 593.906 612.521 588.484C610.1 581.836 598.554 577.265 592.388 576.534C584.388 575.585 576.189 577.192 568.003 577.867C559.24 578.59 550.738 580.541 542.068 581.48C533.648 582.391 522.347 585.2 514.167 583.095C513.954 586.46 516.768 590.983 517.748 594.409C519.033 598.901 520.18 603.433 521.223 607.986C522.34 612.86 529.254 630.382 522.966 633.885C515.585 637.997 512.062 620.389 511.143 616.097C508.951 605.863 507.067 595.638 509.362 585.35C499.941 583.652 488.579 586.174 478.863 586.843C482.483 599.593 484.818 612.946 487.999 625.85ZM82.2236 631.393C85.4996 632.85 90.0016 632.068 93.5626 632.348C99.1276 632.785 104.75 633.791 110.352 633.612C118.9 633.34 127.861 632.259 136.416 631.281C131.536 622.48 128.575 614.147 127.966 604.06C127.747 600.437 125.824 577.965 132.51 578.926C135.736 579.39 135.051 598.578 135.677 602.113C136.587 607.241 137.761 612.491 139.19 617.511C140.227 621.152 143.755 626.605 142.851 630.543C147.164 629.844 151.478 629.145 155.792 628.446C152.438 621.759 149.988 615.766 148.732 608.307C148.125 604.707 148.512 600.227 147.335 596.808C146.593 594.653 144.901 592.626 144.675 590.819C144.414 588.734 146.698 583.611 145.853 581.759C145.023 579.938 139.244 578.254 137.219 577.25C131.638 574.485 128.367 573.785 122.112 575.375C110.047 578.441 91.0376 580.617 82.0396 588.887C73.1256 597.08 69.8816 624.716 82.2236 631.393ZM609.142 232.002C612.482 231.625 615.788 231.392 619.145 231.219C614.24 224.317 609.785 217.103 605.718 209.677C603.725 206.039 601.843 202.343 600.041 198.607C597.972 194.32 598.029 191.521 593.535 190.669C587.312 189.49 578.989 191.846 572.587 191.578C567.641 191.37 556.535 186.716 552.551 188.403C556.184 195.849 553.268 207.434 553.41 215.449C553.552 223.42 552.562 231.125 551.159 238.985C559.646 238.985 570.269 236.055 578.836 234.746C588.81 233.222 598.98 233.143 609.142 232.002ZM474.415 641.187C477.684 640.768 480.792 640.638 484.092 640.638C476.657 628.585 471.043 615.106 470.98 600.744C470.972 598.866 473.231 588.07 472.484 587.173C471.026 585.425 464.983 586.805 463.327 586.97C456.556 587.647 449.029 587.596 442.654 590.035C438.255 591.719 438.207 590.702 436.458 595.879C435.423 598.941 434.679 602.438 434.659 605.658C434.617 612.165 436.692 619.77 439.374 625.628C441.928 631.205 445.963 637.186 451.513 640.181C457.907 643.634 466.917 641.579 474.415 641.187ZM542.016 193.408C540.73 188.606 541.286 189.69 537.011 189.094C536.111 188.969 526.319 189.172 525.756 189.746C525.109 190.408 525.356 200.185 525.271 201.304C524.981 205.139 524.552 208.964 524.134 212.787C522.439 228.307 519.222 243.331 516.81 258.723C522.77 255.025 531.383 260.067 536.474 256.064C540.497 252.901 539.894 242.779 540.194 238.313C541.198 223.365 541.541 208.38 542.016 193.408ZM757.21 175.284C756.674 176.145 756.138 177.006 755.602 177.867C757.683 179.201 769.865 165.63 772.574 163.202C776.182 159.969 781.892 155.652 783.519 150.925C785.41 145.432 783.55 136.76 783.092 131.08C782.765 127.015 783.46 121.393 780.146 118.553C777.096 115.94 769.582 116.01 765.97 116.569C755.13 118.247 748.611 127.161 743.139 135.655C748.695 134.972 768.282 126.03 770.557 130.866C773.862 137.892 753.291 144.174 751.257 150.339C755.468 151.826 764.756 146.058 762.143 155.655C761.697 156.998 760.919 158.11 759.811 158.991C757.888 159.672 757.433 160.955 758.445 162.841C757.584 166.6 757.76 171.356 757.21 175.284ZM881.976 515.51C882.034 517.788 882.243 519.966 884.105 521.576C888.235 508.497 889.525 495.412 891.236 481.811C892.948 468.207 894.77 454.265 895.041 440.673C895.345 425.44 893.906 408.869 891.442 393.819C889.515 382.053 888.023 367.575 881.008 357.561C884.992 383.512 883.753 408.116 881.067 434.158C879.641 447.986 877.628 461.707 876.705 475.595C876.461 479.263 876.382 482.975 876.064 486.636C875.876 488.793 873.74 492.88 873.721 493.939C873.616 499.818 879.91 510.111 881.976 515.51ZM670.019 495.298C673.332 502.921 677.099 510.43 679.086 518.537C681.183 527.097 680.28 535.069 680.616 543.743C681.173 558.134 680.019 572.44 680.221 586.852C680.393 599.135 679.922 611.111 680.045 623.264C680.123 630.952 679.702 638.611 679.728 646.295C679.728 646.272 680.034 653.192 679.505 653.543C677.132 655.119 674.539 652.881 673.812 650.726L666.778 658.684C670.465 657.758 674.999 655.823 678.789 655.652C680.24 655.118 681.685 655.103 683.125 655.607C684.554 656.471 685.613 657.675 686.302 659.221C696.233 661.336 702.193 652.497 703.977 644.594C707.846 627.447 706.452 610.518 706.171 593.207C705.563 555.599 711.538 518.216 710.973 480.605C710.864 473.327 710.586 466.134 711.68 458.87C713.71 445.375 716.708 457.728 717.189 464.097C718.635 483.235 721.153 502.983 719.768 522.239C718.522 539.59 718.637 557.101 717.773 574.504C716.854 593.001 715.374 611.106 716.226 629.618C721.193 628.983 737.17 628.036 738.834 635.014C740.285 641.1 734.446 638.848 731.413 638.591C726.495 638.174 721.691 639.328 716.315 638.364C716.711 646.55 717.84 657.528 710.525 663.055C706.927 665.774 700.968 668.228 696.764 669.831C692.644 671.403 685.666 674.885 681.374 674.694C678.337 674.559 677.167 672.924 673.835 673.185C668.891 673.574 664.611 676.881 659.37 674.149C649.43 668.968 654.316 653.899 660.592 647.86C662.21 646.302 664.029 644.599 666.2 643.84C667.232 643.479 671.551 643.915 672.049 643.374C673.887 641.379 671.592 629.709 671.347 627.494C670.058 615.876 668.654 604.011 668.125 592.341C667.628 581.369 667.075 570.375 666.697 559.399C666.615 557.009 667.675 552.095 666.674 550.006C665.009 546.534 657.704 544.324 654.535 542.707C657.359 570.369 661.508 600.101 651.286 626.449C649.256 631.681 646.979 639.149 641.832 642.059C636.981 644.803 625.557 644.416 619.745 644.742C613.495 645.092 607.377 643.633 603.933 637.764C601.224 633.146 602.848 627.606 608.411 625.592C611.742 624.387 612.391 625.162 615.309 626.595C615.942 627.623 616.386 628.728 616.643 629.91H618.886C621.926 631.266 634.076 632.783 637.417 630.619C641.289 628.114 642.131 621.339 643.782 617.314C646.848 609.835 647.66 603.766 648.773 595.772C650.515 583.26 648.751 568.752 648.784 555.716C648.793 552.045 648.809 548.373 648.814 544.702C648.821 539.157 649.304 539.191 646.14 535.199C641.372 529.183 635.936 523.035 630.832 517.268C633.597 534.117 632.465 551.857 631.367 568.643C630.751 578.074 629.475 587.678 628.89 596.984C628.714 599.78 630.723 607.49 627.476 608.726C624.181 609.98 620.08 604.13 618.749 602.018C611.485 616.513 602.815 630.494 587.828 637.993C580.122 641.849 572.098 643.588 563.688 645.1C555.897 646.502 548.697 649.058 541.016 650.264C525.118 652.759 510.475 653.112 494.477 652.567C479.384 652.053 464.932 654.84 449.887 651.331C444.015 649.962 438.082 647.447 434.068 642.952C431.878 640.499 430.909 636.638 428.7 634.377C428.202 631.451 426.481 630.549 423.535 631.669C421.685 631.752 419.842 631.691 418.006 631.485C402.916 630.693 386.146 631.576 371.524 627.266C365.974 625.63 359.778 622.935 362.547 615.989C364.967 609.918 371.645 611.762 377.121 612.292C393.028 613.833 408.686 616.644 424.822 618.059C424.303 609.628 424.75 601.027 428.055 593.14C416.861 591.735 405.256 589.616 394.605 586.042C391.316 584.938 388.042 583.791 384.779 582.611C379.401 580.666 380.519 580.163 377.404 583.557C373.49 587.821 371.094 596.718 368.258 601.87C365.067 607.668 362.005 613.4 359.316 619.452C356.771 625.18 354.873 632.852 350.995 637.788C342.465 648.646 322.764 649.587 311.17 645.322C305.491 643.232 303.441 642.904 299.999 637.814C296.228 632.238 295.291 631.912 288.344 631.155C275.799 629.788 263.959 626.639 252.207 622.291C239.791 617.698 227.042 614.117 214.662 609.158C203.073 604.515 191.872 599.845 179.881 596.221C178.458 605.265 184.354 615.464 184.354 624.788C191.331 624.09 197.837 623.478 204.753 622.368C207.219 621.972 222.756 618.486 224.272 620.543C230.591 629.119 201.839 633.153 197.345 634.286C182.944 637.92 168.259 641.297 153.767 644.106C138.975 646.973 124.555 649.828 109.539 650.343C84.1296 651.214 49.0826 649.746 50.2956 616.363C50.7716 603.282 56.1606 589.086 66.4726 580.555C72.8886 575.247 80.8896 572.329 88.7336 569.927C91.6316 569.039 106.899 566.965 107.363 565.823C103.061 562.74 95.7076 561.936 90.6036 559.56C85.7376 557.294 80.6026 556.45 75.6216 554.166C65.6686 549.603 56.0556 544.025 46.8526 538.383C39.5336 533.895 32.1336 528.94 25.3956 523.605C20.0416 519.367 14.9106 515.291 10.6306 510.447C8.3906 507.912 4.4256 505.667 2.6316 503.484C-3.6684 495.817 2.9756 480.561 5.6586 471.635C9.5776 458.588 14.8076 444.705 22.5206 433.403C29.6136 423.009 37.5216 416.007 50.2446 413.572C61.9876 411.325 73.7956 410.613 85.8056 409.982C83.7876 402.305 80.9466 396.887 81.6676 388.467C82.3476 380.525 86.3576 372.634 89.5046 365.401C95.3556 351.956 100.876 338.796 108.878 326.417C113.276 319.614 118.216 313.156 123.017 306.637C123.791 305.586 128.603 300.778 128.419 299.424C128.236 298.078 123.404 293.98 122.664 293.041C117.695 286.733 114.26 279.941 120.095 273.19C123.137 269.67 132.081 262.562 136.386 267.034C141.041 257.628 149.183 251.215 155.522 243.213C163.425 233.235 170.971 223.105 178.369 212.654C185.735 202.248 191.752 191.069 201.516 182.683C212.397 173.338 222.64 174.146 236.004 178.141C236.767 172.986 237.828 173.672 242.814 171.951C246.588 170.648 250.256 169.102 253.967 167.631C257.911 166.066 261.903 165.178 265.935 163.948C271.306 162.31 272.113 162.845 272.986 155.87C274.042 147.442 270.435 138.531 268.109 130.592C266.961 126.675 266.163 121.799 263.58 119.164C261.243 116.781 257.1 115.696 254.544 113.061C232.522 90.3597 232.175 41.8897 255.633 20.7917C260.192 16.6907 263.952 11.1737 269.627 8.40471C275.858 5.36371 284.077 2.90471 290.94 1.47171C305.086 -1.48029 320.951 -0.543286 332.133 9.40071C337.648 14.3047 341.011 22.0997 342.891 29.0627C344.687 35.7137 344.302 46.9557 337.494 36.6767C333.201 30.1937 329.471 23.5817 322.204 20.3747C315.71 17.5097 307.78 15.9627 300.705 16.5707C284.031 18.0027 270.519 22.8987 258.977 35.2397C246.215 48.8847 245.566 70.6697 248.317 88.0207C250.741 82.8887 252.383 74.7627 259.179 73.7827C264.843 72.9657 273.772 80.1977 270.732 86.4237C256.939 82.9077 252.905 103.766 264.832 105.022C268.443 105.402 273.016 98.9737 276.341 100.471C282.559 103.269 274.226 112.911 272.583 116.086C271.71 116.623 270.837 117.16 269.964 117.698C270.824 119.696 271.692 121.691 272.569 123.682C273.632 126.221 274.644 128.766 275.578 131.356C277.851 137.659 280.208 144.158 281.578 150.724C282.97 157.4 283.693 165.196 280.402 171.468C276.785 178.362 273.378 177.514 270.599 170.956C263.325 175.541 256.011 180.43 247.46 182.239C256.427 197.283 268.035 210.216 285.489 214.948C300.282 218.959 318.903 218.812 333.018 212.177C347.665 205.292 355.725 189.2 353.981 173.19C353.416 168.005 350.398 149.995 357.577 163.023C361.514 170.168 361.803 181.758 360.905 189.593C356.612 227.071 318.621 241.092 285.862 232.07C269.057 227.441 256.947 215.051 247.931 200.466C245.828 197.065 243.904 193.555 242.025 190.026C241.274 188.616 240.613 186.647 239.611 185.41C235.684 180.563 239.542 183.264 235.373 182.657C228.921 181.719 218.768 186.66 213.977 190.575C200.978 201.196 193.778 218.186 183.801 231.572C173.179 245.822 159.689 258.505 146.157 269.875C161.464 285.554 176.77 301.231 192.077 316.909C195.239 313.409 201.25 305.409 202.091 300.729C202.584 297.986 200.371 288.958 207.177 292.976C211.772 295.69 213.515 307.303 214.948 312.054C217.162 319.392 220.89 326.302 223.3 333.564C227.77 347.038 233.277 360.393 237.856 373.963C239.718 379.481 245.027 386.329 239.926 391.001C232.173 398.099 229.868 384.124 227.815 378.785C224.956 382.76 225.327 389.205 223.853 393.841C222.953 396.673 220.212 401.081 220.303 403.871C220.458 408.642 224.789 410.062 228.692 412.728C235.953 417.688 243.404 422.53 250.055 428.307C252.83 430.717 255.383 433.155 257.408 436.255C259.176 438.962 259.708 445.064 261.662 446.948C264.218 449.41 273.666 447.694 278.655 448.23C286.986 449.126 295.429 452.089 303.517 454.218C317.829 457.984 332.549 463.407 347.538 465.419C362.258 467.395 376.071 466.414 390.742 463.782C398.756 462.344 407.363 460.626 414.676 456.772C423.099 452.334 430.568 445.234 438.436 439.872C441.957 437.472 445.559 435.203 449.16 432.928C453.972 429.888 452.714 430.546 453.027 425.716C453.39 420.125 455.724 409.449 451.99 404.473C450.43 402.396 445.645 400.877 443.392 399.366C440.117 397.167 437.18 394.613 433.67 392.844C429.838 390.913 429.725 392.442 427.947 387.705C426.331 383.403 425.265 378.897 423.782 374.55C416.996 354.667 415.243 334.474 412.431 313.713C411.124 304.07 407.919 290.948 411.549 281.554C416.597 268.489 420.821 286.761 421.886 291.444C426.705 283.19 429.474 274.01 434.487 265.861C437.41 261.11 438.84 258.682 440.487 253.476C441.154 251.368 441.421 249.617 442.831 247.866C445.814 244.162 446.255 246.273 449.356 246.182C459.113 245.896 468.703 246.147 478.469 246.599C483.866 246.849 489.264 246.981 494.699 246.961C497.347 246.951 500.027 246.822 502.673 246.974C504.099 246.959 505.518 247.065 506.93 247.293C509.844 248.653 510.956 247.481 510.267 243.776C512.804 238.469 512.635 230.001 513.533 224.211C514.437 218.383 515.275 212.545 516.031 206.695C516.434 203.568 519.824 191.769 518.025 189.2C516.242 186.653 506.951 187.224 504.202 186.767C485.926 183.729 468.926 176.198 451.832 170.028C443.416 166.991 435.428 162.89 427.356 159.164C423.154 157.224 419.183 153.229 414.754 151.985C409.165 150.415 401.745 152.925 396.174 153.87C385.56 155.671 375.321 157.248 364.551 157.834C360.746 158.041 353.508 159.108 350.075 156.493C343.179 151.241 351.031 148.17 355.538 147.507C375.475 144.575 395.351 142.89 415.44 141.666C416.382 141.609 419.832 140.908 420.98 141.27C423.596 142.096 422.541 143.054 424.109 143.906C427.013 145.484 430.327 146.646 434.012 147.625C444.533 150.419 455.127 155.107 465.683 158.791C484.677 165.419 507.37 175.987 526.366 174.129C531.054 173.671 534.909 173.085 539.81 173.56C545.55 174.117 548.9 177.061 553.31 177.917C559.218 179.063 567.669 178.202 573.888 178.422C579.818 178.632 585.752 178.907 591.685 178.907C586.475 168.431 583.302 158.595 580.374 147.344C578.777 141.208 576.374 135.635 577.415 129.173C577.907 126.123 579.126 123.257 580.455 120.502C582.461 116.343 583.031 117.213 583.743 112.607C584.723 106.268 583.318 99.5837 584.088 93.2257C584.878 86.7007 589.809 80.8847 590.358 74.6467C590.651 71.3277 588.794 68.6187 589.35 65.0387C589.847 61.8367 591.743 58.4797 593.446 55.7837C597.412 49.5017 602.242 45.9397 608.944 43.3807C614.331 41.3237 621.207 39.4367 626.651 42.7677C632.205 46.1657 631.804 53.0047 634.465 57.9947C640.187 68.7247 653.389 78.3137 663.913 83.7937C673.581 88.8277 683.996 92.0077 694.362 95.2907C700.671 97.2887 707.158 98.7137 713.358 100.997C717.821 102.641 725.099 106.628 729.644 104.206C733.605 102.095 738.225 95.6527 742.145 92.6617C746.732 89.1627 752.849 85.7477 758.624 88.7957C764.399 91.8427 763.925 103.075 768.417 105.187C769.982 105.923 774.63 103.767 776.764 104.107C780.21 104.655 782.583 106.788 784.649 109.414C792.365 119.227 794.755 134.792 795.092 146.889C795.261 152.931 795.114 160.446 791.424 165.576C787.12 171.56 778.974 171.708 773.449 175.919C769.03 179.287 765.899 184.793 761.414 188.382C758.651 190.594 757.585 188.895 756.441 192.342C755.696 194.584 757.201 198.958 757.645 201.127C760.392 214.509 765.537 226.852 770.419 239.6C772.719 245.607 774.67 251.615 775.72 257.981C776.408 262.158 775.614 265.81 775.947 269.829C776.183 272.69 777.4 275.161 777.132 278.095C776.565 284.308 773.191 289.796 771.045 295.261C768.599 301.491 771.959 312.28 774.423 318.723C780.327 334.159 788.63 349.754 796.007 364.585C803.253 379.154 808.643 394.669 817.085 408.665C825.284 422.257 834.931 435.566 844.26 448.421C849.449 455.572 854.955 462.374 859.658 469.874C860.686 471.514 867.704 485.115 869.524 484.644C867.292 460.909 869.549 436.224 870.547 412.505C871.795 382.814 868.016 355.919 859.661 327.577C857.708 320.951 855.967 314.171 854.593 307.4C853.631 302.659 850.915 298.763 857.582 300.836C868.621 304.267 878.337 325.107 883.95 334.178C896.519 354.495 907.018 381.589 908.427 405.419C909.81 428.809 908.617 451.189 905.694 474.234C904.251 485.603 901.921 498.277 898.359 509.15C896.527 514.743 894.327 520.536 891.887 525.895C890.857 528.157 888.596 530.713 888.205 533.198C887.587 537.141 890.476 542.461 891.199 546.355C893.561 559.096 894.104 572.3 893.299 585.23C892.868 592.165 891.91 598.367 889.647 604.889C886.764 613.198 888.104 619.545 889.304 628.11C890.588 637.276 891.818 658.111 882.287 663.319C881.614 663.25 880.939 663.18 880.265 663.111C878.562 661.148 877.05 661.264 875.73 663.461C873.265 664.265 870.857 666.336 868.261 667.227C862.236 669.296 855.735 669.422 849.451 670.331C837.152 672.112 824.894 675.253 812.81 675.633C798.502 676.083 783.576 675.522 769.586 673.014C766.694 672.495 763.314 671.124 760.422 670.861C756.497 670.504 753.742 673.114 749.69 672.5C743.41 671.549 739.442 664.903 739.031 659.457C737.723 642.103 747.351 634.145 763.085 631.063C752.918 616.508 741.213 604.567 738.508 585.874C735.845 567.482 741.62 546.196 752.109 531.461C762.177 517.316 779.357 507.859 797.074 511.448C805.297 513.114 844.09 524.567 836.591 537.559C834.928 531.616 824.701 532.766 819.76 531.908C811.562 530.484 803.366 528.337 795.049 528.779C778.691 529.649 762.881 539.325 754.96 553.972C745.828 570.859 749.995 587.711 760.989 602.129C771.041 615.312 781.404 629.162 794.922 638.681C792.309 642.836 793.254 644.14 788.063 643.396C784.499 642.885 781.165 640.106 777.563 639.414C770.094 637.98 758.338 644.1 753.723 650.22C750.996 653.836 751.097 655.623 756.125 657.85C759.835 659.493 765.677 658.644 769.662 659C779.575 659.885 789.679 660.181 799.624 660.146C816.839 660.083 832.849 657.321 849.886 655.533C857.437 654.74 865.334 655.654 872.722 652.875C882.729 649.112 880.277 638.059 878.98 629.105C877.695 620.236 879.003 613.357 880.397 604.574C881.001 600.759 882.129 596.355 881.33 592.515C880.382 587.953 878.681 585.934 878.898 580.846C879.67 562.739 877.398 543.67 872.599 526.194C862.176 488.237 836.724 458.28 815.497 426.019C809.502 416.907 803.199 408.273 798.426 398.405C793.905 389.056 790.791 379.168 786.301 369.793C776.405 349.13 767.018 327.845 761.235 305.619C754.681 308.198 747.62 311.992 740.594 312.902C732.634 313.933 724.125 307.505 719.105 301.844C707.656 288.936 705.045 271.43 705.901 254.796C706.154 249.872 706.46 244.909 707.342 240.051C707.915 236.898 711.624 229.266 710.779 226.328C709.874 223.184 704.604 220.451 702.986 217.337C700.924 213.373 700.687 208.271 700.797 203.898C700.899 199.906 703.103 180.36 709.432 188.349C713.057 192.926 707.758 210.182 711.437 212.531C714.748 214.644 719.308 212.062 722.74 216.893C726.448 222.114 724.462 228.549 723.162 234.109C720.475 245.607 717.952 258.023 718.021 269.832C718.082 280.585 720.004 294.179 731.754 298.528C737.69 300.725 742.196 299.214 746.623 295.122C747.638 293.954 748.673 292.805 749.728 291.674C750.697 290.009 752.183 289.802 754.187 291.054C755.67 289.876 757.868 281.736 758.61 279.917C767.71 257.617 753.363 232.013 748.103 210.133C744.886 196.75 742.081 183.326 748.593 170.41C749.647 168.319 752.551 166.502 750.809 163.502C750.35 162.713 745.966 162.343 744.928 161.426C741.546 158.441 742.251 152.876 742.251 148.891C734.43 151.303 732.176 145.218 733.193 137.76C727.359 138.685 723.307 140.469 721.147 133.719C719.232 127.733 722.124 121.629 724.043 116.051C697.05 113.158 667.897 109.451 646.385 90.8247C641.081 86.2317 636.67 80.4507 632.994 74.4617C632.33 73.3787 629.202 65.7547 628.165 65.3567C625.084 64.1737 622.499 70.2017 619.761 71.6947C617.327 73.0207 613.867 73.7517 611.163 74.5597C608.618 75.3207 599.647 75.4727 598.056 76.7937C594.078 80.0977 594.392 99.1987 594.361 103.632C594.253 118.9 597.661 134.115 603.964 148.016C609.9 161.108 618.983 179.112 630.856 187.68C633.856 189.846 636.557 190.969 640.359 190.79C643.075 190.663 645.768 188.761 648.596 189.75C655.753 192.254 653.193 197.229 647.691 199.581C631.965 206.307 618.711 191.521 609.617 181.191C606.954 193.447 619.302 207.95 625.836 217.95C629.999 224.323 634.115 230.702 638.076 237.205C640.952 241.928 646.605 250.65 636.564 247.002C631.72 272.424 618.426 294.657 611.637 319.362C604.667 344.722 598.592 373.679 598.592 400.089C603.899 396.395 606.575 379.56 613.713 392.445C614.485 393.839 614.243 396.146 615.261 397.364C616.669 399.049 618.363 398.581 620.52 399.782C623.94 401.685 626.146 405.479 623.089 408.769C627.027 407.853 631.151 408.32 632 412.977C632.476 415.591 628.648 427.7 625.792 428.689C617.085 431.703 607.431 414.321 605.073 408.792C599.634 414.251 593.367 418.45 588.354 409.62C584.618 403.04 586.786 393.085 587.313 385.922C588.375 371.492 589.761 357.417 591.843 343.126C595.747 316.328 605.656 292.495 617.827 268.374C621.178 261.735 624.891 254.939 627.884 248.146C632.398 237.897 625.335 240.315 618.431 241.803C604.905 244.72 590.742 246.983 577.075 248.016C569.941 248.555 560.805 248.876 553.95 250.938C549.13 252.388 549.957 251.387 548.021 256.549C547.155 258.859 546.178 261.316 544.651 263.294C536.863 273.386 516.691 271.697 505.551 270.945C506.226 266.689 506.893 262.431 507.593 258.179C499.017 260.194 488.831 261.597 479.999 261.494C475.244 261.44 470.187 260.715 465.444 260.32C461.947 260.029 455.317 257.55 452.026 258.514C448.21 259.633 442.439 273.43 440.257 277.879C436.16 286.234 428.839 295.516 426.254 304.313C423.962 312.112 428.639 325.568 430.108 333.331C432.231 344.553 434.166 355.796 437.724 366.677C440.304 374.566 443.277 385.441 451.198 389.376C459.09 393.298 464.762 395.504 473.304 394.706C488.346 393.3 504.349 395.609 519.199 398.533C534.491 401.544 548.494 402.9 563.015 408.266C595.95 420.439 616.923 457.937 604.505 492.289C597.363 512.047 585.597 526.731 568.337 538.954C559.542 545.183 549.151 550.236 539.509 555.036C535.082 557.24 530.73 559.914 526.218 561.872C522.921 563.303 517.254 566.597 513.672 566.958C517.648 568.849 521.166 567.078 525.303 566.491C531.156 565.658 537.133 565.48 543.007 564.754C552.151 563.622 561.159 562.768 570.306 561.633C578.113 560.664 586.922 560.32 594.681 561.436C598.429 561.975 604.07 563.039 607.408 564.845C610.033 566.265 612.44 569.537 615.263 571.158C618.368 558.407 616.916 542.689 617.061 529.586C617.18 518.89 617.657 508.43 618.664 497.784C619.791 485.877 612.507 472.336 609.817 460.674C607.3 449.759 600.594 435.926 603.062 424.533C606.175 410.172 614.322 435.971 615.442 439.66C618.949 451.201 623.02 462.467 626.906 473.872C631.529 487.439 636.187 500.585 642.92 513.298C648.523 523.877 654.962 536.287 666.477 541.447C665.527 525.889 664.472 511.484 658.004 497.14C651.871 483.538 642.518 471.442 638.429 456.867C636.398 449.624 636.1 442.217 635.999 434.736C635.931 429.703 636.162 422.937 641.56 428.364C645.841 432.667 646.672 446.393 648.546 452.187C649.449 454.975 650.699 457.535 651.696 460.247C652.145 461.468 655.168 467.419 655.168 468.217C658.285 477.622 665.176 486.643 670.019 495.298Z" fill="black"/>
<path fill-rule="evenodd" clip-rule="evenodd" d="M339.458 152.426C339.755 156.069 341.868 165.511 339.162 168.394C335.575 172.219 333.875 167.299 332.324 163.42C329.082 155.314 327.471 139.617 333.877 132.862C340.565 125.808 353.779 125.618 360.916 118.593C363.781 115.771 363.506 116.36 363.256 111.948C363.115 109.457 361.504 106.147 360.725 103.908C358.7 98.0903 356.479 92.3423 354.361 86.5583C350.66 88.2453 345.334 93.4493 341.688 89.0873C338.318 85.0543 343.925 78.4463 347.83 77.2673C345.791 72.8103 336.186 73.6343 334.356 67.0873C332.766 61.3973 337.334 63.6583 338.333 61.4173C339.509 58.7803 337.101 55.2153 338.34 52.7853C342.641 44.3483 347.404 59.8613 349.546 62.6303C353.531 67.7803 360.473 68.9053 361.084 76.6953C361.461 81.4913 361.1 83.7213 363.076 88.4313C364.895 92.7673 367.057 96.9253 368.583 101.387C370.88 108.11 374.422 120.345 369.933 126.855C366.147 132.346 356.954 136.532 350.976 138.88C347.982 140.055 343.831 140.771 341.409 143.06C338.248 146.046 339.232 147.881 339.458 152.426Z" fill="black"/>
<path fill-rule="evenodd" clip-rule="evenodd" d="M650.057 355.723C649.375 354.649 648.692 353.575 648.01 352.5C643.279 357.553 638.04 359.63 633.259 353.211C628.335 346.603 630.184 336.694 632.099 329.477C633.084 325.763 638.067 311.12 641.259 322.275C641.963 324.737 639.608 330.219 639.182 332.629C638.344 337.357 637.684 341.892 638.274 346.707C643.82 341.743 646.536 329.158 652.165 342.226C654.206 346.965 654.43 354.769 659.864 347.571C662.765 343.727 662.951 336.631 664.309 332.102C673.572 334.317 671.884 348.015 668.792 354.689C663.868 365.316 657.169 361.894 650.057 355.723Z" fill="black"/>
<path fill-rule="evenodd" clip-rule="evenodd" d="M682.49 117.333C685.785 122.828 679.552 132.877 678.423 138.519C683.942 137.88 697.601 124.567 701.445 126.762C709.448 131.33 692.543 147.262 689.295 149.597C663.336 168.255 668.016 114.284 682.49 117.333Z" fill="black"/>
<path fill-rule="evenodd" clip-rule="evenodd" d="M649.938 178.525C659.636 175.825 672.714 193.231 666.423 201.851C661.91 208.034 656.334 204.498 654.92 199.055C654.2 196.279 654.839 192.934 653.896 189.838C652.736 186.026 651.181 182.313 649.938 178.525Z" fill="black"/>
<path fill-rule="evenodd" clip-rule="evenodd" d="M351.646 103.498C359.022 109.697 343.951 124.81 336.396 112.976C334.318 109.721 333.94 106.75 337.021 105.548C338.577 104.942 342.246 106.927 344.442 106.576C346.849 106.191 349.464 104.498 351.646 103.498Z" fill="black"/>
<path fill-rule="evenodd" clip-rule="evenodd" d="M326.303 78.71C323.441 75.14 315.398 53.18 325.365 58.071C330.37 60.527 334.506 79.3 326.303 78.71Z" fill="black"/>
<path fill-rule="evenodd" clip-rule="evenodd" d="M655.383 551.022C655.1 548.251 654.817 545.479 654.534 542.707C658.214 544.584 665.598 546.437 666.879 550.638C669.285 558.53 658.111 552.217 655.383 551.022Z" fill="black"/>
<path fill-rule="evenodd" clip-rule="evenodd" d="M762.211 216.758C760.019 213.797 753.202 189.098 759.116 189.663C760.152 198.623 760.365 207.928 762.211 216.758Z" fill="black"/>
<path fill-rule="evenodd" clip-rule="evenodd" d="M670.018 495.297C665.175 486.643 658.284 477.622 655.167 468.216C662.473 474.132 668.181 486.218 670.018 495.297Z" fill="black"/>
<path fill-rule="evenodd" clip-rule="evenodd" d="M868.638 475.235C868.933 478.372 869.228 481.508 869.523 484.644C865.135 485.777 868.369 476.27 868.638 475.235Z" fill="black"/>
<path fill-rule="evenodd" clip-rule="evenodd" d="M655.177 468.231C653.1 465.97 652.211 463.19 651.696 460.247C652.856 462.907 654.016 465.569 655.177 468.231Z" fill="black"/>
<path fill-rule="evenodd" clip-rule="evenodd" d="M680.295 610.232C680.372 607.441 680.449 604.65 680.526 601.866C680.449 604.658 680.372 607.445 680.295 610.232Z" fill="black"/>
<path fill-rule="evenodd" clip-rule="evenodd" d="M352.177 157.375C354.035 157.606 355.894 157.837 357.753 158.068C356.286 158.755 352.83 159.668 352.177 157.375Z" fill="black"/>
<path fill-rule="evenodd" clip-rule="evenodd" d="M722.783 639.524C724.717 639.232 726.657 638.567 728.557 639.637C726.629 639.6 724.706 639.562 722.783 639.524Z" fill="black"/>
<path fill-rule="evenodd" clip-rule="evenodd" d="M667.531 576.473C667.557 578.54 667.583 580.607 667.606 582.667C667.579 580.598 667.555 578.536 667.531 576.473Z" fill="black"/>
<path fill-rule="evenodd" clip-rule="evenodd" d="M707.485 544.308C707.363 546.513 707.241 548.717 707.12 550.917C707.242 548.711 707.363 546.51 707.485 544.308Z" fill="black"/>
<path fill-rule="evenodd" clip-rule="evenodd" d="M681.179 552.935C681.074 551.017 680.969 549.099 680.865 547.185C680.97 549.104 681.075 551.02 681.179 552.935Z" fill="black"/>
<path fill-rule="evenodd" clip-rule="evenodd" d="M738.639 569.857C738.535 571.565 738.432 573.274 738.328 574.978C738.432 573.268 738.535 571.562 738.639 569.857Z" fill="black"/>
<path fill-rule="evenodd" clip-rule="evenodd" d="M391.459 613.014C389.578 613.962 387.698 614.056 385.823 613.002C387.703 613.006 389.581 613.01 391.459 613.014Z" fill="black"/>
<path fill-rule="evenodd" clip-rule="evenodd" d="M583.987 96.8067C584.013 98.4957 584.04 100.185 584.066 101.867C584.038 100.176 584.012 98.4917 583.987 96.8067Z" fill="black"/>
<path fill-rule="evenodd" clip-rule="evenodd" d="M397.194 142.89C395.267 143.036 393.34 143.181 391.415 143.327C393.341 143.181 395.268 143.036 397.194 142.89Z" fill="black"/>
<path fill-rule="evenodd" clip-rule="evenodd" d="M795.106 149.39C795.096 147.723 795.086 146.056 795.078 144.392C795.962 146.056 795.979 147.721 795.106 149.39Z" fill="black"/>
<path fill-rule="evenodd" clip-rule="evenodd" d="M339.458 152.426C339.37 150.655 339.282 148.885 339.195 147.117C339.284 148.889 339.371 150.657 339.458 152.426Z" fill="black"/>
<path fill-rule="evenodd" clip-rule="evenodd" d="M812.81 675.633C814.111 675.642 815.413 675.651 816.702 675.66C815.396 675.651 814.103 675.642 812.81 675.633Z" fill="black"/>
<path fill-rule="evenodd" clip-rule="evenodd" d="M300.731 0.297913C299.02 0.443913 297.309 0.589913 295.598 0.734913C297.309 0.589913 299.02 0.443913 300.731 0.297913Z" fill="black"/>
<path fill-rule="evenodd" clip-rule="evenodd" d="M469.488 653.599C470.591 653.598 471.694 653.597 472.784 653.598C471.677 653.599 470.583 653.599 469.488 653.599Z" fill="black"/>
<path fill-rule="evenodd" clip-rule="evenodd" d="M640.358 190.79C638.685 190.623 637.012 190.455 635.34 190.287C637.013 190.455 638.686 190.623 640.358 190.79Z" fill="black"/>
<path fill-rule="evenodd" clip-rule="evenodd" d="M716.404 650.68C716.507 649.301 716.609 647.922 716.712 646.549C716.609 647.93 716.507 649.305 716.404 650.68Z" fill="black"/>
<path fill-rule="evenodd" clip-rule="evenodd" d="M535.308 173.134C533.661 173.119 532.014 173.105 530.368 173.091C532.023 172.133 533.667 172.407 535.308 173.134Z" fill="black"/>
<path fill-rule="evenodd" clip-rule="evenodd" d="M315.544 0.758822C313.884 0.705822 312.129 1.57082 310.599 0.254822C312.248 0.422822 313.896 0.590822 315.544 0.758822Z" fill="black"/>
<path fill-rule="evenodd" clip-rule="evenodd" d="M270.708 163.511C269.117 163.657 267.525 163.803 265.935 163.948C267.527 163.802 269.117 163.657 270.708 163.511Z" fill="black"/>
<path fill-rule="evenodd" clip-rule="evenodd" d="M370.948 611.585C369.272 611.76 367.595 611.934 365.921 612.109C367.597 611.934 369.273 611.76 370.948 611.585Z" fill="black"/>
<path fill-rule="evenodd" clip-rule="evenodd" d="M412.671 141.88C411.037 141.915 409.402 141.95 407.769 141.985C409.39 141.336 411.012 140.724 412.671 141.88Z" fill="black"/>
<path fill-rule="evenodd" clip-rule="evenodd" d="M680.235 588.977C680.226 587.56 680.216 586.143 680.207 584.729C680.216 586.147 680.226 587.562 680.235 588.977Z" fill="black"/>
<path fill-rule="evenodd" clip-rule="evenodd" d="M869.239 468.817C869.063 470.53 868.886 472.242 868.711 473.955C868.886 472.243 869.063 470.53 869.239 468.817Z" fill="black"/>
<path fill-rule="evenodd" clip-rule="evenodd" d="M657.156 579.217C657.034 577.759 656.913 576.301 656.792 574.847C656.913 576.306 657.035 577.762 657.156 579.217Z" fill="black"/>
<path fill-rule="evenodd" clip-rule="evenodd" d="M107.363 565.823C107.064 567.277 106.004 567.563 104.183 566.681L107.363 565.823Z" fill="black"/>
<path fill-rule="evenodd" clip-rule="evenodd" d="M718.172 566.469C718.074 565.202 717.978 563.935 717.882 562.671C717.98 563.939 718.075 565.204 718.172 566.469Z" fill="black"/>
<path fill-rule="evenodd" clip-rule="evenodd" d="M375.709 144.933C374.334 145.12 372.958 145.306 371.583 145.493C372.959 145.306 374.334 145.12 375.709 144.933Z" fill="black"/>
<path fill-rule="evenodd" clip-rule="evenodd" d="M666.703 555.671C666.701 556.915 666.699 558.158 666.696 559.398C666.699 558.152 666.701 556.912 666.703 555.671Z" fill="black"/>
<path fill-rule="evenodd" clip-rule="evenodd" d="M583.74 109.083C583.741 110.26 583.742 111.436 583.743 112.607C583.742 111.429 583.741 110.256 583.74 109.083Z" fill="black"/>
<path fill-rule="evenodd" clip-rule="evenodd" d="M82.0752 384.75C81.9392 385.99 81.8032 387.231 81.6682 388.466C81.8042 387.224 81.9392 385.987 82.0752 384.75Z" fill="black"/>
<path fill-rule="evenodd" clip-rule="evenodd" d="M906.01 470.002C905.937 468.834 905.864 467.666 905.791 466.504C905.864 467.674 905.937 468.838 906.01 470.002Z" fill="black"/>
<path fill-rule="evenodd" clip-rule="evenodd" d="M195.641 624.153C194.22 624.13 192.799 624.108 191.378 624.085C192.816 623.1 194.233 623.311 195.641 624.153Z" fill="black"/>
<path fill-rule="evenodd" clip-rule="evenodd" d="M361.119 78.4492C361.096 77.2782 361.073 76.1072 361.05 74.9402C361.78 76.0992 362.014 77.2632 361.119 78.4492Z" fill="black"/>
<path fill-rule="evenodd" clip-rule="evenodd" d="M247.66 63.5972C247.759 62.4422 247.858 61.2872 247.956 60.1392C247.857 61.2962 247.759 62.4462 247.66 63.5972Z" fill="black"/>
<path fill-rule="evenodd" clip-rule="evenodd" d="M717.335 467.914C717.286 466.641 717.236 465.368 717.189 464.097C717.238 465.371 717.286 466.643 717.335 467.914Z" fill="black"/>
<path fill-rule="evenodd" clip-rule="evenodd" d="M708.188 533.679C708.153 534.88 708.118 536.08 708.081 537.274C708.115 536.071 708.152 534.875 708.188 533.679Z" fill="black"/>
<path fill-rule="evenodd" clip-rule="evenodd" d="M544.629 649.463C545.52 649.461 546.41 649.459 547.29 649.46C546.397 649.463 545.513 649.463 544.629 649.463Z" fill="black"/>
<path fill-rule="evenodd" clip-rule="evenodd" d="M111.335 650.071C112.224 650.095 113.112 650.119 113.99 650.144C113.098 650.12 112.216 650.096 111.335 650.071Z" fill="black"/>
<path fill-rule="evenodd" clip-rule="evenodd" d="M648.814 544.702C640.147 538.005 632.591 527.99 630.832 517.268C634.559 521.479 637.691 526.178 641.419 530.386C642.901 532.057 644.719 533.497 646.141 535.199C649.385 539.082 648.814 539.254 648.814 544.702Z" fill="black"/>
<path fill-rule="evenodd" clip-rule="evenodd" d="M618.366 499.433C614.206 489.851 610.595 478.228 611.32 467.656C614.19 477.254 620.848 489.311 618.366 499.433Z" fill="black"/>
<path fill-rule="evenodd" clip-rule="evenodd" d="M632.322 555.779C632.252 558.561 632.181 561.343 632.114 564.118C632.186 561.333 632.254 558.556 632.322 555.779Z" fill="black"/>
<path fill-rule="evenodd" clip-rule="evenodd" d="M82.2241 631.393C85.0671 631.562 87.9111 631.731 90.7541 631.9C87.8981 631.938 85.0041 632.63 82.2241 631.393Z" fill="black"/>
<path fill-rule="evenodd" clip-rule="evenodd" d="M632.308 546.589C632.318 548.961 632.328 551.334 632.338 553.7C632.328 551.326 632.318 548.958 632.308 546.589Z" fill="black"/>
<path fill-rule="evenodd" clip-rule="evenodd" d="M515.493 271.543C513.892 271.46 512.291 271.376 510.703 271.293C512.308 271.376 513.901 271.46 515.493 271.543Z" fill="black"/>
<path fill-rule="evenodd" clip-rule="evenodd" d="M541.53 212.54C541.524 210.615 541.518 208.69 541.512 206.769C541.517 208.695 541.524 210.618 541.53 212.54Z" fill="black"/>
<path fill-rule="evenodd" clip-rule="evenodd" d="M507.156 260.83C507.083 259.476 506.362 258.794 504.992 258.785C507.742 257.299 508.464 257.981 507.156 260.83Z" fill="black"/>
<path fill-rule="evenodd" clip-rule="evenodd" d="M588.707 367.923C588.814 366.21 588.922 364.497 589.029 362.788C588.921 364.502 588.814 366.213 588.707 367.923Z" fill="black"/>
<path fill-rule="evenodd" clip-rule="evenodd" d="M122.59 632.603C124.508 632.47 126.426 632.336 128.344 632.203C126.425 632.336 124.508 632.47 122.59 632.603Z" fill="black"/>
<path fill-rule="evenodd" clip-rule="evenodd" d="M525.426 400.039L531.133 399.999C529.23 400.013 527.328 400.026 525.426 400.039Z" fill="black"/>
<path fill-rule="evenodd" clip-rule="evenodd" d="M579.902 191.295C578.575 191.306 577.248 191.317 575.933 191.327C577.265 191.316 578.583 191.306 579.902 191.295Z" fill="black"/>
<path fill-rule="evenodd" clip-rule="evenodd" d="M856.568 654.814C858.232 654.806 859.895 654.799 861.559 654.792C859.9 655.839 858.236 655.812 856.568 654.814Z" fill="black"/>
<path fill-rule="evenodd" clip-rule="evenodd" d="M158.048 424.514C156.92 424.546 155.792 424.578 154.675 424.61C155.807 424.578 156.927 424.546 158.048 424.514Z" fill="black"/>
<path fill-rule="evenodd" clip-rule="evenodd" d="M757.21 175.284C758.278 176.314 756.874 178.682 755.602 177.866C756.138 177.005 756.674 176.145 757.21 175.284Z" fill="black"/>
<path fill-rule="evenodd" clip-rule="evenodd" d="M235.687 528.781C235.734 527.324 235.782 525.866 235.829 524.412C235.781 525.87 235.734 527.326 235.687 528.781Z" fill="black"/>
<path fill-rule="evenodd" clip-rule="evenodd" d="M617.061 529.586C617.138 528.066 617.215 526.546 617.29 525.028C617.213 526.549 617.137 528.067 617.061 529.586Z" fill="black"/>
<path fill-rule="evenodd" clip-rule="evenodd" d="M883.21 371.167C883.273 372.689 883.337 374.211 883.399 375.728C883.336 374.205 883.272 372.686 883.21 371.167Z" fill="black"/>
<path fill-rule="evenodd" clip-rule="evenodd" d="M369.274 543.534C370.978 543.68 372.681 543.825 374.385 543.97C372.681 543.825 370.977 543.68 369.274 543.534Z" fill="black"/>
<path fill-rule="evenodd" clip-rule="evenodd" d="M602.938 426.798C603.021 425.286 603.105 423.774 603.188 422.265C603.104 423.778 603.021 425.288 602.938 426.798Z" fill="black"/>
<path fill-rule="evenodd" clip-rule="evenodd" d="M306.896 455.559C308.594 455.716 310.292 455.872 311.99 456.028C310.292 455.871 308.594 455.715 306.896 455.559Z" fill="black"/>
<path fill-rule="evenodd" clip-rule="evenodd" d="M457.151 587.766C456.057 587.767 454.964 587.767 453.882 587.767C454.98 587.766 456.066 587.766 457.151 587.766Z" fill="black"/>
<path fill-rule="evenodd" clip-rule="evenodd" d="M553.606 218.226C553.541 219.639 553.476 221.051 553.413 222.457C553.479 221.043 553.543 219.634 553.606 218.226Z" fill="black"/>
<path fill-rule="evenodd" clip-rule="evenodd" d="M577.832 560.95C579.513 559.756 581.148 560.544 582.789 561.062C581.136 561.025 579.484 560.987 577.832 560.95Z" fill="black"/>
<path fill-rule="evenodd" clip-rule="evenodd" d="M381.321 156.664C380.215 156.619 379.11 156.573 378.016 156.523C379.126 156.568 380.223 156.616 381.321 156.664Z" fill="black"/>
<path fill-rule="evenodd" clip-rule="evenodd" d="M649.282 586.933C649.182 585.526 649.083 584.12 648.984 582.718C649.083 584.127 649.182 585.53 649.282 586.933Z" fill="black"/>
<path fill-rule="evenodd" clip-rule="evenodd" d="M558.778 428.141C557.867 428.147 556.956 428.153 556.056 428.161C556.971 428.156 557.875 428.148 558.778 428.141Z" fill="black"/>
<path fill-rule="evenodd" clip-rule="evenodd" d="M597.208 479.236C597.209 478.063 597.21 476.889 597.211 475.722C597.21 476.897 597.209 478.067 597.208 479.236Z" fill="black"/>
<path fill-rule="evenodd" clip-rule="evenodd" d="M538.917 565.285C540.282 565.108 541.646 564.931 543.009 564.754C541.644 564.931 540.28 565.108 538.917 565.285Z" fill="black"/>
<path fill-rule="evenodd" clip-rule="evenodd" d="M479.925 394.584C481.403 394.575 482.881 394.565 484.359 394.556C482.886 395.424 481.407 395.261 479.925 394.584Z" fill="black"/>
<path fill-rule="evenodd" clip-rule="evenodd" d="M556.489 250.962C555.635 250.954 554.781 250.946 553.938 250.939C554.796 250.946 555.642 250.954 556.489 250.962Z" fill="black"/>
<path fill-rule="evenodd" clip-rule="evenodd" d="M304.088 468.61C303.207 468.598 302.327 468.586 301.457 468.573C302.342 468.586 303.215 468.598 304.088 468.61Z" fill="black"/>
<path fill-rule="evenodd" clip-rule="evenodd" d="M133.928 410.851C135.403 410.866 136.878 410.882 138.353 410.897C136.869 411.73 135.394 411.752 133.928 410.851Z" fill="black"/>
<path fill-rule="evenodd" clip-rule="evenodd" d="M883.352 413.291C883.258 414.416 883.165 415.542 883.076 416.661C883.169 415.533 883.26 414.412 883.352 413.291Z" fill="black"/>
<path fill-rule="evenodd" clip-rule="evenodd" d="M507.842 594.158C507.967 592.929 508.093 591.7 508.218 590.475C508.092 591.706 507.967 592.932 507.842 594.158Z" fill="black"/>
<path fill-rule="evenodd" clip-rule="evenodd" d="M269.341 447.739C270.831 447.76 272.322 447.782 273.813 447.803C272.307 448.84 270.825 448.187 269.341 447.739Z" fill="black"/>
<path fill-rule="evenodd" clip-rule="evenodd" d="M609.142 232.002C610.592 231.838 612.041 231.674 613.491 231.51C612.041 231.674 610.592 231.838 609.142 232.002Z" fill="black"/>
<path fill-rule="evenodd" clip-rule="evenodd" d="M487.999 625.85C488.13 627.141 488.261 628.432 488.391 629.719C488.26 628.427 488.129 627.139 487.999 625.85Z" fill="black"/>
<path fill-rule="evenodd" clip-rule="evenodd" d="M617.085 540.943C617.083 539.738 617.08 538.534 617.079 537.335C617.081 538.542 617.083 539.742 617.085 540.943Z" fill="black"/>
<path fill-rule="evenodd" clip-rule="evenodd" d="M91.4595 632.071C92.8625 632.256 94.2655 632.44 95.6675 632.625C94.2645 632.44 92.8615 632.256 91.4595 632.071Z" fill="black"/>
<path fill-rule="evenodd" clip-rule="evenodd" d="M117.78 632.638C119.165 631.506 120.571 631.853 121.982 632.578C120.581 632.598 119.18 632.618 117.78 632.638Z" fill="black"/>
<path fill-rule="evenodd" clip-rule="evenodd" d="M370.868 466.721C372.24 466.553 373.612 466.385 374.982 466.217C373.61 466.385 372.239 466.553 370.868 466.721Z" fill="black"/>
<path fill-rule="evenodd" clip-rule="evenodd" d="M523.313 639.015C524.711 638.828 526.109 638.641 527.507 638.454C526.108 638.641 524.711 638.828 523.313 639.015Z" fill="black"/>
<path fill-rule="evenodd" clip-rule="evenodd" d="M474.415 641.187C475.841 641.004 477.266 640.821 478.692 640.638C477.266 640.821 475.841 641.004 474.415 641.187Z" fill="black"/>
<path fill-rule="evenodd" clip-rule="evenodd" d="M552.911 226.766C552.848 227.917 552.785 229.069 552.724 230.213C552.787 229.059 552.849 227.912 552.911 226.766Z" fill="black"/>
<path fill-rule="evenodd" clip-rule="evenodd" d="M217.107 501.236C217.234 500.014 217.361 498.791 217.488 497.573C217.36 498.797 217.234 500.017 217.107 501.236Z" fill="black"/>
<path fill-rule="evenodd" clip-rule="evenodd" d="M541.902 196.993C541.939 195.794 541.976 194.595 542.014 193.402C541.978 194.603 541.94 195.798 541.902 196.993Z" fill="black"/>
<path fill-rule="evenodd" clip-rule="evenodd" d="M269.594 487.643C269.72 488.867 269.846 490.091 269.971 491.31C269.845 490.084 269.719 488.864 269.594 487.643Z" fill="black"/>
<path fill-rule="evenodd" clip-rule="evenodd" d="M274.318 447.751C275.764 447.911 277.21 448.07 278.655 448.23C277.209 448.07 275.763 447.911 274.318 447.751Z" fill="black"/>
<path fill-rule="evenodd" clip-rule="evenodd" d="M504.509 626.178C505.333 628.595 505.03 634.218 502.692 635.921C497.841 639.457 497.342 633 496.379 629.512C493.708 619.837 489.407 609.033 488.311 599.086C487.975 596.035 487.794 590.32 491.83 589.291C495.726 588.299 497.698 594.471 499.042 597.641C502.769 606.437 504.931 616.641 504.509 626.178Z" fill="black"/>
<path fill-rule="evenodd" clip-rule="evenodd" d="M504.51 626.178C504.565 624.928 504.621 623.679 504.676 622.435C504.62 623.686 504.565 624.932 504.51 626.178Z" fill="black"/>
</svg>
