<svg width="1006" height="735" viewBox="0 0 1006 735" fill="none" xmlns="http://www.w3.org/2000/svg">
<path fill-rule="evenodd" clip-rule="evenodd" d="M218 425.457L220.613 458.232L270.268 470.03L308.163 487.073L338.217 513.293L352.591 501.494L370.885 460.854L391.792 456.921L467.581 464.787L493.716 472.652L484.569 517.226L475.422 550L627 540.823L621.773 464.787L590.412 395.305L466.275 335L373.498 346.799L308.163 418.902L279.415 434.634L228.454 432.012" fill="#5433FF"/>
<path fill-rule="evenodd" clip-rule="evenodd" d="M843.006 124.211C853.218 136.625 838.173 154.18 829.641 162.843C825.501 167.048 822.069 171.909 818.021 176.219C814.022 180.478 809.003 183.83 805.412 187.942C801.641 192.26 797.29 196.986 794.137 201.843C792.142 204.921 789.182 208.358 788.191 211.93C786.767 217.066 787.957 214.099 789.84 217.003C791.763 219.969 792.411 220.14 793.064 224.274C793.697 228.292 794.598 231.233 796.769 234.666C800.345 240.321 804.207 245.638 806.729 251.89C810.082 260.206 812.454 268.648 815.125 277.203C816.167 280.54 816.866 284.361 818.547 287.435C820.934 291.802 821.271 291.436 824.823 288.712C835.429 280.583 846.154 271.99 857.21 264.243C863.543 259.805 870.122 255.459 876.805 251.571C881.393 248.902 891.249 244.153 893.546 239.2C896.59 232.631 891.851 226.604 898.375 220.556C902.622 216.617 909.547 214.433 915.081 213.476C922.904 212.125 931.546 214.055 939.36 214.754C947.26 215.46 954.985 214.691 962.733 213.075C974.593 210.601 997.376 196.911 1005.06 213.357C1008.43 220.553 1006.15 228.526 1005.52 235.903C1004.97 242.331 1003.08 249.156 999.079 254.444C994.501 260.485 987.839 260.802 980.909 262.407C972.724 264.3 964.325 264.99 956.13 266.838C952.093 267.748 948.111 268.191 943.966 268.382C940.278 268.553 934.957 267.058 931.72 267.53C928.65 267.977 929.699 269.915 927.543 271.258C926.668 271.803 924.886 271.412 924.34 271.852C922.842 273.057 922.408 274.106 921.315 276.289C917.844 283.222 912.593 289.98 908.129 296.331C904.37 301.682 900.015 308.233 895.593 313.007C886.217 323.131 877.112 334.285 867.859 344.863C863.151 350.245 857.505 355.971 852.034 360.597C850.346 362.025 846.933 363.31 846.07 365.31C844.839 368.16 848.188 374.433 848.97 377.298C850.828 384.11 851.08 391.145 853.051 397.853C854.938 404.269 855.623 411.264 856.041 417.952C856.988 433.068 859.053 447.404 858.569 462.529C858.15 475.572 857.672 488.08 853.143 500.887C849.02 512.543 836.669 525.233 825.182 529.528C818.345 532.085 811.993 534.409 805.113 535.796C798.317 537.165 791.157 538.567 784.41 540.495C771.892 544.071 758.698 546.568 745.697 547.793C729.057 549.36 711.698 549.51 695.101 548.934C687.533 548.671 679.754 548.655 672.285 548.678C664.544 548.701 657.252 550.226 649.515 551.038C622.21 553.901 593.354 551.6 566.065 554.401C552.577 555.785 539.11 558.449 525.388 558.609C513.102 558.75 500.646 557.94 488.632 557.886C484.822 557.869 481.502 558.174 477.695 557.299C475.687 556.838 472.864 555.042 470.837 556.077C469.066 556.98 467.731 560.79 466.633 562.412C464.234 565.96 461.311 568.809 458.225 571.751C445.973 583.428 433.832 587.361 417.753 591.64C410.371 593.605 406.727 594.632 400.529 599.128C395.481 602.79 390.372 605.421 384.561 607.58C373.163 611.814 359.722 608.539 349.009 604.865C343.822 603.087 338.372 601.469 333.072 599.357C325.854 596.482 319.896 591.705 312.782 588.767C313.598 596.358 305.365 598.907 302.867 604.008C301.254 607.304 302.232 612.48 300.511 616.206C298.915 619.661 296.448 622.928 292.6 623.833C287.357 625.064 277.984 619.231 274.301 615.828C272.257 613.938 270.431 608.906 267.927 608.069C264.662 606.975 258.676 611.806 255.585 612.896C240.794 618.118 225.806 620.58 209.925 618.5C193.834 616.392 179.083 610.679 163.993 605.26C134.44 594.649 108.716 577.181 85.5744 556.148C84.2871 554.977 82.4188 553.934 81.531 552.4C80.7555 551.06 80.8234 547.897 80.3168 547.15C78.8088 544.924 76.5502 545.318 73.7223 545.105C64.9853 544.445 58.0448 542.335 51.2727 536.48C40.6139 527.264 36.671 505.777 53.0104 500.07C57.187 498.61 61.784 498.32 66.1015 499.219C67.8824 499.59 74.5069 503.605 76.199 503.336C78.7644 502.928 78.2657 499.626 78.9472 497.861C80.6758 493.39 83.1081 489.454 86.0405 485.66C90.9143 479.353 96.8534 473.013 102.948 467.881C109.568 462.303 116.859 459.828 124.741 456.74C130.051 454.659 140.416 451.087 146.04 452.948C153.364 455.372 149.779 463.377 145.164 466.177C138.572 470.177 130.662 471.816 123.982 475.863C116.611 480.33 109.878 486.448 103.132 491.817C97.7033 496.137 92.9993 501.47 87.4845 505.613C86.0222 506.71 83.6343 508.632 83.1799 509.238C83.022 509.448 83.2165 511.156 82.4932 511.916C79.2854 515.284 80.0361 514.903 75.2054 513.722C69.5104 512.329 55.9153 509.178 52.0756 516.239C48.6197 522.593 62.7645 528.319 67.4084 530.257C74.2262 533.101 75.819 535.958 80.6902 541.377C85.6801 546.933 93.9693 550.709 100.22 554.85C113.732 563.8 128.92 570.15 143.39 577.261C157.471 584.18 172.608 589.16 187.28 594.001C196.138 596.923 206.754 600.059 216.051 600.959C225.419 601.867 234.204 600.34 243.395 598.552C247.07 597.837 249.845 597.289 253.688 595.934C255.4 595.33 258.193 595.241 259.552 594.185C261.659 592.548 260.783 591.24 261.156 588.443C262.788 576.179 271.296 589.87 275.061 593.953C277.966 597.104 280.826 600.977 284.65 602.974C289.443 605.474 290.275 604.296 291.846 600.172C294.786 592.45 295.892 583.673 307.002 584.807C298.23 577.302 289.87 570.925 282.362 561.906C274.954 553.009 268.028 543.447 260.924 534.303C255.101 526.808 250.03 516.465 242.472 510.553C240.083 508.684 232.82 504.378 230.055 504.468C225.917 504.602 222.243 511.363 217.786 511.925C212.863 512.547 210.596 510.828 209.19 506.831C207.732 502.684 211.218 497.911 210.04 494.896C209.712 494.057 207.617 493.052 206.969 491.834C205.995 490.004 205.925 487.597 206.216 485.571C206.651 482.547 207.72 481.313 207.492 478.271C207.226 474.736 205.677 472.151 206.897 468.453C208.178 464.569 212.12 462.442 214.58 459.573C218.303 455.231 216.401 451.958 214.907 446.38C211.709 434.445 207.979 422.646 204.733 410.718C197.269 413.08 189.971 415.758 182.467 417.958C175.25 420.077 166.319 421.977 159.622 425.318C155.598 427.325 156.716 425.481 157.014 429.939C157.204 432.824 158.424 436.05 158.99 438.895C160.036 444.151 160.492 457.714 164.608 460.225C167.101 461.746 171.111 459.536 173.852 462.608C176.16 465.19 175.468 468.947 176.857 471.819C177.72 473.604 179.39 474.283 180.429 475.924C182.599 479.353 182.368 482.236 182.751 486.08C182.991 488.499 182.619 495.747 183.823 497.627C185.428 500.135 188.61 499.7 191.293 500.482C198.053 502.45 204.28 505.874 210.02 509.867C213 513.51 234.323 534.843 225.062 537.557C220.59 538.868 212.679 528.794 209.46 526.055C204.472 521.812 199.247 519.024 193.164 516.683C178.318 510.971 164.886 505.837 148.719 508.209C141.788 509.225 133.368 512.295 126.405 511.619C119.398 510.939 121.213 504.689 125.595 501.2C129.513 498.082 134.966 498.959 136.686 493.73C138.421 488.448 136.558 481.772 139.342 476.479C141.72 471.958 147.325 467.267 151.652 464.648C153.538 463.507 156.772 462.709 157.758 461.027C158.566 459.647 155.235 451.737 154.773 450.093C152.512 442.037 150.047 433.973 148.132 425.83C146.356 418.283 145.894 414.371 153.844 411.632C165.976 407.45 178.697 405.494 190.835 401.65C188.683 396.044 181.958 400.761 177.127 400.566C171.211 400.328 164.364 398.381 158.729 396.563C145.937 392.435 137.233 382.141 135.256 368.868C134.821 365.957 136.191 360.117 135.131 357.543C134.131 355.111 131.303 353.928 129.236 352.195C123.909 347.731 119.191 341.601 116.317 335.257C113.437 328.899 113.236 321.757 114.91 315.047C115.831 311.35 116.352 310.842 115.049 307.346C113.54 303.302 111.079 299.702 109.687 295.546C107.408 288.739 106.165 281.401 106.289 274.213C106.43 266.15 109.664 262.532 111.806 255.423C113.497 249.811 111.19 242.054 111.576 235.827C112.071 227.859 114.111 221.457 117.632 214.365C123.042 203.468 131.609 191.787 142.76 186.073C144.966 184.942 148.59 184.876 150.56 183.562C153.008 181.93 153.2 179.524 154.158 176.664C156.444 169.845 159.298 164.321 164.241 159.108C180.273 142.2 208.365 136.212 230.894 137.639C234.94 137.896 238.797 139.811 242.631 138.686C245.288 137.906 248.103 135.138 250.842 133.991C254.309 132.541 257.782 131.693 261.512 131.321C268.878 130.587 274.869 131.363 281.658 133.85C284.221 134.79 286.675 135.816 289.202 136.835C293.19 138.447 292.963 137.679 296.714 136.932C304.19 135.443 308.485 136.545 315.109 139.735C316.874 140.585 319.666 141.216 321.183 142.407C323.332 144.094 324.209 149.221 326.6 150.177C327.927 150.709 332.029 148.753 333.739 148.475C336.758 147.982 339.714 148.416 342.717 148.383C348.034 148.326 353.655 148.523 358.51 151.037C362.167 152.93 366.568 156.581 369.717 159.013C374.074 162.377 376.796 168.738 382.237 170.5C384.367 171.19 386.673 170.492 388.848 171.08C391.684 171.846 394.407 173.9 396.704 175.714C400.655 178.834 403.996 186.086 408.021 187.354C410.706 188.201 414.882 187.317 417.955 188.194C421.812 189.294 425.009 190.889 427.868 193.807C433.322 199.375 434.862 207.604 435.096 215.153C435.159 217.188 433.904 222.925 435.123 224.731C436.206 226.333 440.284 227.257 441.945 228.901C447.136 234.042 449.481 242.607 450.006 249.649C450.606 257.683 448.532 263.346 447.104 271.035C446.214 275.827 445.064 272.757 449.108 275.58C451.885 277.518 453.802 278.874 455.603 281.916C459.368 288.277 460.315 295.776 459.693 303.025C458.917 312.07 454.33 318.811 452.267 327.369C461.772 327.369 472.01 329.881 481.296 331.633C484.721 332.28 487.376 334.164 490.416 335.674C493.041 336.977 494.998 337.129 497.474 337.993C503.466 340.083 502.308 339.734 506.476 335.457C523.082 318.423 546.719 308.139 570.555 308.474C583.85 308.659 596.711 310.414 609.14 315.2C614.292 317.183 620.018 319.321 624.589 322.431C629.883 326.036 630.671 325.994 637.67 326.14C663.015 326.666 687.609 340.279 706.054 356.778C707.702 345.711 725.676 339.075 734.38 334.488C737.354 332.921 740.087 332.104 741.55 329.167C742.92 326.419 742.839 320.765 743.754 317.528C745.434 311.583 747.376 304.309 747.224 298.039C746.79 279.888 742.589 261.82 742.045 243.626C741.908 239.057 741.39 233.929 741.997 229.405C742.486 225.76 744.15 223.487 741.758 220.113C737.217 213.707 728.844 212.108 726.029 203.676C721.492 190.088 729.286 176.193 739.926 168.111C746.053 163.458 752.039 162.473 756.95 155.95C761.372 150.073 765.11 143.123 770.15 137.78C774.378 133.301 778.228 127.3 783.073 123.573C788.04 119.751 795.333 117.168 801.264 115.352C815.503 110.992 832.987 112.033 843.006 124.211ZM397.94 465.556C394.628 465.697 391.295 466.07 387.976 466.066C385.958 466.063 381.267 464.973 379.448 465.741C375.813 467.28 372.872 475.696 371.173 479.055C365.67 489.944 361.337 501.361 355.968 512.292C353.176 517.978 349.006 521.718 342.416 521.809C335.033 521.911 331.559 517.18 326.873 512.326C317.53 502.643 304.954 494.32 293.356 487.585C280.829 480.313 265.892 473.265 251.63 470.697C242.131 468.988 220.371 461.613 214.593 473.527C217.546 473.132 228.817 471.408 229.295 476.403C229.654 480.151 215.789 480.792 214.076 486.669C217.701 486.387 230.215 482.893 231.095 488.282C231.563 491.146 226.334 492.589 224.494 493.555C220.849 495.472 218.654 497.463 215.785 500.344C220.212 500.344 224.576 496.584 228.78 496.977C230.514 497.139 232.599 499.731 234.176 500.522C236.414 501.642 238.83 502.2 241.297 502.506C246.67 503.171 249.922 501.655 254.205 505.155C258.052 508.297 262.051 512.445 265.594 515.942C273.156 523.409 279.381 532.885 285.869 541.275C293.878 551.634 302.196 559.857 312.851 567.616C321.524 573.93 330.315 578.019 340.142 582.668C349.782 587.229 361.907 592.518 372.844 592.769C381.568 592.97 392.472 590.171 400.412 586.447C405.03 584.282 406.709 584.284 411.329 583.427C418.501 582.097 426.802 578.246 433.441 575.226C454.288 565.741 467.499 545.068 476.9 524.833C482.25 513.317 485.592 502.064 487.822 489.604C489.036 482.816 490.095 481.223 483.482 478.416C476.803 475.581 469.584 473.829 462.632 471.826C442.24 465.954 418.997 464.659 397.94 465.556ZM447.755 342.726C445.675 343.663 444.569 353.667 443.635 355.895C439.468 365.839 432.078 372.044 421.239 373.079C417.874 373.401 412.387 370.337 409.975 371.785C406.747 373.725 406.163 382.995 402.689 386.036C399.49 388.837 392.826 391.797 388.724 392.874C385.557 393.705 382.416 393.476 379.26 392.744C377.46 392.327 374.026 390.103 372.263 390.942C369.262 392.372 367.848 399.985 364.422 402.567C359.412 406.343 351.457 409.139 345.325 409.069C339.001 408.996 331.377 403.999 325.746 405.195C319.062 406.614 319.941 412.833 317.023 417.693C310.825 428.015 303.783 436.906 292.641 441.834C280.589 447.164 263.313 447.842 250.673 445.13C243.801 443.656 236.905 441.572 231.106 437.633C226.485 434.494 223.017 430.314 218.738 426.768L218.038 426.2L218.074 426.326C218.169 426.656 218.265 426.979 218.363 427.292C220.401 433.79 221.306 445.32 225.355 450.619C228.978 455.362 241.557 455.627 247.614 456.265C263.843 457.976 277.8 461.775 292.117 469.917C305.821 477.71 318.337 487.141 330.201 497.305C332.639 499.392 334.587 502.739 337.535 504.082C342.35 506.275 341.961 503.715 343.234 499.427C345.846 490.633 348.616 481.946 352.597 473.656C354.301 470.103 358.18 465.701 359.012 461.928C359.808 458.308 358.172 454.358 358.728 450.472C360.132 440.653 364.564 432.281 370.12 424.34C373.976 418.829 385.515 409.445 384.041 423.317C382.952 433.56 375.474 442.635 373.634 452.7C379.304 451.643 382.863 451.951 387.968 452.274C394.934 452.714 402.855 449.988 410.035 449.965C423.801 449.921 437.361 450.819 450.892 453.272C457.159 454.409 463.126 455.694 469.168 457.839C473.915 459.523 480.228 464.889 485.285 465.298C488.952 465.595 487.673 466.076 488.671 462.947C489.598 460.045 488.602 454.822 488.416 451.777C487.996 444.886 486.344 438.179 485.488 431.333C485.121 428.395 481.615 416.15 485.314 413.776C490.975 410.144 493.341 424.395 494.062 426.947C497.754 440.032 500.129 452.923 500.019 466.604C499.922 478.435 499.136 489.808 496.923 501.57C495.615 508.518 493.216 515.191 490.523 521.706C489.106 525.138 480.788 538.147 481.944 540.438C482.871 542.274 497.006 539.077 499.18 538.892C506.916 538.229 514.673 538.69 522.419 538.23C533.868 537.549 545.401 537.689 556.364 535.671C562.901 534.466 569.838 535.618 576.369 535.66C583.571 535.707 590.533 535.041 597.783 535.729C603.288 536.249 611.55 539.156 616.861 537.948C622.299 536.712 620.693 533.072 620.731 527.536C620.82 514.16 619.629 498.767 616.642 485.761C615.066 478.903 612.947 472.266 611.817 465.294C610.686 458.321 610.745 450.784 608.641 444.031C604.91 432.049 594.653 421.649 586.156 412.795C577.413 403.683 567.688 397.068 556.961 390.533C547.844 384.98 538.21 379.765 528.332 375.421C516.477 370.207 503.015 366.992 492.029 360.127C482.886 354.414 469.661 348.781 459.114 346.136C457.444 345.718 448.935 342.196 447.755 342.726ZM773.408 231.992C765.802 233.061 751.582 229.346 751.589 239.834C751.592 245.587 753.5 251.619 754.042 257.375C754.681 264.167 754.239 271.002 755.273 277.768C756.948 288.72 759.405 298.834 758.583 310.086C757.686 322.318 755.138 334.071 755.375 346.477C755.6 358.284 754.964 369.668 760.574 380.503C762.941 385.077 764.862 390.451 767.466 394.731C770.519 399.747 773.162 401.216 778.618 403.236C782.035 404.501 790.448 406.148 792.661 409.558C795.857 414.479 791.59 416.47 787.387 416.303C774.407 415.786 761.079 409.994 748.91 405.764C743.184 403.772 737.673 401.264 732.046 399.091C727.549 397.354 723.883 396.754 719.794 393.791C709.828 386.57 702.136 376.591 692.309 369.185C673.716 355.173 651.425 346.808 628.074 344.326C622.065 343.687 617.414 343.974 611.396 344.484C608.067 344.766 604.77 344.857 601.474 345.468C599.57 345.822 592.41 349.224 590.923 348.517C581.263 343.925 608.617 329.945 611.693 329.18C607.807 326.442 599.735 326.914 595.072 326.305C589.12 325.526 583.334 324.767 577.323 325.095C568.92 325.555 559.982 325.307 551.735 327.121C541.402 329.392 531.617 332.88 522.279 337.775C519.162 339.408 514.776 341.395 514.806 345.948C514.834 350.227 516.537 349.526 520.703 350.474C531.928 353.029 542.315 360.468 552.314 366.136C562.947 372.161 573.537 378.93 583.403 386.15C602.317 399.991 613.112 419.904 621.512 441.551C625.857 452.746 629.007 465.82 630.314 477.752C631.77 491.027 630.556 504.379 631.595 517.64C631.839 520.774 632.258 533.28 634.623 535.228C636.416 536.706 645.319 534.064 647.829 533.891C658.319 533.169 668.873 533.24 679.164 532.647C700.914 531.394 723.211 533.143 745.159 531.853C756.2 531.203 766.888 529.65 777.715 527.422C787.779 525.352 800.319 525.105 809.498 520.322C827.169 511.115 837.942 488.918 838.717 470.124C839.558 449.75 838.166 427.58 833.888 407.284C831.645 396.641 829.7 386.513 827.06 375.996C824.105 364.222 820.788 352.499 817.545 340.871C811.958 320.854 803.263 302.206 799.101 281.69C796.811 270.405 793.566 258.606 790.18 247.592C788.931 243.532 786.47 235.82 783.565 232.736C780.513 229.497 777.95 231.355 773.408 231.992ZM153.371 475.779C148.79 478.71 145.487 485.301 145.695 490.735C145.695 497.907 151.649 494.851 157.259 495.112C160.674 495.27 173.305 498.774 175.526 495.391C178.177 491.352 170.203 493.155 169.193 490.988C167.153 486.606 176.51 484.756 175.366 480.958C174.223 477.161 164.715 485.924 162.677 481.515C160.791 477.433 170.395 473.903 168.921 471.092C167.67 468.709 154.99 474.741 153.371 475.779ZM173.265 438.409C173.241 441.466 172.188 445.532 168.387 444.908C163.641 444.129 162.203 435.018 161.769 431.57C164.809 420.218 173.316 431.446 173.265 438.409ZM311.068 340.844C305.58 341.704 304.962 344.161 302.396 347.932C301.225 346.999 300.499 345.761 300.22 344.219C287.246 350.063 273.748 354.63 259.676 356.79C243.997 359.199 227.642 355.554 211.711 354.069C209.65 353.877 203.321 351.328 201.641 352.34C200.251 353.178 200.274 360.209 200.161 361.568C199.386 370.831 201.153 379.015 202.513 388.081C202.876 390.495 202.52 395.723 204.422 397.782C205.76 399.23 208.142 398.704 209.836 400.89C214.404 406.79 215.829 418.216 217.932 425.824L217.984 426.009L217.995 425.873C218.645 418.117 224.709 422.101 229.22 424.135C236.003 427.193 243.111 428.828 250.448 429.856C256.348 430.684 263.042 432.661 269.094 432.345C275.451 432.014 283.27 429.497 289.459 427.686C295.322 425.971 298.558 422.259 302.605 417.48C306.471 412.915 310.677 409.789 314.85 405.715C325.36 395.453 322.483 374.191 313.353 364.148C320.74 360.357 333.55 352.022 322.315 343.569C319.412 341.383 314.569 340.296 311.068 340.844ZM217.984 426.009L217.974 426.149L218.038 426.2L217.984 426.009ZM253.975 408.393C256.887 408.614 258.98 410.804 258.214 413.823C257.245 417.637 250.615 420.026 247.3 420.237C238.515 421.288 246.825 407.853 253.975 408.393ZM226.23 393.719C226.545 395.933 226.233 397.313 228.152 398.032C229.619 398.582 232.393 397.451 234.197 398.215C235.997 398.98 236.055 399.442 237.161 401.238C235.908 405.156 230.163 409.588 225.553 407.231C219.82 404.301 219.286 392.744 220.858 387.812C223.521 379.453 225.76 390.417 226.23 393.719ZM735.979 349.581C733.587 350.45 731.478 352.914 729.339 354.255C723.649 357.821 717.426 359.715 711.976 363.62C715.868 367.819 717.906 373.513 721.707 377.554C724.085 380.083 726.977 380.364 729.838 381.736C738.196 385.747 748.034 391.389 757.267 393.306C751.86 386.981 748.431 381.258 745.22 373.572C744.073 370.824 742.633 367.917 741.773 365.063C740.541 360.975 741.204 356.649 740.16 352.614C739.034 348.26 740.587 347.908 735.979 349.581ZM210.46 373.528C212.891 376.398 214.759 382.866 214.965 386.531C212.401 398.814 203.816 381.867 204.077 376.366C204.32 371.292 206.983 369.427 210.46 373.528ZM233.72 366.807C237.886 370.36 239.247 376.295 239.679 381.199C240.149 386.514 238.935 388.773 233.641 385.357C229.006 382.366 226.687 374.401 226.447 369.734C226.447 364.415 229.683 363.363 233.72 366.807ZM317.533 351.593C318.573 357.14 306.29 362.841 308.296 354.155C307.894 348.612 316.428 345.718 317.533 351.593ZM897.479 251.217C888.202 262.544 876.967 269.736 865.358 278.295C855.074 285.877 845.282 294.069 834.148 300.363C830.879 302.212 825.524 303.288 824.933 306.722C824.378 309.952 830.371 318.624 831.756 322.126C836.433 333.934 839.885 346.051 843.54 358.235C854.437 341.251 865.427 323.984 878.783 308.627C890.57 295.074 902.661 280.893 912.965 266.289C906.728 262.49 901.561 257.251 897.479 251.217ZM965.485 225.096C955.152 228.325 943.249 230.143 932.481 229.043C927.599 228.543 922.791 228.128 917.862 227.823C914.173 227.596 907.932 225.796 904.758 228.64C901.755 231.328 902.118 236.679 903.647 240.021C904.635 242.181 906.007 242.53 906.903 244.319C907.192 244.895 906.336 245.891 907.079 247.247C909.121 250.976 916.069 257.209 919.813 259.108C924.615 261.545 925.333 258.711 929.076 256.255C936.958 251.086 950.199 250.992 959.432 250.062C959.619 252.048 986.378 242.499 989.019 240.746C993.958 237.47 999.746 222.389 994.491 217.92C988.148 212.525 971.621 223.176 965.485 225.096ZM785.533 153.212C782.281 158.395 777.955 163.96 773.151 167.838C767.725 172.217 760.682 173.917 754.479 176.914C748.86 179.627 743.866 182.346 740.36 187.581C737.932 191.202 733.486 196.284 735.513 200.951C737.588 205.725 745.759 209.073 749.309 213.223C754.197 218.935 754.204 217.814 761.526 216.235C765.183 215.446 768.657 215.2 772.395 215.331C773.907 215.383 779.011 216.865 780.352 215.87C782.068 214.596 780.381 209.306 780.598 207.247C780.929 204.116 782.042 200.885 783.097 197.933C787.28 186.213 795.233 178.484 802.966 169.597C811.262 160.062 822.629 153.369 830.804 143.789C835.318 138.5 833.263 134.761 827.069 132.285C823.921 131.027 820.233 131.033 817.003 130.03C813.663 128.994 810.688 126.952 807.109 126.912C791.902 126.302 791.417 143.832 785.533 153.212Z" fill="black"/>
</svg>
