<svg width="938" height="768" viewBox="0 0 938 768" fill="none" xmlns="http://www.w3.org/2000/svg">
<path fill-rule="evenodd" clip-rule="evenodd" d="M372.117 194.471C371.411 206.003 370.705 217.533 370 229.065C374.539 227.758 403.411 219.263 401.628 227.876C400.348 234.054 392.231 240.737 388.095 245.038C384.289 248.998 380.369 252.855 376.35 256.599C383.737 253.771 391.186 251.093 398.688 248.588C404.365 246.692 410.084 244.842 415.901 243.421C418.06 242.893 423.89 240.74 425.93 242.208C431.29 246.066 402.207 274.479 398.223 278.484C403.856 275.864 409.625 273.484 415.491 271.442C419.727 269.968 432.813 264.333 436.561 269.145C440.573 274.293 430.634 286.114 427.877 289.862C423.928 295.233 419.648 300.385 415.157 305.312C433.822 322.076 455.756 336.998 479.099 346.272C496.214 353.073 513.027 354.804 531.087 351.072C549.641 347.238 567.435 339.885 584.35 331.478C594.284 326.54 604.087 321.197 613.426 315.195C609.576 310.512 605.838 305.731 602.206 300.878C597.023 293.947 590.652 286.375 587.697 278.125C584.804 270.051 595.656 271.627 600.861 272.066C608.399 272.701 615.917 274.048 623.304 275.66C618.081 272.027 612.952 268.249 607.927 264.348C601.377 259.264 592.64 253.516 588.353 246.202C584.583 239.771 592.857 241.395 596.683 242.237C605.805 244.247 614.681 247.671 623.381 251.011C629.752 253.457 636.084 256.019 642.355 258.717C638.463 255.333 634.701 251.787 631.086 248.111C626.225 243.17 619.672 237.135 617.493 230.331C613.056 216.473 642.904 226.926 648 229.065C647.058 214.71 646.118 200.355 645.177 186C605.655 196.516 566.133 207.034 526.61 217.551C522.339 218.688 516.994 221.163 512.539 221.295C508.505 221.416 503.632 219.599 499.698 218.848L428.178 205.183C409.491 201.612 390.804 198.042 372.117 194.471Z" fill="#5433FF"/>
<path fill-rule="evenodd" clip-rule="evenodd" d="M796.896 688.215C792.629 690.657 787.631 692.542 782.891 693.806C780.107 694.55 775.507 696.845 773.061 694.742C771.887 693.732 771.618 691.438 770.925 690.109C769.829 688.004 768.27 686.187 766.81 684.327C763.271 679.82 759.589 675.472 755.736 671.23C753.91 669.221 750.575 664.53 747.358 664.838C743.348 665.223 743.444 670.773 744.449 673.609C747.649 682.637 757.334 690.507 763.661 697.309C762.052 699.784 753.218 699.489 750.765 698.91C747.019 698.026 746.64 695.359 744.931 692.308C740.933 685.179 732.822 681.19 726.155 676.999C723.724 675.469 718.558 671.234 715.39 672.3C712.388 673.31 712.518 677.145 713.474 679.649C714.918 683.434 719.027 686.059 722.066 688.451C726.118 691.64 729.823 695.11 733.199 699.013C728.332 699.41 723.483 700.096 718.629 700.496C712.758 700.98 707.865 697.759 702.46 695.933C697.438 694.236 692.434 692.801 687.496 690.846C681.952 688.65 676.144 687.886 670.551 685.959C648.602 678.4 627.096 668.892 605.945 659.309C595.867 654.741 585.996 650.172 575.494 646.598C567.841 643.993 555.815 638.801 553.985 629.685C553.019 624.868 556.538 619.688 557.057 614.876C557.665 609.214 557.186 602.985 555.462 597.553C553.941 592.768 551.422 588.336 549.437 583.742C547.124 578.387 549.195 578.474 553.688 577.865C559.066 577.136 565.342 574.108 570.397 572.137C576.22 569.864 581.993 566.69 587.326 563.425C592.15 560.473 596.347 556.667 600.187 552.534C604.094 548.33 606.623 543.348 610.4 539.04C624.339 556.183 637.588 573.587 652.4 589.989C659.39 597.731 666.992 604.132 675.607 610.019C679.204 612.478 682.773 615.285 686.692 617.229C691.593 619.661 697.072 621.17 702.109 623.39C721.423 631.9 739.855 641.203 757.874 652.184C766.591 657.495 773.907 663.585 781.582 670.248C783.972 672.323 803.542 684.412 796.896 688.215ZM570.329 547.775C567.208 549.189 564.233 551.025 560.903 551.933C561.847 546.189 567.207 537.525 574.079 538.478C576.705 538.842 578.685 540.881 577.532 543.692C576.483 546.246 572.553 546.769 570.329 547.775ZM353.076 391.982C349.538 393.936 346.241 395.073 344.166 390.88C345.703 390.572 352.684 389.641 353.076 391.982ZM347.185 380.127C344.45 379.298 346.637 378.426 347.578 377.425C348.311 376.647 350.738 373.915 351.587 373.464C355.338 371.477 358.237 378.87 360.031 381.27C355.785 380.892 351.318 381.381 347.185 380.127ZM376.422 405.725C371.239 406.604 371.814 400.119 371.969 396.834C373.062 398.168 380.463 405.041 376.422 405.725ZM393.598 394.525C387.279 395.591 383.104 384.674 384.237 379.899C385.233 375.692 390.13 373.343 394.029 372.723C397.807 372.121 403.068 372.942 404.19 377.3C405.182 381.151 397.809 393.814 393.598 394.525ZM543.171 559.328C538.63 560.723 534.181 560.899 529.617 562.269C524.439 563.823 519.646 563.685 514.457 564.743C512.346 565.172 506.652 568.248 504.593 567.561C502.553 566.881 499.601 560.551 498.429 558.905C507.609 555.089 515.441 550.162 521.492 542.121C526.303 535.727 531.463 526.148 528.436 517.895C525.022 508.591 513.254 506.571 505.408 510.458C501.696 512.295 498.017 514.58 494.956 517.381C491.457 520.583 490.081 524.079 487.814 528.028C485.522 532.022 483.913 529.8 481.622 526.408C479.665 523.509 479.92 520.582 477.474 517.721C476.226 516.262 474.293 514.853 473.642 512.968C473.229 511.773 474.099 509.654 473.316 508.713C472.215 507.391 470.875 508.944 469.952 507.764C469.282 506.907 469.501 504.952 468.809 503.879C468.208 503.269 467.541 502.749 466.802 502.316C465.906 501.874 465.743 501.32 466.311 500.655C465.599 499.336 466.285 498.891 464.76 497.287C462.382 494.786 460.214 492.39 458.521 489.438C457.748 488.087 457.824 486.084 456.863 484.915C455.544 483.309 453.347 483.55 452.213 481.563C451.203 479.792 451.879 476.696 450.213 475.088C449.335 474.837 448.456 474.591 447.577 474.348C446.915 473.706 446.53 472.926 446.42 472.009C445.495 470.584 445.311 468.911 444.143 467.406C441.907 464.528 438.9 461.869 436.925 458.835C434.849 455.645 435.95 455.108 439.556 453.967C442.808 452.936 445.778 451.98 448.793 450.226C462.73 442.115 475.943 420.6 453.821 414.027C445.612 411.588 438.868 405.028 429.765 407.606C425.819 408.725 422.076 411.104 419.132 413.928C417.098 415.881 415.214 421.102 412.717 422.102C408.227 423.9 410.125 419.408 408.851 417.344C408.242 416.359 405.793 415.224 404.885 414.327C403.82 413.276 402.79 411.949 402.05 410.649C400.677 408.236 399.837 406.891 397.857 404.926C397.111 404.184 393.384 400.352 396.745 400.853C395.384 396.704 397.37 396.08 400.116 393.049C403.34 389.49 406.669 384.544 406.688 379.557C406.725 369.982 395.379 365.692 388.253 371.375C386.803 372.532 378.227 383.696 379.982 376.576C380.928 372.737 389.688 362.712 393.749 365.306C389.198 358.673 378.743 374.779 376.303 378.074C374.225 374.249 374.078 371.256 370.64 368.294C367.841 372.783 369.319 367.877 368.702 366.88C367.369 364.726 368.101 367.189 367.378 366.424C366.478 365.471 365.061 364.72 364.103 363.458C362.462 365.684 363.118 363.289 362.615 362.458C361.44 360.513 361.894 359.387 359.88 357.696C358.414 356.467 355.526 354.558 353.553 354.383C351.278 354.181 350.648 355.053 348.33 354.408C345.381 353.588 341.67 352.328 343.097 357.261C344.134 360.845 348.348 362.882 349.271 366.544C350.2 370.23 346.555 373.945 344.787 376.967C342.516 380.845 340.659 380.528 336.545 381.402C333.916 381.961 330.407 383.156 332.662 386.345C334.272 388.624 338.046 388.144 340.171 389.494C343.151 391.386 343.11 396.052 346.915 396.864C351.105 397.758 353.505 393.093 357.038 391.966C359.55 391.165 367.332 391.254 369.309 393.141C372.003 395.71 369.675 400.621 370.353 403.813C371.362 408.548 374.565 408.837 378.616 408.989C383.603 409.175 385.356 413.963 388.038 417.762C394.32 426.658 399.78 436.142 406.215 444.92C409.064 448.807 413.231 452.265 415.563 456.483C418.443 461.692 414.444 464.697 410.994 468.436C406.485 473.322 403.119 478.882 399.208 484.223C395.733 488.969 391.414 487.787 385.861 487.787C387.098 485.236 388.587 483.645 391.632 483.954C388.448 480.067 385.902 484.514 383.837 486.977C380.849 490.539 376.954 491.398 373.116 493.741C371.758 494.569 364.363 499.941 366.61 501.775C366.865 501.983 379.107 493.93 380.501 493.191C380.501 496.164 379.851 499.253 380.268 502.209C380.573 504.377 382.097 506.638 381.772 508.893C381.157 513.147 375.658 516.499 373.298 519.814C371.521 522.309 371.95 524.277 371.046 526.955C370.221 529.398 370.654 528.659 368.599 529.414C364.415 530.951 357.372 530.122 353.583 527.936C351.231 526.58 349.428 524.436 347.517 522.547C346.078 521.122 342.458 518.689 342.058 516.696C341.372 513.264 348.185 506.888 349.533 503.348C353.341 493.358 346.811 485.593 336.649 485.026C339.781 482.61 343.663 484.43 346.964 485.352C341.321 477.532 331.682 483.967 326.895 489.281C323.624 481.013 322.047 472.291 320.049 463.668C318.688 457.797 313.507 447.318 315.818 441.273C316.935 438.351 320.089 436.721 322.27 434.695C324.749 432.392 326.872 429.639 328.684 426.788C332.953 420.074 335.419 411.598 329.54 404.981C331.326 404.687 333.113 404.394 334.899 404.1C331.994 401.37 327.41 402.7 323.64 401.891C321.248 401.377 314.364 401.71 312.767 400.356C310.846 398.728 312.078 391.238 312.146 389.021C312.304 383.841 312.737 378.86 313.309 373.71C313.851 368.846 313.742 363.59 314.747 358.811C315.563 354.933 318.171 353.751 321.18 351.466C328.372 346.001 334.233 339.354 331.777 329.936C332.647 329.798 333.517 329.66 334.387 329.522C331.573 327.487 327.932 328.227 324.802 327.151C327.676 319.061 334.033 304.839 344.355 304.073C344.71 307.69 344.467 311.991 346.907 314.985C349.685 318.393 354.561 318.737 358.324 316.934C361.739 315.296 364.944 311.826 366.518 308.398C367.583 306.077 367.391 302.153 369.26 300.314C371.766 297.847 389.047 299.335 388.518 303.499C388.206 305.947 383.585 310.062 382.294 312.232C379.93 316.203 378.038 320.498 377.17 325.059C375.853 331.985 376.616 341.128 383.649 344.769C391.648 348.911 401.396 343.645 407.956 339.095C411.558 336.597 415.047 333.84 418.337 330.944C420.09 329.404 421.851 327.816 423.396 326.064C424.537 324.771 425.448 322.685 426.852 321.716C430.169 319.428 433.42 323.31 436.227 325.271C440.799 328.466 445.348 331.499 450.256 334.158C460.214 339.552 469.319 346.698 478.124 353.793C486.98 360.93 496.112 368.272 503.286 377.164C498.941 379.836 499.716 380.531 497.783 385.299C496.411 388.682 494.521 391.562 494.303 395.322C493.926 401.81 498.091 407.339 504.413 408.776C507.949 409.579 511.317 408.936 514.592 407.49C517.138 406.367 519.675 403.601 522.335 402.914C527.279 401.639 531.235 410.979 534.006 414.269C546.314 428.88 559.324 442.914 570.914 458.122C572.197 459.806 576.01 463.096 576.32 465.327C576.765 468.529 571.727 471.581 569.638 473.417C568.54 474.38 556.904 485.326 560.811 487.066C561.925 487.562 565.185 480.846 566 480.271C569.052 478.121 566.744 482.336 566.562 484.467C566.107 489.763 569.745 492.649 574.858 491.977C580.315 491.261 585.172 486.954 588.549 482.885C592.78 487.786 599.395 495.195 600.618 501.742C601.4 505.925 597.781 516.161 604.537 517.014C605.568 517.144 609.3 514.375 609.996 515.947C610.576 517.259 606.542 519.502 605.96 519.936C603.474 521.792 601.972 523.78 599.965 526.028C597.609 528.667 594.389 530.89 591.738 533.418C588.945 536.082 583.42 543.316 579.735 539.821C577.883 538.064 578.37 535.768 575.403 534.737C572.701 533.798 569.278 534.988 566.768 536.03C563.941 537.201 554.632 541.477 553.599 544.998C552.174 549.853 559.869 544.016 561.236 543.163C559.676 547.123 558.814 552.857 554.841 555.167C551.54 557.086 546.792 558.215 543.171 559.328ZM490.402 529.374C493.044 520.883 508.624 505.743 518.471 510.478C506.995 512.883 497.888 520.737 490.402 529.374ZM496.228 553.691C492.388 551.551 492.595 545.335 491.255 541.698C490.485 539.612 488.946 538.087 489.399 535.772C489.929 533.057 493.391 530.04 495.234 528.082C501.034 521.919 511.242 513.498 520.578 514.911C532.461 516.709 524.405 532.664 520.359 538.157C516.91 542.841 503.621 557.812 496.228 553.691ZM468.506 543.306C455.655 542.448 442.848 541.299 430.172 538.94C425.678 538.104 421.913 538.227 424.484 533.061C425.333 531.355 430.452 520.667 431.608 520.973C432.293 521.155 432.137 528.501 432.338 529.343C433.246 533.125 435.794 536.649 440.09 536.409C447.119 536.017 451.649 526.929 455.35 522.051C458.315 526.037 460.461 530.466 463.441 534.385C464.866 536.259 469.825 540.618 468.506 543.306ZM393.164 492.861C391.008 497.808 386.672 502.514 383.656 506.996C381.951 503.387 380.752 495.101 384.796 492.432C386.327 491.423 394.527 489.732 393.164 492.861ZM437.735 507.593C438.328 505.689 438.985 503.799 439.718 501.944C440.975 505.902 441.618 506.019 437.735 507.593ZM448.735 511.646C450.295 514.29 452.895 516.89 452.487 520.211C452.178 522.727 449.904 525.305 448.28 527.058C445.592 529.958 439.638 535.526 435.744 531.674C432.491 528.457 433.624 519.611 435.137 515.991C437.297 510.819 445.017 505.348 448.735 511.646ZM441.103 506.228C441.997 505.873 440.119 500.102 441.862 499.527C443.382 502.994 444.815 503.932 441.103 506.228ZM416.547 428.565C415.968 426.436 414.64 426.525 415.118 423.893C415.432 422.167 416.802 420.324 417.841 418.957C419.912 416.231 422.644 413.984 425.598 412.283C431.834 408.693 440.399 407.202 445.983 412.822C440.763 413.646 424.76 418.799 424.658 425.939C430.463 424.821 435.028 418.99 440.85 417.153C445.629 415.644 450.811 415.75 455.565 417.343C468.578 421.701 463.167 432.949 455.822 440.254C451.462 444.592 446.234 447.83 440.519 450.065C437.874 451.099 436.251 451.213 433.651 450.693C433.164 450.596 432.595 449.693 432.011 449.499C430.56 449.018 430.981 450.647 429.786 449.915C428.743 449.278 426.519 445.163 425.81 443.984C424.681 442.109 424.155 440.286 422.769 438.574C421.382 436.861 420.707 434.566 419.424 433.016C418.808 432.27 417.119 432.3 416.666 431.573C415.985 430.48 416.851 429.683 416.547 428.565ZM396.562 512.447C399.52 507.308 404.58 502.945 408.495 498.454C408.735 505.836 403.442 510.891 396.562 512.447ZM400.559 514.82C406.667 512.671 410.032 507.529 410.655 501.295C411.446 493.398 416.404 489.253 419.389 482.159C420.534 479.44 421.868 470.493 426.305 473.054C427.827 473.932 428.73 477.236 429.523 478.728C431.442 482.338 433.624 485.839 435.659 489.383C437.316 492.27 439.8 495.172 439.069 498.647C438.431 501.676 436.38 504.904 435.178 507.761C432.341 514.508 428.614 520.723 425.5 527.322C424.244 529.984 422.757 536.287 418.921 536.255C415.885 536.229 416.224 532.91 414.225 531.772C411.702 530.336 408.833 533.069 406.76 534.202C409.147 530.171 413.32 527.889 418.01 528.648C412.394 523.055 408.599 530.602 403.779 532.282C399.212 533.875 391.11 526.364 387.265 524.235C388.736 521.744 390.065 518.697 392.595 517.059C394.994 515.503 397.939 515.742 400.559 514.82ZM350.901 565.933C351.57 562.712 353.46 560.809 354.658 557.884C356.047 561.43 352.794 563.522 350.901 565.933ZM447.943 585.695C447.615 596.54 446.729 607.356 446.409 618.204C446.262 623.207 445.376 627.979 444.788 632.924C444.291 637.106 444.544 641.213 441.912 644.786C437.762 650.418 429.693 652.037 423.429 654.124C418.829 655.656 414.176 657.046 409.633 658.748C405.545 660.28 402.251 662.601 398.364 664.422C394.887 666.051 391.134 667.016 387.673 668.752C384.093 670.548 381.264 672.735 377.587 674.334C373.185 676.247 369.558 679.651 365.643 682.353C362.197 684.732 358.551 686.569 355.586 689.56C352.806 692.367 349.287 693.597 346.137 696.091C342.806 698.727 339.319 700.441 335.639 702.508C328.1 706.745 317.929 713.98 308.856 709.864C311.451 706.55 316.762 703.365 317.166 698.799C317.691 692.85 312.514 695.04 309.516 696.94C304.975 699.816 302.463 703.289 299.006 707.124C294.965 711.606 289.86 708.59 284.915 707.33C288.296 704.286 291.65 701.214 295.025 698.165C297.874 695.592 302.234 692.809 303.969 689.25C305.209 686.705 305.148 683.218 302.156 681.897C298.808 680.42 295.022 683.535 292.542 685.39C285.96 690.315 281.625 696.56 277.303 703.414C275.004 707.058 273.945 706.779 269.715 706.05C265.233 705.278 260.751 704.455 256.232 703.914C262.218 697.766 268.908 691.105 273.636 683.912C275.168 681.581 277.166 675.438 272.499 674.873C270.576 674.64 266.747 678.573 265.264 679.633C258.781 684.266 252.548 690.111 248.252 696.876C246.833 699.109 246.388 701.593 243.641 701.778C240.05 702.021 233.378 698.594 229.914 697.535C236.534 689.189 243.108 680.783 250.843 673.423C257.95 666.66 265.039 661.747 273.351 656.56C282.259 650.999 290.557 644.598 298.735 638.03C306.564 631.741 314.742 625.81 321.948 618.79C336.343 604.765 349.164 588.637 359.781 571.582C362.265 567.592 364.604 563.497 366.625 559.251C368.524 555.263 369.399 550.494 371.962 546.868C372.847 545.614 374.095 544.683 374.884 543.376C375.628 542.144 375.376 540.656 376.511 539.566C379.136 537.046 383.916 538.565 386.369 540.332C390.315 543.172 393.507 546.62 397.844 548.998C402.206 551.389 406.924 553.128 411.754 554.303C423.042 557.048 434.233 559.3 445.733 560.968C444.55 565.356 447.456 566.047 448.419 569.996C449.588 574.788 448.09 580.815 447.943 585.695ZM339.249 512.512C336.69 508.71 334.406 504.734 331.89 500.906C330.358 498.575 328.459 496.072 329.769 493.221C331.974 488.415 339.755 487.559 343.977 489.655C353.576 494.418 344.659 508.038 339.249 512.512ZM313.842 425.544C312.958 418.112 315.8 412.839 322.524 408.942C327.316 406.164 331.175 409.96 330.52 415.023C329.525 422.737 321.282 431.317 314.991 435.342C314.58 432.08 314.231 428.809 313.842 425.544ZM312.817 404.279C314.8 402.704 320.112 404.713 322.41 404.85C319.25 407.612 316.089 410.373 312.928 413.134C312.721 411.239 310.987 405.732 312.817 404.279ZM323.481 332.501C339.473 330.422 321.064 347.584 316.429 350.274C317.183 346.622 319.036 333.08 323.481 332.501ZM366.055 302.454C363.908 311.25 347.214 320.846 347.039 306.438C346.975 301.069 349.99 301.504 354.392 300.988C356.903 300.695 367.283 297.426 366.055 302.454ZM308.392 316.076C306.518 320.995 305.015 326.041 303.178 330.966C302.364 333.147 301.407 334.645 299.891 336.373C298.622 337.818 297.112 338.183 297.162 340.466C298.752 340.159 299.996 339.211 301.28 338.298C300.969 342.825 299.369 347.697 298.594 352.209C297.666 357.62 296.893 363.033 296.606 368.52C295.984 380.452 295.979 392.34 296.241 404.279C296.375 410.362 296.435 416.449 296.763 422.525C296.927 425.548 297.112 428.584 297.486 431.588C297.638 432.801 298.518 435.384 297.974 436.52C295.838 440.983 286.376 428.725 282.267 430.524C282.858 427.128 281.495 427.871 279.218 426.201C278.115 425.392 277.397 424.015 276.247 423.293C275.899 422.918 275.516 422.585 275.098 422.292C274.623 421.643 274.121 421.713 273.594 422.498C268.964 419.731 267.768 413.833 265.283 409.866C264.005 407.826 262.77 407.508 262.552 404.687C262.363 402.229 262.733 399.725 262.633 397.257C262.52 394.473 262.357 391.403 261.576 388.707C260.67 385.577 259.423 385.833 256.994 384.165C257.742 383.837 258.236 383.288 258.475 382.516C257.699 382.654 255.342 383.615 254.756 382.924C253.604 381.567 256.322 381.386 257.036 380.845C253.989 379.491 254.645 378.38 255.745 375.9C256.056 375.198 256.353 374.15 256.618 373.559C257.196 372.266 257.529 373.085 257.72 371.479C257.901 369.948 256.544 366.938 256.144 365.307C255.474 362.571 255.103 360.207 255.705 357.356C256.193 355.048 257.506 352.958 257.597 350.585C257.623 349.918 256.608 349.697 256.594 349.054C256.574 348.113 257.452 347.7 257.68 346.831C258.263 344.607 258 342.255 258.997 340.145C259.894 338.249 261.706 335.797 262.988 334.142C263.877 332.996 266.058 331.704 266.297 330.191C266.455 329.188 264.894 329.304 264.963 328.548C265.058 327.525 265.916 327.194 266.151 326.434C266.8 324.349 266.963 322.344 268.64 320.746C270.753 318.734 271.67 319.577 271.758 316.258C271.8 314.639 270.505 314.39 271.199 312.523C271.576 311.51 272.688 310.912 273.399 310.193C275.511 308.063 276.935 306.171 278.439 303.538C279.769 301.213 281.89 299.859 283.253 297.851C285.027 295.233 282.374 293.935 285.975 293.196C285.463 291.571 284.919 290.257 286.266 288.881C287.116 288.013 289.271 288.544 290.023 287.541C290.885 286.388 289.611 283.657 290.91 282.909C291.966 282.302 293.547 284.175 295.207 283.248C296.471 282.541 298.381 278.639 297.974 277.205C301.244 279.044 300.429 277.777 301.994 275.417C302.345 274.888 303.408 274.771 303.71 274.237C304.314 273.169 304.176 272.081 305.047 271.213C306.497 269.769 308.87 270.14 310.466 269.108C311.785 268.256 311.715 267.337 312.767 266.533C313.666 265.846 315.143 265.714 316.017 265.002C317.729 263.607 317.746 262.135 319.888 260.934C322.425 259.512 324.672 258.302 326.979 256.417C328.484 255.189 329.912 253.011 331.672 252.2C334.106 251.079 336.002 251 338.383 249.4C340.104 248.244 341.731 246.336 343.42 245.361C344.695 244.627 345.589 244.785 347.195 244.33C350.086 243.51 350.79 240.786 353.148 239.677C354.767 238.916 357.124 239.613 358.902 239.213C364.434 237.971 369.899 235.292 375.451 233.808C382.227 231.998 389.052 230.412 395.88 228.811C389.605 237.316 381.613 244.99 373.507 251.745C370.846 253.963 356.266 264.071 364.125 268.388C367.28 270.12 374.133 264.524 376.68 263.156C381.809 260.401 387.121 258.196 392.493 255.968C401.179 252.365 412.491 245.957 422.144 246.473C416.268 253.682 408.933 259.469 402.212 265.838C396.036 271.69 386.73 277.18 389.642 286.759C380.967 284.552 373.175 281.943 364.155 282.521C360.115 282.78 356.072 282.294 352.05 282.86C347.677 283.478 343.559 284.942 339.356 286.226C336.031 287.241 332.357 287.321 329.298 289.01C327.82 289.827 325.992 290.993 324.664 292.006C322.893 293.357 322.491 294.252 321.1 296.032C316.14 302.384 311.34 308.338 308.392 316.076ZM281.259 436.295C280.988 435.195 280.742 434.193 280.431 432.937C283.192 434.637 283.192 434.637 281.259 436.295ZM260.392 401.282C260.052 401.752 258.622 401.903 258.207 401.497C257.69 400.992 259.049 399.026 259.267 398.608C259.806 399.021 261.046 400.376 260.392 401.282ZM254.481 388.539C254.846 387.196 255.213 385.855 255.578 384.512C256.027 385.756 258.051 387.132 258.096 388.318C258.124 389.103 254.881 388.712 254.481 388.539ZM255.654 390.38C258.822 392.466 259.154 394.927 259.248 398.527C255.457 397.271 256.001 393.601 255.654 390.38ZM310.749 248.321C310.43 249.186 309.072 251.883 308.078 249.997C307.76 249.393 310.088 248.569 310.749 248.321ZM309.84 245.381C310.623 244.675 312.201 245.553 313.087 244.983C313.708 244.583 313.502 244.177 313.794 243.94C313.852 243.893 314.696 242.184 315.042 241.796C315.653 241.115 316.985 240.69 317.727 240.074C319.802 238.355 320.973 236.093 322.279 233.793C323.836 231.047 324.333 230.729 326.845 229.471C328.577 228.605 329.919 227.544 331.328 226.07C332.952 224.373 332.833 223.158 334.166 221.303C334.825 220.388 335.773 220.274 336.54 219.536C337.46 218.653 337.927 217.417 338.778 216.526C339.145 216.14 340.325 216.141 340.547 215.811C340.831 215.393 341.052 213.722 341.318 213.414C341.825 214.1 342.334 214.786 342.841 215.472C344.843 211.951 346.304 209.042 349.652 206.699C353.168 204.238 356.203 200.638 359.837 198.435C360.654 197.94 362.318 197.732 362.942 197.002C363.997 195.767 363.083 194.669 363.853 193.62C364.726 192.432 366.418 193.394 367.528 192.882C368.933 192.233 369.335 190.339 371.143 190.547C365.196 197.584 365.27 208.532 364.955 217.321C364.818 221.108 367.203 223.017 363.682 225.796C360.687 228.16 356.464 227.458 352.923 229.014C348.476 230.968 343.72 232.007 339.184 233.71C334.491 235.471 330.718 238.554 326.202 240.594C322.22 242.392 319.5 244.948 315.857 247.168C314.503 247.993 312.406 249.191 310.791 248.205C309.78 247.587 308.52 246.572 309.84 245.381ZM377.015 186.381C377.273 185.382 382.35 182.754 383.599 181.897C385.473 180.608 388.248 177.462 390.34 178.712C391.065 175.808 393.894 172.577 396.393 171.962C399.166 171.278 403.922 168.901 406.65 166.825C407.447 166.219 407.709 165.333 408.647 164.765C410.279 163.774 411.899 164.315 413.472 162.965C413.712 162.759 415.888 159.166 415.974 159.201C416.085 159.586 416.187 159.976 416.275 160.368C417.926 159.452 419.397 158.724 420.426 157.556C420.659 157.291 419.146 156.602 419.624 156.077C420.209 155.434 421.514 156.153 422.105 155.543C420.267 164.667 421.635 176.411 430.892 181.037C419.884 182.226 409.132 178.917 397.988 180.949C392.654 181.923 387.231 183.52 382.379 185.974C379.406 187.478 375.604 192.863 372.645 190.248C373.819 188.682 375.611 187.709 377.015 186.381ZM430.427 160.132C434.544 155.097 440.788 153.105 447.076 154.908C454.438 157.019 451.333 162.163 450.221 167.875C448.097 164.76 443.495 161.671 439.576 161.577C434.02 161.445 436.12 166.074 439.456 167.733C442.489 169.239 447.691 169.659 449.862 172.4C451.975 175.066 451.165 179.427 451.506 182.572C449.863 182.327 448.22 182.083 446.577 181.839C447.956 174.5 441.887 174.145 436.229 172.075C430.511 169.986 425.743 165.862 430.427 160.132ZM448.866 142.06V148.871C446.578 147.566 444.288 146.261 441.998 144.956C444.288 143.991 446.578 143.025 448.866 142.06ZM467.267 196.482C474.91 198.554 482.501 200.745 489.849 203.603C492.517 204.641 495.44 205.008 498.055 206.18C500.545 207.295 500.919 207.179 500.033 209.361C497.552 215.475 491.675 214.419 486.526 213.484C478.466 212.02 470.573 209.99 462.614 208.08C454.834 206.215 446.89 204.992 439.228 202.653C431.365 200.255 423.703 197.983 415.615 196.399C413.255 195.937 394.583 194.224 394.725 192.273C406.484 190.745 418.591 192.25 430.403 192.409C442.678 192.574 455.36 193.255 467.267 196.482ZM456.891 172.833C457.037 168.629 457.096 164.412 457.618 160.234C461.116 164.552 464.274 165.844 468.684 161.797C472.906 157.922 473.848 155.902 479.201 159.545C483.841 162.704 488.232 162.558 493.16 159.793C496.166 158.106 500.997 151.214 504.157 152.633C505.662 153.309 506.766 156.035 508.286 157.038C510.194 158.294 513.127 159.166 515.35 159.654C520.602 160.804 523.73 157.427 527.026 153.814C531.806 148.576 531.666 151.618 536.098 155.251C541.04 159.302 545.173 157.323 549.649 153.865C552.375 161.854 553.395 170.578 554.166 178.953C554.425 181.781 555.396 185.796 552.856 187.796C551.066 189.206 547.267 189.261 545.11 190.04C537.405 192.826 530.001 196.779 523.557 201.839C521.046 203.81 518.857 206.224 515.426 205.775C512.156 205.347 508.979 202.61 506.349 200.802C503.495 198.842 500.607 196.617 497.272 195.524C495.319 194.884 492.19 195.116 490.481 193.943C487.303 191.761 491.043 186.039 490.251 182.198C489.652 179.282 487.974 173.202 483.958 174.911C477.981 177.454 481.459 187.382 484.746 190.481C478.022 189.287 470.578 187.543 464.093 185.327C459.084 183.616 456.711 177.961 456.891 172.833ZM569.657 193.308C583.46 189.432 596.375 186.819 610.739 186.113C617.098 185.8 623.253 185.998 629.541 186.055C633.16 186.088 635.918 183.169 633.027 179.811C629.025 175.162 616.817 176.932 611.408 176.723C596.91 176.163 583.617 177.811 569.886 182.59C571.338 179.915 574.826 179.568 577.217 178.185C580.149 176.487 582.143 173.69 583.396 170.586C586.656 162.514 583.375 154.907 579.965 147.532C586.663 149.334 593.592 153.28 600.326 154.282C601.739 154.492 602.644 154.357 603.893 154.871C604.66 155.186 604.902 156.276 605.852 156.514C606.311 156.63 607.413 155.592 607.933 155.739C609.984 156.319 608.362 156.473 609.659 157.312C610.688 157.978 610.604 158.836 612.492 158.521C613.329 158.383 614.237 157.088 614.678 157.053C615.24 157.007 615.11 156.323 615.97 156.523C617.534 156.886 617.396 158.901 617.917 159.893C618.473 160.949 617.683 162.353 619.371 162.93C620.632 163.363 620.949 162.03 622.022 162.126C622.673 162.184 624.025 163.123 624.6 163.694C626.453 165.536 628.991 167.569 631.483 168.768C631.238 168.521 632.658 167.928 632.318 167.789C632.09 167.696 633.581 168.056 633.558 168.051C634.997 168.378 635.757 170.587 636.484 171.393C637.822 172.869 639.9 174.428 641.774 175.08C645.015 176.207 644.916 174.859 646.099 178.711C648.403 175.088 649.287 181.155 652.144 181.823C653.624 182.169 653.452 181.535 654.796 182.31C655.72 182.841 656.335 184.467 657.031 185.252C657.33 184.12 657.628 182.987 657.926 181.857C659.984 185.756 664.427 191.939 669.299 190.821C669.299 191.885 668.86 193.157 669.684 194.065C670.259 194.7 671.191 193.979 671.641 194.348C672.034 194.67 672.974 195.952 673.275 196.163C673.868 196.579 674.944 196.883 675.459 197.297C675.913 197.662 676.138 199.405 676.641 200.034C677.587 201.218 679.223 201.453 679.996 202.873C680.173 201.473 680.349 200.072 680.525 198.672C682.059 199.858 682.191 200.779 682.568 202.513C683.105 204.983 682.393 204.404 684.097 205.447C685.771 206.472 686.644 206.357 688.179 208.136C689.683 209.88 689.697 210.955 691.868 209.138C692.272 210.482 692.402 212.22 693.48 213.25C694.294 214.029 697.666 214.062 697.987 215.9C691.653 210.556 695.821 218.673 697.991 215.914C698.449 218.867 700.61 219.821 703.079 221.925C705.381 223.884 705.758 223.742 706.544 227.035C706.526 226.963 707.701 227.691 707.786 227.837C705.543 228.157 709.02 230.663 709.608 231.122C710.037 231.456 710.596 230.657 711.308 231.198C712.123 231.818 712.787 233.226 713.45 234.075C715.248 236.377 716.578 238.355 718.47 240.226C720.511 242.246 721.504 244.8 723.464 247.161C725.639 249.783 726.815 252.798 728.634 255.644C730.362 258.351 732.658 260.524 734.66 263.003C737.851 266.948 738.937 275.635 744.885 275.864C744.537 276.225 745.022 278.917 745.079 279.414C745.36 281.859 745.173 284.212 746.62 286.427C746.951 283.9 748.273 284.874 749.421 286.201C751.331 288.409 749.654 287.853 749.755 290.091C749.877 292.803 750.185 290.705 751.219 293.073C752.028 294.928 752.471 296.132 752.905 298.19C749.545 298.457 748.006 295.711 746.764 293.051C746.245 291.938 746.065 290.109 745.146 289.239C744.168 288.313 742.824 288.24 741.819 287.207C739.89 285.222 739.054 282.127 736.78 280.195C734.211 278.013 733.642 276.982 731.518 274.373C729.169 271.487 725.925 269.46 723.461 266.669C720.993 263.872 721.193 265.399 718.093 264.387C714.796 263.309 709.465 252.943 705.311 256.936C705.475 254.324 701.564 251.867 699.587 250.921C698.732 250.512 697.737 250.882 696.882 250.269C695.954 249.604 695.888 248.322 694.952 247.524C694.953 247.525 693.518 247.872 693.227 247.725C692.635 247.425 692.63 246.363 692.107 246.014C690.66 245.046 688.934 244.032 687.398 243.208C683.664 241.205 680.364 238.739 676.761 236.328C673.674 234.262 669.938 230.531 666.37 229.442C663.254 228.491 661.295 228.976 658.743 227.071C657.353 226.034 657.762 225.685 655.529 225.04C653.402 224.426 652.208 224.742 651.081 222.487C649.11 218.541 650.354 210.839 649.973 206.414C649.568 201.718 649.087 196.905 647.863 192.339C646.415 186.942 644.502 184.121 638.713 185.392C627.243 187.913 615.912 190.312 604.39 192.525C581.43 196.936 558.864 204.133 536.409 210.523C534.699 211.011 525.157 213.195 527.106 208.261C528.004 205.985 534.044 205.137 536.065 204.422C547.164 200.494 558.313 196.492 569.657 193.308ZM565.8 183.265C564.123 183.904 562.447 184.543 560.77 185.183V180.52C562.447 181.435 564.123 182.349 565.8 183.265ZM558.831 158.609C560.288 159.8 563.251 156.934 564.489 156.353C566.606 155.362 569.3 154.511 571.665 154.714C576.025 155.092 579.214 159.385 578.415 163.737C577.063 171.101 566.571 174.583 560.786 177.462C560.601 174.852 559.756 171.715 561.586 169.458C563.175 167.498 566.256 167.64 567.722 165.555C571.411 160.316 561.413 159.841 559.178 164.007C558.296 161.344 557.415 158.682 556.533 156.02C558.661 155.667 557.726 157.707 558.831 158.609ZM569.151 144.195C567.069 145.541 564.987 146.887 562.906 148.233C561.874 143.574 565.391 142.961 569.151 144.195ZM758.839 306.346C756.113 307.647 755.431 304.54 753.471 304.406C755.787 302.982 755.787 302.982 758.839 306.346ZM769.926 374.19C770.266 378.656 770 383.173 770.595 387.621C771.048 391.005 772.419 394.154 772.565 397.576C772.885 405.071 770.354 412.703 765.243 418.197C760.408 423.394 753.491 427.867 746.964 430.052C744.024 431.035 740.954 433.217 738.097 434.023C734.938 434.916 731.936 432.974 729.329 436.457C727.591 421.515 728.861 405.902 728.724 390.866C728.587 375.797 728.749 360.723 726.2 345.817C723.93 332.541 719.454 317.608 711.205 306.747C707.854 302.337 703.729 298.725 699.378 295.343C697.12 293.589 694.862 291.713 692.348 290.328C688.478 288.195 685.182 288.49 680.973 287.883C674.95 287.013 669.351 286.278 663.305 287.974C657.677 289.554 651.479 291.352 646.437 294.096C641.416 296.83 635.584 297.957 630.371 300.405C626.825 302.071 619.459 307.636 615.524 306.634C611.716 305.663 606.078 299.2 603.646 296.304C600.538 292.604 597.967 288.315 595.21 284.334C594.242 282.936 592.269 280.775 592.017 278.981C591.58 275.865 592.828 276.883 595.804 277.232C603.457 278.129 610.654 279.549 617.988 281.958C621.638 283.156 628.775 288.005 632.425 285.099C637.998 280.663 629.53 273.038 626.429 270.477C621.144 266.112 615 262.871 609.367 258.992C603.382 254.871 595.469 250.483 591.617 244.137C602.864 247.457 614.1 251.26 625.018 255.54C630.014 257.498 634.952 259.567 639.643 262.171C642.279 263.633 647.603 267.589 650.777 265.694C657.676 261.576 641.831 249.615 639.545 247.171C635.992 243.373 632.511 239.611 628.607 236.165C625.973 233.84 621.835 232.205 620.61 228.776C624.982 230.359 628.517 233.459 632.611 235.565C634.754 236.669 636.71 237.304 639.077 237.642C641.601 238.003 641.902 238.405 643.89 239.408C645.438 240.191 647.029 241.236 648.768 241.768C650.006 242.148 652.17 242.213 653.253 242.916C653.807 243.705 654.378 244.482 654.969 245.245C655.629 245.439 656.279 245.662 656.92 245.917C657.88 246.773 658.45 247.954 659.384 248.837C666.165 255.249 675.234 259.838 682.836 265.21C690.028 270.292 697.66 274.889 704.568 280.435C712.517 286.819 720.767 293.68 727.528 301.335C731.349 305.661 734.49 310.566 737.7 315.35C740.024 318.814 743.404 321.687 745.412 325.259C749.792 333.046 753.427 341.463 758.142 349.125C762.946 356.931 769.205 364.688 769.926 374.19ZM705.311 419.371C706.621 413.967 714.011 407.657 718.734 405.274C716.354 411.163 710.012 415.178 705.311 419.371ZM717.497 438.223C713.469 446.58 695.757 447.536 698.16 435.168C699.337 429.109 704.335 425.39 708.625 421.425C710.608 419.593 715.465 413.037 718.535 414.093C718.391 418.806 718.114 423.54 718.124 428.254C718.13 431.4 718.923 435.265 717.497 438.223ZM712.378 341.898C714.012 345.568 715.64 348.625 712.608 351.909C711.24 353.391 706.782 356.633 704.765 355.913C698.291 353.604 710.634 343.549 712.378 341.898ZM673.219 309.239C674.778 309.154 676.292 309.386 677.833 309.291C679.368 309.196 679.53 308.923 680.953 309.118C681.103 309.336 681.253 309.554 681.403 309.773C681.597 311.237 682.367 311.396 683.71 310.251C685.578 310.666 686.793 310.944 688.579 311.953C683.758 315.429 677.89 319.471 671.98 320.638C662.638 322.481 665.219 309.68 673.219 309.239ZM530.008 387.411C529.04 389.36 526.254 384.491 525.564 383.584C526.85 383.58 530.988 385.445 530.008 387.411ZM605.068 336.117C612.326 331.882 620.946 328.163 628.741 325.01C630.112 331.614 623.427 340.139 619.309 344.658C615.98 348.313 611.966 352.103 607.452 354.206C602.571 356.48 597.237 355.481 597.474 349.101C597.561 346.769 598.092 343.017 599.041 340.886C600.265 338.138 602.579 337.567 605.068 336.117ZM506.957 215.987C508.037 215.924 519.772 214.407 519.71 215.867C519.525 220.256 508.135 216.81 506.957 215.987ZM423.975 300.725C430.173 293.078 440.179 284.823 440.325 274.135C440.541 258.407 423.087 266.254 414.312 266.908C418.952 262.349 442.269 243.222 428.477 236.429C424.513 234.476 418.878 236.384 414.9 237.407C407.842 239.222 401.28 242.366 394.346 244.553C399.301 239.279 407.861 233.285 407.581 225.298C407.238 215.575 399.257 217.926 392.356 219.352C389.704 219.901 377.857 224.614 375.631 221.414C374.816 220.242 376.135 218.753 376.414 217.709C376.908 215.863 376.755 215.218 376.772 213.332C376.806 209.527 379.334 204.64 377.272 201.101C376.801 201.905 376.397 202.742 376.061 203.611C375.381 201.552 375.838 199.367 375.158 197.308C392.387 201.714 409.914 204.126 427.251 207.887C436.028 209.791 444.288 213.069 453.185 214.545C462.158 216.032 470.975 218.309 479.964 219.728C488.166 221.021 496.024 223.176 504.146 224.828C512.064 226.439 520.184 222.909 527.912 221.121C545.221 217.118 562.524 213.017 579.856 209.133C599.856 204.649 620.661 200.815 639.805 193.337C640.176 203.304 640.973 213.252 642.191 223.151C633.737 219.154 621.19 213.942 612.643 221.094C609.222 223.955 608.168 228.896 609.52 233.097C610.992 237.671 615.499 239.795 618.473 243.238C609.422 240.917 586.071 224.557 581.915 241.094C578.979 252.774 593.299 260.318 600.3 266.892C593.347 265.531 584.036 259.972 579.953 268.906C576.425 276.63 580.675 285.034 585.028 291.404C587.387 294.856 590.04 298.104 592.548 301.448C593.874 303.217 595.169 305.011 596.562 306.728C597.96 308.45 600.596 310.253 601.576 312.106C603.548 315.843 599.568 316.071 596.474 317.421C592.61 319.107 589.292 321.938 585.759 324.194C577.668 329.36 570.596 334.158 561.035 335.809C551.191 337.508 541.712 339.283 531.998 341.654C522.314 344.017 514.409 346.287 504.51 343.233C499.997 341.841 496.321 340.603 491.534 340.865C486.506 341.14 483.566 340.879 479.432 337.765C461.644 324.367 442.335 313.373 423.975 300.725ZM391.905 287.275C398.78 283.825 405.701 280.359 412.803 277.395C418.681 274.94 427.607 272.081 434.042 273.157C432.228 277.817 428.918 281.64 425.367 285.071C422.227 288.106 418.304 292.686 414.505 294.804C411.054 296.726 407.04 293.681 403.637 292.405C399.898 291.004 394.752 290.351 391.905 287.275ZM393.633 304.677C397.059 303.254 404.422 308.031 407.538 309.273C413.662 311.715 419.819 314.265 425.216 318.117C418.626 325.733 411.163 332.696 402.295 337.587C396.461 340.806 386.627 344.497 381.123 338.653C374.209 331.31 382.521 316.348 387.416 310.055C387.578 311.132 387.741 312.207 387.904 313.284C389.466 310.784 390.658 305.914 393.633 304.677ZM519.409 369.857C515.134 370.757 513.682 369.944 510.86 366.666C508.953 364.451 507.079 362.15 504.928 360.158C502.733 358.125 497.313 353.223 504.219 356.046C510.514 358.618 515.906 359.904 522.832 358.896C530.751 357.745 538.134 354.396 545.942 352.702C541.661 356.447 537.412 360.23 533.124 363.965C528.593 367.91 525.165 368.644 519.409 369.857ZM520.386 399.98C511.019 407.029 492.162 406.266 498.509 390.757C499.473 388.401 500.822 386.184 502.383 384.177C502.903 383.507 503.829 382.119 504.571 381.669C506.642 380.412 506.068 380.26 508.06 382.356C509.778 384.163 523.208 398.929 520.386 399.98ZM517.609 373.031C518.467 372.752 522.082 370.656 522.906 371.816C523.74 372.99 516.652 377.052 517.609 373.031ZM585.798 480.534C583.692 485.574 566.837 492.869 569.977 482.711C571.368 478.211 572.679 474.804 577.926 474.462C580.954 474.266 587.653 476.097 585.798 480.534ZM616.033 412.244C618.808 408.204 627.971 402.741 631.883 408.766C633.768 411.669 629.194 413.156 626.428 412.41C624.943 412.007 623.728 411.12 622.113 411.053C620.037 410.968 618.008 412.597 616.033 412.244ZM623.389 416.255C621.502 418.165 610.123 427.74 608.28 426.263C611.996 420.951 616.263 415.018 623.389 416.255ZM604.804 513.152C600.853 513.376 602.826 507.421 603.208 505.04C604.164 506.699 609.194 512.904 604.804 513.152ZM614.844 502.479C613.566 500.205 610.122 496.819 610.9 493.892C611.496 491.655 616.872 488.646 619.123 489.93C622.113 491.636 617.779 502.857 614.844 502.479ZM708.606 478.627C706.916 484.451 705.164 482.948 699.864 484.077C694.546 485.209 690.87 489.724 686.189 492.146C687.815 488.708 688.824 484.519 691.546 481.729C692.176 481.085 696.034 479.813 693.836 478.321C691.914 477.017 689.151 481.249 688.326 482.403C684.271 488.08 681.435 495.013 679.094 501.545C677.942 504.753 677.02 508.022 676.475 511.391C675.989 514.393 676.513 517.535 676.018 520.459C675.221 525.169 668.824 525.193 664.977 526.407C661.494 527.506 658.027 528.698 654.412 529.29C651.278 529.804 648.026 528.868 644.989 529.486C641.7 530.154 640.223 532.105 636.484 531.664C633.437 531.305 630.585 529.903 627.496 529.763C624.605 529.633 621.722 530.633 618.848 529.819C615.948 528.997 616.088 528.679 616.748 525.83C617.16 526.599 617.573 527.368 617.986 528.136C619.142 527.229 619.942 524.466 620.65 523.168C621.749 521.158 622.644 520.463 622.237 517.96C621.636 514.262 618.303 511.632 617.547 508.115C616.758 504.446 619.471 501.445 621.075 498.382C623.267 494.189 623.238 491.079 621.401 486.743C622.786 487.108 624.171 487.474 625.557 487.841C623.658 483.719 617.218 485.39 613.989 486.611C612.366 487.224 609.793 489.636 608.047 489.575C605.647 489.49 604.396 486.335 603.365 484.598C600.38 479.571 596.973 474.607 593.443 469.94C592.472 468.656 591.2 467.831 591.535 466.368C591.821 465.127 594.604 463.367 595.507 462.602C598.893 459.739 603.203 458.152 606.383 455.138C611.19 450.584 616.733 447.321 621.647 442.857C626.767 438.206 632.042 433.935 637.377 429.54C642.781 425.089 647.462 419.844 652.827 415.348C654.217 417.867 656.91 426.886 659.989 427.584C663.58 428.397 663.473 424.149 663.295 421.592C663.04 417.949 661.017 414.409 660.792 410.932C660.55 407.213 664.129 405.55 666.829 403.399C671.001 400.075 680.233 392.506 675.27 386.275C670.995 380.909 657.093 391.198 653.262 394.292C650.005 396.921 647.489 399.299 643.823 401.373C641.244 402.83 636.919 408.436 633.863 407.918C630.228 407.303 628.808 403.333 624.361 403.464C620.015 403.591 616.324 406.721 613.629 409.864C607.537 416.967 605.444 426.471 599.892 433.876C597.155 437.526 593.605 440.54 590.636 443.995C587.376 447.786 586.683 452.153 583.468 455.863C574.268 443.607 564.244 432.002 554.543 420.148C549.697 414.228 544.953 408.238 540.212 402.236C538.435 399.986 536.431 397.875 534.804 395.512C532.575 392.276 532.976 389.677 532.101 386.068C531.714 384.468 529.897 382.552 530.383 381.023C531.037 378.969 535.63 377.356 537.287 376.516C544.05 373.083 550.184 368.792 556.491 364.597C568.169 356.831 579.983 349.549 592.404 342.915C592.19 345.773 590.33 348.735 591.579 351.602C592.161 349.953 593.082 342.604 595.284 342.289C594.862 342.349 595.209 351.712 595.55 353.049C596.566 357.038 599.515 359.766 603.736 359.739C611.772 359.687 618.975 350.945 623.436 345.154C626.456 341.233 629.357 336.673 630.42 331.765C631.377 327.359 630.325 324.295 634.905 322.057C644.303 317.467 653.777 313.727 663.828 311.293C663.378 315.624 662.122 320.957 666.059 324.072C670.405 327.511 676.091 324.446 680.182 322.171C684.235 319.918 690.484 313.729 695.244 315.527C699.926 317.295 703.185 323.167 705.806 327.066C708.115 330.503 710.629 332.981 707.954 336.812C704.956 341.105 703.005 345.295 700.603 349.958C699.68 351.751 698.799 352.92 699.452 354.756C699.663 355.353 702.07 358.901 702.724 359.41C706.894 362.655 712.525 356.482 715.502 354.139C716.552 364.23 716.787 374.276 717.21 384.398C717.521 391.811 720.391 399.11 714.307 404.529C708.225 409.947 703.148 415.509 699.441 422.844C697.461 426.763 695.685 430.785 693.543 434.623C692.112 437.187 689.094 440.947 690.941 443.964C692.89 442.115 693.47 439.302 695.094 437.217C696.067 441.545 697.047 446.347 701.625 448.182C706.893 450.292 712.128 446.64 716.794 444.608C715.121 456.179 711.858 467.424 708.606 478.627ZM703.221 491.928C699.606 499.655 696.341 508.971 689.665 514.661C688.198 515.91 681.97 520.787 679.6 519.971C677.588 519.276 678.695 515.211 679.046 513.469C680.825 504.627 683.902 499.063 691.072 493.422C694.039 491.087 697.849 488.102 701.676 487.526C705.795 486.906 704.609 488.959 703.221 491.928ZM805.195 675.334C795.822 662.588 782.574 652.683 770.054 643.107C764.383 638.77 758.134 635.517 752.404 631.178C745.927 626.273 739.348 621.541 732.092 617.845C718.336 610.835 703.329 605.949 690.347 597.66C684.016 593.618 677.09 589.711 671.138 585.173C668.523 583.179 666.214 580.63 663.851 578.346C661.656 576.224 656.943 573.144 656.07 570.039C659.723 569.441 661.8 565.897 665.061 565.535C666.135 565.415 672.865 567.196 671.945 563.931C674.386 563.87 674.67 563.834 676.716 563.3C677.563 563.078 678.567 563.424 679.424 563.121C680.735 562.658 681.626 561.322 682.95 560.81C683.891 560.446 687.385 560.852 687.915 560.399C689.361 559.164 687.825 559.273 686.962 557.729C689.773 557.658 691.703 559.078 694.521 557.568C695.379 557.108 696.105 556.048 696.937 555.499C698.411 554.524 698.944 556.035 699.954 554.012C700.899 556.803 700.873 556.031 703.151 555.21C705.42 554.392 707.059 553.802 709.643 553.597C715.817 553.109 722.013 553.858 728.158 553.42C730.406 553.259 732.327 552.748 734.561 553.043C736.527 553.301 735.935 554.669 737.57 552.826C737.95 552.398 736.722 551.226 737.31 550.611C737.57 550.339 738.416 550.53 738.737 550.39C741.61 549.136 741.623 550.888 742.133 553.171C743.818 552.776 745.537 552.419 747.001 551.431C746.261 550.771 745.024 550.042 745.738 548.837C748.168 549.758 749.757 549.333 748.542 552C750.987 552.808 751.444 551.755 753.64 551.524C754.939 551.388 756.752 552.195 757.834 551.157C759.016 550.025 757.152 548.794 759.322 547.82C759.768 548.047 760.097 548.389 760.313 548.845C761.485 549.2 761.274 549.661 759.681 550.229C763.949 552.442 762.946 549.969 764.739 547.352C765.153 546.749 767.007 544.875 767.852 545.781C769.133 547.152 766.517 547.589 767.078 548.953C768.05 551.319 771.441 548.287 772.482 547.089C773.27 546.184 773.591 544.448 774.44 543.772C775.619 542.832 777.316 544.284 778.792 544.024C785.537 542.842 791.906 533.773 786.825 527.703C785.46 526.072 784.304 526.396 782.677 525.366C781.068 524.349 780.166 522.588 778.875 521.134C775.928 517.816 772.32 515.33 768.2 513.741C758.642 510.054 748.344 507.365 738.308 505.386C733.66 504.47 728.712 503.068 723.954 503.078C721.15 503.083 716.928 505.264 714.307 504.219C709.211 502.189 716.692 491.794 717.927 488.437C721.553 478.573 724.289 468.057 726.083 457.702C726.434 455.675 726.299 453.05 727.029 451.119C727.867 448.9 728.047 449.213 729.84 449.033C733.08 448.705 736.623 450.404 739.997 449.817C743.736 449.167 747.777 449.469 751.552 448.312C753.287 447.781 754.896 447.204 756.038 445.739C756.398 445.28 755.997 444.88 756.225 444.559C756.295 444.457 757.586 443.065 757.628 442.985C757.615 442.265 757.677 441.55 757.816 440.843C759.124 441.929 758.479 444.207 760.684 444.26C761.077 441.831 761.081 441.341 762.675 439.975C762.554 440.08 763.876 438.956 763.706 439.076C763.786 438.644 763.945 438.239 764.182 437.865C764.928 437.506 765.715 437.314 766.543 437.293C768.266 435.521 767.551 434.576 767.551 432.191C768.941 432.913 770.331 433.636 771.722 434.358C772.058 427.292 776.36 423.423 779.219 417.697C780.437 415.257 781.678 413.35 781.969 410.407C782.137 408.709 781.699 407.211 782.402 405.611C783.039 404.159 784.466 403.377 785.062 401.795C786.235 398.683 785.36 394.71 785.424 391.478C785.514 386.996 785.961 382.528 786.108 378.048C786.395 369.253 785.511 360.215 784.195 351.522C783.566 347.364 782.513 343.33 781.686 339.216C781.006 335.834 779.379 332.662 778.797 329.517C778.555 328.209 778.929 327.036 778.535 325.59C778.015 323.69 777.147 321.821 776.501 319.955C774.994 315.595 773.503 311.242 771.807 306.95C768.52 298.632 764.673 290.564 761.018 282.406C757.502 274.561 754.59 266.473 750.036 259.147C745.55 251.932 740.72 244.838 735.777 237.932C730.627 230.739 724.117 224.559 719.123 217.3C709.746 203.671 696.668 192.44 682.985 183.166C654.75 164.028 624.238 144.92 590.381 138.358C585.278 137.37 580.11 136.684 574.91 136.556C571.683 136.476 566.337 138.036 563.282 136.944C559.86 135.721 560.173 131.878 559.317 128.863C558.215 124.988 555.731 122.449 552.909 119.709C549.939 116.826 547.244 113.457 543.54 111.496C539.786 109.51 535.358 108.767 531.199 108.167C527.486 107.63 521.938 108.131 518.546 106.513C515.456 105.039 516.982 103.504 519.875 104.766C520.087 103.49 520.258 102.666 521.076 101.68C521.486 101.184 523.426 100.489 523.473 100.027C523.528 99.4852 521.901 97.943 521.668 97.2446C521.168 95.7409 521.452 93.6583 522.046 92.247C524.963 94.8399 525.808 95.9882 529.065 93.5097C530.44 92.4632 530.862 92.0018 532.455 91.4739C532.887 91.3304 533.856 91.7732 534.233 91.5248C535.672 90.577 534.348 90.8004 535.032 89.6802C534.86 89.9628 536.069 86.9855 536.011 87.608C536.158 86.0221 536.627 86.5095 535.67 84.561C533.794 80.7492 529.019 80.5933 531.453 76.2431C532.41 74.5315 533.253 74.702 533.523 72.2203C533.668 70.886 533.488 69.3562 533.482 67.999C533.47 65.2233 533.993 63.2799 531.392 61.8666C528.892 60.5073 526.586 61.9986 525.571 58.6274C524.508 55.0899 525.579 50.5547 521.747 48.1323C518.946 46.3625 514.903 47.8756 511.809 47.01C508.708 46.1433 505.856 42.9705 502.709 45.4065C500.473 47.1378 499.287 51.3944 495.074 49.0926C493.172 48.0544 492.126 44.5689 490.926 42.6141C489.016 39.4985 487.484 38.3731 484.544 41.4076C482.732 43.2792 478.911 47.8351 478.677 50.4259C478.421 53.2858 480.916 54.4809 477.783 56.1727C474.667 57.8563 472.919 56.6217 470.389 60.0386C467.88 63.4285 469.822 65.3012 466.916 68.5446C463.282 72.5986 461.349 74.3486 461.4 79.8107C461.435 83.5571 458.125 86.7932 460.056 90.3474C462.22 94.3307 468.536 95.9872 472.365 97.6083C471.087 99.9705 469.333 101.485 470.825 103.916C472.177 106.118 475.998 106.576 478.367 106.176C479.96 105.908 480.017 106.149 481.271 105.028C482.093 104.295 480.966 103.379 482.658 102.973C484.458 102.538 487.334 106.068 488.503 106.95C485.89 110.341 478.714 110.975 474.917 112.694C472.604 113.742 470.477 115.293 468.121 116.23C465.984 117.08 463.383 116.883 461.445 118.198C458.099 120.47 456.706 126.098 454.655 129.407C452.333 133.153 450.082 134.892 445.627 135.67C440.07 136.639 435.595 137.029 430.412 139.449C424.083 142.405 417.844 145.526 411.628 148.712C401.602 153.851 392.288 159.126 382.978 165.341C373.238 171.845 363.764 178.633 354.366 185.428C345.07 192.149 337.266 200.417 329.191 208.545C322.664 215.115 316.936 222.206 310.434 228.774C302.758 236.53 297.112 246.318 289.995 254.546C286.101 259.046 282.375 263.472 279.932 268.774C277.952 273.073 274.508 277.29 272.209 281.799C269.272 287.565 266.492 293.238 263.194 298.812C261.841 301.099 260.233 303.062 258.805 305.246C256.975 308.042 257.083 310.743 256.591 313.967C256.077 313.18 255.564 312.393 255.05 311.608C254.118 313.643 252.992 315.644 252.185 317.728C251.67 319.057 251.751 320.944 251.234 322.107C250.585 323.567 249.795 323.373 248.986 324.589C248.121 325.889 247.842 327.636 246.931 329.03C242.99 335.058 241.474 342.706 239.449 349.584C236.733 358.811 237.161 369.416 237.309 378.93C237.466 388.979 238.015 399.029 239.526 408.972C240.895 417.977 243.821 426.614 248.402 434.51C252.394 441.389 257.898 445.399 264.949 448.922C268.187 450.541 271.192 450.041 274.59 450.299C278.313 450.582 280.852 451.593 284.791 450.704C286.68 450.277 287.575 448.901 289.076 448.442C290.005 448.159 290.506 448.622 291.398 448.514C292.674 448.359 295.328 447.734 296.712 447.884C301.019 448.354 300.296 454.865 300.72 458.188C301.372 463.309 301.849 468.485 302.729 473.573C304.578 484.275 308.571 494.272 310.93 504.789C299.994 506.123 290.613 508.164 280.363 512.303C270.08 516.455 259.683 517.864 248.861 519.928C238.737 521.859 228.999 525.467 220.895 532.004C217.097 535.066 213.151 538.65 215.94 543.694C217.724 546.919 220.939 547.739 223.714 549.614C224.275 548.904 222.653 547.401 222.356 546.984C224.689 547.463 224.618 548.552 226.322 549.5C227.811 550.328 229.03 550.299 230.66 550.884C234.64 552.314 236.596 555.882 240.53 556.883C241.768 557.198 243.387 557.952 244.652 558.166C246.173 558.423 247.311 557.757 248.852 558.039C249.683 558.587 250.583 558.979 251.549 559.213C252.183 558.919 252.809 558.609 253.426 558.281C255.64 558.511 257.007 559.903 258.806 561.048C258.926 559.606 258.753 558.109 260.117 557.168C260.65 558.57 259.789 559.458 261.243 560.422C263.085 561.645 265.504 560.119 267.153 559.345C267.62 564.004 278.407 563.73 281.826 563.663C286.561 563.572 291.291 561.693 296.068 562.742C298.505 563.276 301.106 563.834 303.532 564.528C306.453 565.362 309.984 566.109 312.859 567.161C314.003 567.58 315.403 568.922 316.62 568.831C317.589 568.759 317.849 567.33 318.977 567.37C320.253 567.417 320.682 568.839 321.786 569.267C323.44 569.906 324.96 568.69 326.531 569.304C327.096 569.525 327.861 570.471 328.584 570.78C329.681 571.248 331.853 571.254 333.074 571.479C334.805 571.8 336.355 571.584 337.838 571.69C339.034 571.777 339.008 572.581 339.58 572.633C340.237 572.692 341.38 570.435 342.262 570.104C343.546 569.622 345.877 570.77 347.187 570.972C337.698 583.834 326.257 595.202 313.855 605.156C300.478 615.894 286.779 626.618 272.434 636.036C259.409 644.588 246.801 651.984 236.703 664.056C228.188 674.235 214.634 685.126 216.723 699.88C218.811 714.621 234.818 720.62 247.644 723.434C263.776 726.974 280.382 725.549 296.557 727.539C303.455 728.388 311.119 727.935 318.063 727.212C326.264 726.358 333.293 721.006 340.344 717.136C353.026 710.174 363.868 700.86 376.36 693.681C392.001 684.691 407.477 675.167 424.624 669.147C432.601 666.346 440.813 663.15 447.248 657.389C448.206 656.532 448.919 655.238 450.001 654.531C451.84 653.331 452.333 654.548 453.401 654.184C454.222 653.905 455.018 653.017 455.728 652.751C457.527 652.077 458.33 652.355 460.345 652.355C458.616 651.359 457.033 648.789 458.828 646.695C461.9 643.107 462.43 648.84 463.584 650.168C464.563 648.91 464.188 647.791 463.938 646.362C464.764 646.908 465.592 647.453 466.419 648C465.849 645.234 466.391 642.687 467.856 640.277C469.207 638.057 469.541 638.369 469.913 635.291C474.11 639.122 474.93 629.824 475.308 626.434C475.673 623.147 475.312 620.787 477.474 617.912C479.795 614.826 483.324 612.875 486.27 610.478C490.924 606.689 496.045 601.904 502.481 605.537C507.561 608.407 510.326 615.439 515.093 619.052C517.984 621.245 521.036 621.467 522.879 624.866C524.369 627.614 524.853 630.903 526.26 633.724C529.668 640.563 534.574 648.39 540.171 653.635C545.381 658.519 552.069 658.494 558.166 661.522C564.201 664.521 570.472 667.77 576.861 669.943C583.838 672.316 591.362 673.326 598.155 676.201C601.649 677.681 604.774 679.908 608.299 681.324C612.101 682.851 616.106 683.928 619.958 685.326C635.222 690.871 650.159 697.669 666.194 700.742C673.306 702.105 679.89 705.807 687.054 706.587C690.127 706.921 692.633 707.344 695.641 708.113C700.358 709.319 699.359 709.96 701.097 713.893C703.956 720.369 710.938 716.534 716.32 716.696C724.935 716.956 733.419 715.563 742.02 715.497C757.062 715.382 771.545 713.687 786.096 708.748C800.704 703.79 817.336 691.842 805.195 675.334Z" fill="black"/>
<path fill-rule="evenodd" clip-rule="evenodd" d="M631.321 169.398C631.527 169.604 632.01 169.729 631.321 169.398Z" fill="black"/>
<path fill-rule="evenodd" clip-rule="evenodd" d="M366.363 445.196C369.63 441.885 383.53 442.554 384.581 448.477C385.752 455.087 373.332 465.072 368.786 467.871C362.937 471.474 355.797 472.149 356.834 463.104C357.618 456.271 361.711 449.91 366.363 445.196ZM377.842 438.38C378.266 440.212 375.142 439.589 374.282 439.154C373.876 438.322 377.418 436.542 377.842 438.38ZM353.872 450.503C356.644 450.752 359.821 446.304 361.913 444.789C362.837 446.218 356.741 454.073 356.07 455.865C354.395 460.343 353.463 466.001 355.746 470.468C362.421 483.521 379.501 464.881 383.773 458.37C386.762 453.817 388.831 448.17 384.609 443.708C383.106 442.118 380.623 441.677 379.227 440.166C377.389 438.18 378.835 435.615 375.14 436.048C372.59 436.348 369.529 438.648 367.05 439.481C364.062 440.483 361.376 441.523 358.768 443.381C358.18 443.8 350.447 450.195 353.872 450.503Z" fill="black"/>
<path fill-rule="evenodd" clip-rule="evenodd" d="M549.82 454.884C548.077 463.852 539.191 473.052 529.84 473.409C520.528 473.764 517.513 464.008 519.157 456.232C520.559 449.6 526.291 438.078 534.469 439.348C540.898 440.345 551.313 447.197 549.82 454.884ZM543.89 439.895C537.986 435.327 529.829 433.213 522.986 436.838C520.742 438.026 511.786 443.268 514.511 446.817C518.186 443.969 521.358 440.017 526.133 439.07C525.33 442.772 520.744 446.102 519.128 449.707C517.239 453.918 516.206 458.738 516.515 463.366C517.066 471.602 522.583 478.002 531.124 476.87C538.944 475.833 545.78 469.84 549.51 463.102C554.491 454.105 551.685 445.926 543.89 439.895Z" fill="black"/>
<path fill-rule="evenodd" clip-rule="evenodd" d="M489.062 475.27C484.858 481.494 478.448 487.349 471.037 489.272C461.442 491.76 464.138 483.831 467.005 478.141C469.54 473.11 473.889 464.456 480.512 464.503C482.76 464.517 486.946 465.604 488.916 466.806C492.799 469.176 491.275 471.995 489.062 475.27ZM480.107 461.59C481.616 459.91 488.296 452.706 489.191 458.321C491.109 456.097 489.596 454.252 487.14 454.017C484.178 453.734 480.939 457.033 478.801 458.672C474.401 462.044 471.014 465.497 468.098 470.225C464.883 475.437 456.686 487.216 463.86 492.388C471.614 497.978 482.9 487.654 487.755 482.33C490.861 478.924 494.974 473.923 493.793 468.929C492.343 462.795 485.208 462.151 480.107 461.59Z" fill="black"/>
<path fill-rule="evenodd" clip-rule="evenodd" d="M447.021 361.279C442.682 366.23 433.868 373.443 426.605 372.593C419.981 371.818 422.567 364.383 424.911 360.785C428.433 355.377 433.151 350.3 439.968 350.004C442.911 349.877 446.725 349.937 449.004 352.165C452.117 355.209 449.314 358.664 447.021 361.279ZM446.56 347.524C441.477 345.768 439.48 345.099 434.54 347.891C430.573 350.133 427.055 353.302 424.333 356.9C420.259 362.286 416.15 374.401 426.611 375.916C438.086 377.579 465.381 354.032 446.56 347.524Z" fill="black"/>
<path fill-rule="evenodd" clip-rule="evenodd" d="M462.2 378.434C458.899 381.806 454.778 384.557 450.074 385.496C452.064 381.057 456.507 371.356 461.775 370.005C464.202 369.381 466.969 370.198 466.769 372.963C466.625 374.962 463.502 377.103 462.2 378.434ZM466.449 366.698C463.716 365.328 464.578 364.392 461.398 365.467C458.892 366.313 455.731 367.782 453.644 369.474C452.506 370.398 448.961 373.672 449.395 375.338C450.181 378.366 452.825 373.726 453.52 372.834C454.711 373.805 448.62 382.52 448.258 383.955C446.907 389.296 451.1 389.861 455.209 388.113C460.75 385.758 477.159 372.064 466.449 366.698Z" fill="black"/>
<path fill-rule="evenodd" clip-rule="evenodd" d="M547.693 510.428C548.102 506.887 548.683 503.143 551.933 501.155C554.861 499.362 557.894 499.622 558.327 503.298C558.731 506.712 555.386 512.775 552.68 514.637C548.913 517.231 548.187 513.998 547.693 510.428ZM552.533 518.486C560.268 513.96 565.143 493.203 550.885 499.02C542.783 502.326 545.763 522.447 552.533 518.486Z" fill="black"/>
<path fill-rule="evenodd" clip-rule="evenodd" d="M486.473 432.411C487.693 429.911 489.088 429.082 491.562 427.987C489.913 429.544 488.228 430.983 486.473 432.411ZM488.258 426.25C486.506 428.008 482.491 430.688 483.053 433.707C483.567 436.463 485.672 436.305 487.581 435.446C491.584 433.646 493.812 425.767 498 425.029C493.355 422.085 492.271 422.222 488.258 426.25Z" fill="black"/>
<path fill-rule="evenodd" clip-rule="evenodd" d="M488.873 269.769C489.096 278.16 489.292 286.55 489.477 294.941C489.542 297.89 488.838 302.094 489.723 304.919C490.114 306.163 493.648 311.557 494.902 311.906C499.289 313.127 497.721 302.128 497.752 299.42C497.859 290.283 497.725 281.136 497.688 271.999C497.667 267.29 498.997 227.808 492.887 228C491.835 228.034 489.242 232.548 488.852 233.453C487.624 236.295 488.076 240.508 488.104 243.538C488.187 252.278 488.641 261.03 488.873 269.769Z" fill="black"/>
<path fill-rule="evenodd" clip-rule="evenodd" d="M525.866 294.229C526.21 296.549 526.029 300.417 528.641 301.62C530.913 302.666 531.784 301.422 532.634 299.478C534.588 295.006 533.883 288.169 533.847 283.545C533.775 274.381 532.743 265.256 532.03 256.127C531.716 252.121 532.367 248.098 531.867 243.906C531.647 242.067 531.428 234.667 528.018 235.012C524.935 235.323 525.213 243.078 525.045 245.076C523.647 261.71 523.404 277.625 525.866 294.229Z" fill="black"/>
<path fill-rule="evenodd" clip-rule="evenodd" d="M671.386 485.239C670.079 491.919 648.76 515.182 643.392 502.172C640.207 494.452 647.111 486.049 652.494 481.581C655.826 478.815 659.988 476.101 664.529 476.939C668.384 477.65 672.215 480.996 671.386 485.239ZM660.377 473.256C658.871 473.612 646.285 482.45 646.169 482.334C645.076 481.237 653.015 469.404 653.832 468.369C660.562 459.842 665.029 466.299 669.238 473.001C668.342 468.998 665.875 463.186 661.755 461.493C656.552 459.356 652.494 464.631 649.991 468.424C646.453 473.785 644.502 479.606 642.537 485.656C641.599 488.541 640.531 491.157 638.944 493.758C637.377 496.325 634.635 499.155 635.04 502.402C637.268 501.164 638.451 498.74 639.854 496.743C641.42 497.377 640.882 502.369 641.2 503.64C641.999 506.833 644.181 509.332 647.555 509.881C653.844 510.904 660.633 505.086 664.838 501.134C669.269 496.97 674.038 491.262 674 484.853C673.959 478.157 667.374 471.6 660.377 473.256Z" fill="black"/>
<path fill-rule="evenodd" clip-rule="evenodd" d="M677.427 365.913C673.859 371.374 667.598 377.92 660.973 379.189C656.11 380.12 652.902 376.516 654.856 371.651C656.506 367.539 662.128 364.942 665.813 363.133C668.736 361.698 682.365 358.356 677.427 365.913ZM674.802 356.981C667.493 356.705 661.597 361.989 656.147 366.207C657.378 361.362 660.162 356.091 664.083 352.938C669.418 348.646 674.476 351.311 680.093 353.457C678.707 349.084 672.487 347.511 668.524 348.129C663.514 348.911 659.911 353.188 657.378 357.326C654.356 362.262 653.322 368.079 649.765 372.709C648.136 374.828 638.051 382.759 640.335 386C644.101 382.001 647.869 378.003 651.636 374.004C652.613 378.73 653.689 384.112 659.723 383.652C664.542 383.284 670.038 379.188 673.562 376.057C678.112 372.013 687.068 357.445 674.802 356.981Z" fill="black"/>
<path fill-rule="evenodd" clip-rule="evenodd" d="M572.414 403.611C569.318 405.034 562.502 406.969 560.771 402.692C558.366 396.751 566.104 386.331 569.787 382.372C572.053 379.937 573.59 378.677 576.749 380.253C579.271 381.512 582.977 385.088 583.944 387.838C586.021 393.741 577.257 401.383 572.414 403.611ZM579.518 375.078C582.039 375.647 582.348 378.849 579.195 377.619C576.833 376.698 576.284 374.349 579.518 375.078ZM582.683 379.588C581.742 376.716 583.657 372.211 579.02 372.004C576.393 371.887 571.58 374.558 569.286 375.644C566.106 377.148 563.114 379.445 561.454 382.68C559.916 385.677 561.014 386.467 563.358 383.98C563.644 384.175 558.056 398.589 558.007 400.033C557.789 406.633 562.461 410.98 569.023 409.81C575.054 408.734 580.489 403.802 583.808 398.825C585.487 396.305 586.866 393.421 586.991 390.335C587.185 385.602 584.029 383.699 582.683 379.588Z" fill="black"/>
<path fill-rule="evenodd" clip-rule="evenodd" d="M611.611 377.167C609.066 372.267 614.962 364.02 620.241 366.432C631.233 371.455 614.949 383.592 611.611 377.167ZM621.485 370.77C620.305 370.818 612.848 373.699 613.946 375.651C615.452 378.33 620.895 371.848 621.485 370.77Z" fill="black"/>
<path fill-rule="evenodd" clip-rule="evenodd" d="M260.946 361.713C260.651 359.625 255.973 362.656 256 364C256.774 362.452 261.56 366.062 260.946 361.713Z" fill="black"/>
<path fill-rule="evenodd" clip-rule="evenodd" d="M516.806 203.995C522.762 203.557 515.173 173.509 510.833 176.166C506.127 179.046 511.34 204.396 516.806 203.995Z" fill="black"/>
<path fill-rule="evenodd" clip-rule="evenodd" d="M527.929 189.964C533.509 190.763 532.622 177.95 529.621 175.657C524.081 171.424 521.154 188.994 527.929 189.964Z" fill="black"/>
</svg>
