<svg width="510" height="727" viewBox="0 0 510 727" fill="none" xmlns="http://www.w3.org/2000/svg">
<path fill-rule="evenodd" clip-rule="evenodd" d="M273.199 362.002L273.353 362.02C275.588 362.453 279.292 368.846 280.809 370.663C285.7 376.524 290.591 382.384 295.482 388.244C297.439 390.59 300.262 393.053 301.656 395.767C302.729 397.856 303.097 400.735 303.737 402.973C311.691 430.776 319.469 458.758 325.262 487.103C326.509 493.204 327.692 499.347 328.385 505.54C328.727 508.601 329.626 513.1 328.293 516.058C326.79 519.392 321.954 520.778 318.812 521.811C312.7 523.823 306.3 525.021 299.968 526.096C284.711 528.685 269.263 530.19 253.844 531.407C249.133 531.778 244.284 531.772 239.603 532.405C237.368 532.707 238.038 532.107 237.333 533.608C236.352 535.697 237.003 540.054 236.886 542.331C236.612 547.686 236.338 553.04 236.064 558.396L233.82 602.216C233.061 617.024 232.303 631.833 231.544 646.642C231.257 652.253 230.97 657.864 230.683 663.476C230.529 666.475 230.986 670.347 230.182 673.251C229.574 675.447 230.574 674.8 227.881 674.93C221.645 675.231 215.184 674.476 208.946 674.253C201.872 674 194.796 673.747 187.72 673.494C185.699 673.421 183.441 673.995 182.627 672.546C181.635 670.782 182.39 665.931 182.32 663.961C182.124 658.472 181.928 652.981 181.731 647.492C181.192 632.422 180.653 617.352 180.114 602.283C179.379 581.731 178.643 561.178 177.908 540.624C170.04 542.208 162.172 543.792 154.303 545.375C142.677 547.715 131.05 550.055 119.423 552.394C114.091 553.467 107.758 555.916 102.252 555.126C96.7827 554.341 94.5219 552.005 94.2148 546.814C93.8853 541.249 94.0137 535.64 94.0882 530.07C94.211 520.96 94.4726 511.851 94.8169 502.746C110.351 501.347 125.886 499.947 141.42 498.548C149.692 497.802 157.965 497.058 166.235 496.312C168.112 496.144 172.74 496.506 173.578 495.091C174.881 492.891 173.431 485.658 173.392 483.17L173.021 459.648L171.663 373.102C175.383 373.224 179.102 373.335 182.821 373.439C199.002 373.896 215.263 374.558 231.449 374.06C239.566 373.811 247.257 371.621 254.92 369.037C258.994 367.664 263.027 366.168 267.029 364.595C268.288 364.1 271.994 361.758 273.353 362.02L273.199 362.002ZM251.414 442.536L243.148 482.967L271.435 481.093L251.414 442.536Z" fill="#5433FF"/>
<path fill-rule="evenodd" clip-rule="evenodd" d="M487.689 114.63C487.111 119.127 487.522 124.03 482.446 125.215C477.748 126.313 472.593 126.005 467.803 126.39C462.42 126.822 457.053 127.413 451.681 127.946C444.909 128.616 445.875 126.014 444.394 120.23C443.041 114.948 440.882 109.677 439.085 104.526C438.251 102.132 437.254 99.9291 436.116 97.6726C435.085 95.6301 435.575 92.8517 434.464 91.1349C430.672 85.2774 412.18 101.295 410.462 98.1378C413.591 95.7018 419.006 92.9763 419.966 88.8077C421.095 83.9086 417.982 82.4459 414.07 84.2371C404.445 88.6467 393.336 92.0933 382.838 93.7003C386.233 91.4308 416.94 73.5437 406.635 68.238C404.312 67.0423 401.21 69.2932 399.116 70.1446C395.791 71.4966 392.319 72.403 388.849 73.2888C385.192 74.2221 381.526 75.12 377.849 75.9686C375.27 76.5642 370.673 78.6792 368.16 78.1572C365.609 77.6268 370.128 76.0431 370.868 75.6699C374.095 74.0444 377.269 72.2978 380.419 70.5289C386.007 67.3903 391.169 63.7549 395.419 58.9023C398.626 55.2408 403.921 47.245 401.689 42.1821C400.395 39.2473 397.56 36.5349 395.894 33.7545C393.949 30.5071 392.379 27.0456 390.689 23.6623C393.517 24.9055 396.69 25.2237 399.576 26.3394C402.462 27.456 405.393 28.3595 408.395 29.1895C414.418 30.8542 420.424 31.1501 426.393 32.5002C433.15 34.0281 440.19 35.7365 447.055 36.6196C453.031 37.3872 458.406 39.0231 463.527 42.2817C473.985 48.9385 481.24 58.5013 484.909 70.327C487.059 77.2546 487.582 84.4827 487.835 91.6904C488.102 99.2898 488.662 107.064 487.689 114.63ZM428.997 115.189C421.694 120.513 413.181 124.673 405.344 129.202C400.859 131.792 396.279 134.213 391.705 136.642C388.459 138.365 384.515 141.536 380.942 142.42C378.681 142.98 378.85 143.022 377.419 140.961C376.052 138.993 374.858 136.875 373.578 134.848C371.219 131.111 368.838 127.388 366.456 123.665C361.117 115.32 355.788 106.976 350.178 98.8078C344.55 90.6119 339.151 82.2653 333.7 73.9532C331.166 70.0888 328.647 66.2095 325.958 62.4512C323.905 59.5816 318.641 55.2045 321.14 51.8258C323.462 48.6872 328.752 46.08 331.881 43.7044C335.704 40.804 339.551 37.9334 343.364 35.0182C351.561 28.7512 359.543 22.2117 367.733 15.9364C374.683 28.1269 382.86 39.5553 391.107 50.8888C383.649 55.6483 376.114 60.1724 368.255 64.2471C362.45 67.2563 353.57 71.3226 349.903 77.0313C346.292 82.6524 349.839 89.138 356.277 89.2413C360.128 89.3027 363.966 88.2829 367.74 87.7004C370.465 87.2798 375.441 85.3155 377.898 86.7001C373.482 89.5177 357.46 97.7293 366.097 104.929C372.27 110.075 382.706 102.565 389.374 104.111C387.342 108.011 385.229 114.234 390.871 116.355C395.566 118.121 401.711 114.83 405.936 113.084C408.99 111.824 412.024 110.52 415.026 109.144C417.413 108.049 420.272 105.83 422.823 105.358C425.799 104.806 431.86 113.101 428.997 115.189ZM293.236 402.688C297.414 401.926 299.559 400.198 300.875 405.271C302.055 409.816 303.223 414.193 304.741 418.653C298.215 419.217 292.458 422.333 287.698 426.717C284.309 429.84 277.568 437.296 279.24 442.526C283.299 455.237 303.804 426.722 306.241 423.675C309.223 428.034 310.321 433.742 311.803 438.728C312.859 442.276 316.775 449.078 311.598 449.94C304.33 451.152 290.695 453.858 291.557 464.151C292.575 476.3 308.03 476.231 316.701 476.778C321.59 477.085 321.612 481.002 322.308 485.386C322.62 487.346 323.593 489.995 321.928 491.431C320.45 492.705 315.923 492.74 314 493.153C308.391 494.357 302.787 495.584 297.18 496.787C290.814 498.153 287.448 496.24 281.497 494.496C279.293 493.851 277.08 494.123 276.918 491.656C276.819 490.142 278.3 487.802 278.785 486.305C280.706 480.382 282.341 474.284 282.893 468.064C283.696 459.026 282.693 445.475 271.564 443.711C266.27 442.872 265.252 442.598 262.862 437.63C260.276 432.257 256.172 427.281 257.164 421.091C257.882 416.606 256.671 408.119 259.534 404.399C260.857 402.679 263.437 401.653 265.198 400.391C267.442 398.781 269.603 397.058 271.694 395.255C273.453 393.741 275.597 390.779 277.591 389.685C280.028 388.346 280.102 389.258 281.852 391.348C284.434 394.434 288.54 403.545 293.236 402.688ZM305.046 422.768C303.598 425.69 300.251 428.407 298.12 430.847C295.976 433.301 293.947 435.894 291.555 438.118C288.923 440.566 279.575 446.479 281.634 438.52C283.237 432.329 289.234 427.316 294.513 424.227C295.534 423.627 307.496 417.823 305.046 422.768ZM315.273 452.238C316.2 456.382 316.698 460.653 317.49 464.826C317.895 466.96 320.139 472.114 319.224 474.166C317.675 477.644 303.727 473.526 300.835 472.33C293.953 469.481 290.794 462.167 297.141 456.958C299.547 454.984 314.346 448.097 315.273 452.238ZM324.416 502.002C325.193 505.957 327.466 509.624 323.709 512.615C320.59 515.098 315.478 516.792 311.635 517.676C306.395 518.88 304.711 515.944 301.937 512.168C298.955 508.108 295.781 504.185 292.487 500.372C302.831 498.057 313.173 495.741 323.517 493.426C323.511 496.308 323.861 499.178 324.416 502.002ZM299.633 520.36C294.239 520.08 288.435 521.704 282.965 522.131C276.133 522.664 269.321 523.44 262.483 523.899C264.235 518.31 267.381 513.325 269.843 508.045C272.312 502.747 274.046 502.174 279.726 501.765C284.99 501.387 288.702 499.575 292.587 504.04C296.629 508.685 300.289 513.732 303.979 518.655C302.724 519.495 301.223 520.442 299.633 520.36ZM261.076 521.5C259.745 522.47 255.641 519.714 254.258 519.18C251.567 518.14 250.971 517.805 249.566 515.181C248.36 512.925 246.441 510.36 246.063 507.785C245.565 504.39 247.067 499.92 247.614 496.547C249.07 500.059 253.851 500.466 257.082 501.04C259.524 501.476 266.763 500.783 268.605 502.523C270.64 504.445 266.893 509.806 265.917 511.825C264.752 514.235 263.313 519.871 261.076 521.5ZM258.468 524.285C256.867 524.545 252.257 526.138 252.349 523.213C252.452 519.871 258.795 523.476 258.468 524.285ZM250.345 524.11C250.053 526.924 243.998 526.691 243.86 524.216C243.624 520.033 250.811 519.617 250.345 524.11ZM243.422 448.231C241.875 452.64 232.446 454.217 228.825 455.574C225.518 456.814 215.639 462.536 212.229 460.46C223.771 452.528 235.599 444.754 245.378 434.626C245.779 437.128 245.169 439.218 244.431 441.586C243.766 443.723 244.108 446.278 243.422 448.231ZM240.552 464.308C238.891 475.107 237.261 486.049 235.014 496.741C230.731 495.432 227.199 492.78 222.699 491.856C218.593 491.012 214.351 490.992 210.212 491.608C201.389 492.92 193.524 497.284 185.827 501.536C185.116 494.131 183.643 486.205 183.817 478.773C183.962 472.599 194.526 470.771 199.318 468.221C202.217 466.678 204.839 464.508 208.142 463.97C211.541 463.416 214.82 463.432 218.178 462.397C226.116 459.948 233.586 456.065 241.363 453.171C241.998 456.878 241.115 460.655 240.552 464.308ZM233.135 510.013C232.782 512.468 233.227 516.849 231.356 518.72C229.595 520.482 225.832 520.54 223.509 521.017C216.432 522.474 209.362 523.944 202.296 525.446C199.134 526.118 195.972 526.76 192.797 527.36C191.283 527.645 187.485 529.098 186.21 527.893C185 526.748 185.901 523.093 185.966 521.56C186.097 518.497 186.27 515.424 186.077 512.36C185.709 506.482 186.036 504.231 191.506 501.19C197.318 497.959 203.321 495.747 209.863 494.549C216.486 493.337 222.796 494 229.1 496.542C230.855 497.25 233.486 498.122 234.303 500.013C235.413 502.587 233.509 507.405 233.135 510.013ZM225.167 604.759C222.574 606.385 216.929 606.108 213.949 606.438C209.138 606.97 204.296 606.666 199.516 605.924C195.918 605.366 190.548 604.592 187.79 602.066C183.872 598.477 188.393 598.312 191.392 598.565C200.109 599.298 208.937 598.786 217.646 598.156C219.342 598.033 223.899 596.544 225.534 597.241C227.624 598.132 226.984 603.62 225.167 604.759ZM220.225 662.763C203.983 661.185 194.566 647.735 188.676 633.986C185.515 626.604 186.655 618.859 186.343 611.053C186.286 609.627 185.391 606.089 186.857 605.024C188.234 604.023 193.806 607.117 195.313 607.486C203.038 609.38 211.582 609.561 219.324 607.722C222.678 606.925 224.556 605.444 225.622 608.768C226.48 611.445 225.072 616.377 224.918 619.183C224.653 624.035 225.413 663.266 220.225 662.763ZM187.779 662.778C187.717 660.422 186.528 636.615 187.681 636.543C191.108 643.935 194.628 650.547 200.866 655.985C204.053 658.764 207.636 661.268 211.621 662.76C213.118 663.32 221.602 663.745 222.018 665.603C222.745 668.854 216.953 667.542 215.235 667.278C213.857 667.064 212.617 666.477 211.264 666.232C208.688 665.765 206.254 666.393 203.666 666.445C199.735 666.525 195.875 666.112 191.942 666.453C188.347 666.763 187.875 666.35 187.779 662.778ZM190.177 555.995C204.081 551.501 215.701 560.012 223.039 571.152C227.223 577.505 228.159 581.947 227.427 589.469C227.165 592.162 227.649 593.985 225.173 595.082C222.723 596.169 217.155 595.363 214.504 595.487C206.879 595.843 199.283 596.316 191.658 595.864C186.705 595.571 186.005 594.732 186.091 589.924C186.193 584.136 185.712 578.375 185.385 572.578C185.03 566.306 182.877 558.354 190.177 555.995ZM185.627 547.659C185.635 543.406 185.38 539.043 185.64 534.797C185.898 530.588 187.69 530.796 191.664 530.078C200.27 528.522 208.864 526.781 217.354 524.672C220.711 523.838 224.506 522.237 228.004 522.224C231.675 522.21 231.48 524.097 231.235 527.348C230.691 534.547 229.372 541.64 228.971 548.801C228.538 556.53 228.311 564.358 228.346 572.096C228.358 574.707 228.992 576.642 226.766 574.198C224.536 571.749 223.446 567.848 221.455 565.096C217.378 559.462 211.318 554.93 204.593 553.021C200.875 551.966 196.965 551.783 193.174 552.547C192.024 552.778 186.263 555.528 185.53 554.985C185.034 554.617 185.626 547.831 185.627 547.659ZM236.493 695.044C242.008 698.993 248.115 702.183 254.297 704.954C257.776 706.512 271.546 709.792 271.985 713.3C272.22 715.171 269.938 717.269 268.443 717.49C266.547 717.771 263.423 716.533 261.492 716.298C254.469 715.446 247.46 715.44 240.608 713.485C226.927 709.581 212.743 708.481 198.92 705.077C195.631 704.268 192.335 703.508 189.029 702.775C185.889 702.078 184.482 702.197 184.371 698.842C184.126 691.477 186.239 683.932 186.256 676.476C197.438 677.752 208.659 677.735 219.873 678.786C224.678 679.235 224.566 680.146 226.671 684.345C228.857 688.7 232.575 692.239 236.493 695.044ZM181.968 455.77C181.827 453.043 181.716 450.31 181.469 447.591C181.304 445.764 179.635 440.658 180.576 439.236C181.694 437.547 182.82 438.578 184.82 438.53C187.456 438.468 189.664 437.408 191.838 436.021C195.955 433.395 199.016 429.938 201.688 425.903C204.039 422.353 203.601 417.502 203.572 413.25C203.498 402.257 204.299 391.533 203.628 380.491C203.32 375.419 207.65 378.53 211.146 379.187C216.865 380.26 223.081 379.517 228.893 379.531C228.677 380.883 216.792 384.239 214.872 385.517C209.956 388.786 207.089 394.016 207.538 399.979C208.44 411.975 221.651 413.98 231.305 414.003C223.296 421.085 215.43 427.837 209.135 436.573C204.494 443.015 196.319 455.716 203.907 462.842C197.199 466.652 190.552 470.889 182.966 472.723C182.626 467.073 182.262 461.423 181.968 455.77ZM178.923 236.791C181.654 238.545 182.802 236.065 184.88 234.781C187.807 232.971 188.776 233.149 189.147 229.108C189.834 221.613 186.681 214.828 182.722 208.695C180.923 205.907 179.128 202.587 176.588 200.407C174.273 198.421 171.932 199.105 169.787 197.051C168.945 196.243 169.125 195.104 167.733 195.136C166.816 195.158 164.588 197.997 163.831 198.625C161.439 200.605 158.513 202.112 155.378 200.479C150.814 198.103 152.28 189.477 155.825 186.683C158.555 184.531 161.78 184.863 164.888 184.516C167.218 184.257 167.703 184.358 166.744 181.691C166.073 179.824 164.524 178.367 163.759 176.54C162.289 173.033 162.609 168.77 161.974 165.059C161.403 161.733 160.07 158.136 160.118 154.758C160.182 150.457 161.587 149.34 165.313 148.134C168.923 146.966 171.912 144.391 174.987 142.228C178.468 139.779 182.28 138.162 185.856 135.926C188.285 134.407 189.852 131.337 192.522 132.771C195.694 134.475 199.049 139.407 201.747 141.928C197.8 144.434 196.882 145.53 197.425 150.436C197.925 154.933 198.841 158.941 202.279 162.074C203.599 163.278 206.063 164.242 207.087 165.63C208.281 167.247 207.504 165.822 207.354 167.647C207.274 168.632 206.495 169.276 206.664 170.414C207.422 175.468 213.228 172.485 215.621 170.729C224.17 164.456 208.207 159.474 204.416 157.188C201.798 155.609 200.503 150.57 204.651 151.909C207.41 152.799 213.644 160.349 214.277 153.467C221.119 157.442 225.341 165.886 231.079 171.225C235.216 175.075 240.774 179.346 237.489 185.496C233.305 193.335 225.006 196.893 217.431 200.275C210.082 203.555 211.609 212.838 215.536 218.52C217.807 221.804 220.782 223.729 224.361 225.324C228.018 226.956 228.777 228.872 229.576 232.655C230.463 236.851 229.521 238.543 225.887 240.711C222.339 242.829 218.63 244.88 214.842 246.537C206.651 250.121 198.154 250.347 189.442 251.569C186.389 251.997 183.461 252.889 181.795 249.862C179.922 246.455 179.784 240.588 178.923 236.791ZM177.606 220.489C175.556 219.408 170.607 222.997 168.015 223.154C163.822 223.409 161.069 223.313 157.348 225.537C150.312 229.741 144.474 235.153 138.832 241.023C132.478 247.634 126.159 254.28 119.826 260.911C116.956 263.914 114.071 266.902 111.155 269.86C108.858 272.192 106.611 275.471 103.767 277.135C103.915 275.158 105.127 273.76 105.557 271.928C105.807 270.857 105.37 269.948 105.531 268.922C105.585 268.589 106.479 267.431 106.615 267.052C106.978 266.05 107.422 265.06 107.853 264.019C108.255 263.048 108.196 262.041 108.604 261.027C109.023 259.981 110.172 259.289 110.57 258.259C111.738 255.244 109.805 253.846 106.713 253.917C107.923 247.884 108.452 244.934 114.759 242.807C120.785 240.774 126.671 238.493 132.207 235.317C137.122 232.498 141.222 228.434 145.947 225.292C150.177 222.478 155.443 219.53 155.399 213.76C157.797 215.387 160.045 216.755 162.788 215.136C165.104 213.769 165.411 212.668 168.087 212.41C170.273 212.201 171.627 212.145 173.576 213.106C175.871 214.236 176.185 215.022 177.521 211.694C179.04 212.973 182.88 218.298 182.752 220.406C182.682 221.567 182.506 222.091 181.067 222.397C179.026 222.831 179.105 221.279 177.606 220.489ZM168.046 535.644C167.048 537.173 162.842 536.891 161.218 536.87C156.267 536.806 154.536 532.651 152.364 528.635C148.939 522.305 143.821 509.155 149.439 502.512C153.874 497.268 162.511 503.875 165.536 507.835C168.149 511.256 167.373 516.388 167.616 520.494C167.82 523.954 170.017 532.626 168.046 535.644ZM154.519 537.937C152.54 539.916 146.116 539.497 143.493 539.922C138.812 540.68 134.157 541.591 129.615 542.974C126.234 544.003 122.892 546.772 122 542.059C121.252 538.097 121.624 533.344 121.696 529.345C121.773 525.03 122.225 520.77 122.6 516.475C122.854 513.57 122.218 508.226 124.589 505.996C126.633 504.075 131.602 503.89 134.255 503.253C138.612 502.208 143.164 500.836 147.692 501.304C145.05 508.475 144.826 515.996 147.659 523.142C148.466 525.182 155.742 536.714 154.519 537.937ZM121.226 509.368C120.122 520.155 119.012 531.01 120.075 541.851C120.139 542.498 120.912 545.46 120.576 545.923C120.228 546.403 117.479 546.652 116.855 546.799C114.376 547.387 111.9 548.01 109.405 548.532C104.549 549.548 103.915 546.48 102.962 541.979C100.921 532.336 104.878 521.881 107.276 512.62C108.443 508.11 109.309 507.59 113.744 507.216C116.83 506.957 121.695 504.784 121.226 509.368ZM102.473 549.613C100.618 551.301 98.7628 543.336 98.599 542.525C97.9503 539.302 98.3114 536.033 98.3207 532.759C98.3366 527.646 97.9457 522.557 97.9382 517.468C97.9336 514.715 95.8712 509.087 99.1285 507.631C100.084 507.204 103.881 507.382 104.743 507.944C106.533 509.113 105.827 509.87 105.297 511.903C104.109 516.466 103.083 521.052 102.049 525.653C101.035 530.164 100.034 534.505 100.517 539.164C100.676 540.705 103.656 548.537 102.473 549.613ZM161.658 499.351C166.181 498.076 166.423 501.542 166.416 504.859C165.726 504.331 159.297 500.016 161.658 499.351ZM101.144 255.852C100.036 257.679 93.0151 258.178 91.0086 258.659C87.0617 259.604 83.1129 260.543 79.1762 261.527C71.8007 263.372 64.6068 265.452 57.0461 266.417C61.1978 259.77 62.4895 254.029 61.7171 245.734C60.7427 235.26 59.504 224.893 57.0926 214.64C54.7157 204.531 51.9638 194.489 49.3133 184.447C48.0113 179.513 46.6032 174.673 44.8713 169.873C43.4827 166.025 41.3143 161.182 43.6707 157.238C49.6511 161.601 54.4477 166.302 57.8586 172.93C61.5133 180.035 64.7035 187.329 68.9445 194.127C70.884 197.234 73.1483 200.069 75.2228 203.077C76.4568 204.867 77.3558 207.449 78.9277 208.96C80.7397 210.7 82.6717 211.52 83.7076 208.584C84.8188 205.432 81.2739 199.196 80.2278 196.236C77.7011 189.091 75.1958 181.96 73.247 174.631C71.6704 168.706 69.0646 161.543 69.9869 155.292C70.8999 149.103 75.099 153.532 77.2237 156.41C81.6043 162.342 84.2269 169.256 87.1045 175.981C89.7494 182.159 92.8345 188.049 95.7614 194.085C96.7796 196.185 98.1216 201.61 100.789 202.234C104.666 203.143 104.337 197.683 103.967 195.467C101.51 180.781 95.096 166.719 93.7652 151.778C93.701 151.064 92.774 145.512 93.5195 145.049C94.9648 144.15 96.9145 149.782 97.5381 151.162C100.781 158.339 103.04 165.904 105.113 173.486C106.875 179.934 108.47 186.43 110.448 192.816C111.535 196.327 112.781 199.779 114.01 203.242C115.121 206.378 116.249 211.739 119.147 213.806C123.259 216.738 137.972 209.766 139.463 215.999C140.524 220.429 126.881 223.997 123.975 225.342C120.15 227.113 116.398 229.052 112.571 230.825C109.674 232.165 105.51 232.715 103.414 235.239C101.194 237.912 100.838 241.666 100.772 244.982C100.721 247.492 102.46 253.686 101.144 255.852ZM91.8462 304.226C91.6517 305.618 90.5451 307.462 90.0472 308.787C89.0337 311.486 88.1719 314.711 86.762 317.233C85.5493 319.405 83.7597 321.347 82.588 323.551C81.4768 325.643 81.3288 328.055 80.0305 330.149C78.5452 332.542 76.0901 334.264 74.615 336.642C73.8882 337.816 73.1372 339.156 72.1097 340.405C68.4718 344.832 64.8599 349.008 61.9339 353.75C61.1857 354.964 57.531 360.263 56.0764 360.55C53.0359 361.147 56.5752 356.825 57.1699 355.931C61.4779 349.465 65.3038 342.659 69.462 336.093C73.4899 329.736 77.6118 323.428 81.4879 316.975C84.6494 311.714 86.8355 304.161 91.9737 300.455C91.9932 301.715 91.9513 302.972 91.8462 304.226ZM232.32 244.807C234.823 255.095 237.816 265.064 240.637 275.26C243.255 284.72 246.738 294.844 247.823 304.597C248.898 314.258 251.368 324.033 254.69 333.203C256.225 337.446 257.805 341.705 259.471 345.899C260.387 348.203 261.411 350.455 262.45 352.705C263.257 354.453 265.389 357.284 265.471 359.136C265.537 360.619 266.052 360.027 264.588 361.141C263.072 362.296 260.446 361.877 258.68 362.08C254.075 362.613 249.585 364.345 245.096 365.467C236.438 367.631 226.118 369.348 217.246 367.843C213.514 367.209 209.638 366.66 205.947 365.835C201.407 364.819 200.473 362.94 199.542 358.477C197.504 348.721 195.748 338.99 194.066 329.168C192.065 317.486 189.899 305.817 188.355 294.062C186.796 282.17 185.675 270.266 183.231 258.503C193.09 260.152 202.374 262.014 212.261 259.313C221.017 256.921 227.338 252.245 232.32 244.807ZM270.912 372.173C273.116 376.716 267.804 380.8 265.229 384.299C261.834 388.91 258.664 393.729 254.715 397.9C253.53 393.16 252.491 387.826 249.33 383.933C245.293 378.961 240.581 380.993 235.635 378.641C240.822 376.118 247.445 377.081 252.947 374.831C258.374 372.612 263.854 370.87 268.904 367.987C269.575 369.382 270.237 370.78 270.912 372.173ZM251.677 478.156C248.362 478.34 250.58 471.349 250.795 469.612C251.387 464.837 251.985 460.062 252.504 455.278C255.239 462.491 257.973 469.703 260.706 476.914C257.701 477.343 254.716 477.987 251.677 478.156ZM246.285 512.729C246.737 513.734 248.846 517.084 247.181 517.702C244.899 518.548 244.625 513 246.285 512.729ZM242.33 435.033C231.77 443.464 221.283 451.917 209.857 459.175C207.354 460.766 204.833 461.431 203.173 458.277C201.869 455.798 203.247 453.004 204.083 450.577C206.216 444.388 209.933 439.008 214.051 433.971C222.276 423.912 232.065 415.321 244.557 411.355C246.6 410.706 249.755 408.748 250.471 411.452C250.893 413.042 249.109 417.013 248.747 418.506C247.255 424.67 247.58 430.843 242.33 435.033ZM272.728 496.521C272.96 503.68 253.39 497.906 250.951 496.626C253.51 495.768 272.623 493.302 272.728 496.521ZM279.995 496.566C281.158 496.876 285.617 497.269 283.951 498.793C282.461 500.157 275.709 499.61 273.919 499.778C275.121 495.828 276.034 495.511 279.995 496.566ZM276.369 486.976C275.932 488.569 275.754 490.999 274.327 492.09C272.548 493.45 268.769 492.624 266.756 492.635C263.336 492.653 259.921 492.828 256.518 493.168C255.216 493.297 249.943 494.886 248.723 493.802C247.827 493.006 248.161 489.27 248.814 488.43C250.154 486.704 253.24 487.302 255.174 487.233C262.25 486.98 269.289 486.959 276.369 486.976ZM271.826 460.513C270.827 459.029 270.649 459.045 270.222 456.803C269.767 454.403 268.609 452.35 267.927 450.031C266.429 444.928 271.217 445.382 274.73 447.253C283.841 452.107 281.642 469.068 279.388 477.009C276.113 474.601 274.904 473.509 273.777 469.623C273.348 468.146 272.868 466.696 272.422 465.227C272.095 464.146 272.323 461.253 271.826 460.513ZM272.615 377.961C275.159 377.654 277.486 385.547 276.759 387.255C275.272 390.749 269.589 393.87 266.694 396.1C264.767 397.585 262.853 399.287 260.793 400.582C258.88 401.783 257.78 401.109 256.002 401.686C253.429 402.519 252.805 405.242 250.171 406.412C246.465 408.059 241.974 408.52 238.104 410.007C233.407 411.811 229.103 411.86 224.179 411.005C217.098 409.776 208.797 406.262 209.436 397.658C210.561 382.476 240.711 374.697 248.934 387.57C251.074 390.92 251.041 394.826 252.43 398.425C253.935 402.32 255.394 400.789 257.658 397.92C260.619 394.167 263.37 390.212 266.215 386.369C267.135 385.127 270.779 378.184 272.615 377.961ZM87.8415 525.778C87.6973 528.36 87.8518 530.979 86.9537 533.443C86.0491 535.927 84.2148 537.936 83.1585 540.351C81.017 545.244 81.0329 551.165 81.1185 556.408C81.3176 568.608 84.2064 580.457 85.7345 592.511C80.6485 592.499 75.3912 592.556 70.4615 591.102C66.0586 589.803 65.3559 586.585 64.1107 582.53C60.6142 571.141 56.8376 559.801 55.7087 547.874C55.1718 542.19 54.9456 536.46 54.6888 530.758C54.4645 525.756 55.5878 523.574 60.1033 521.098C69.918 515.714 80.092 511.231 89.8062 505.592C88.8131 512.283 88.2194 519.026 87.8415 525.778ZM506.837 126.059C504.447 125.621 502.035 125.347 499.624 125.059C498.365 124.908 494.445 125.118 493.503 124.298C492.382 123.322 494.323 115.942 494.422 114.358C495.029 104.835 494.324 95.0169 493.45 85.5295C491.87 68.3543 486.468 52.4427 474.006 40.0754C467.803 33.9192 460.829 29.035 452.358 26.6781C447.422 25.3047 442.336 24.5724 437.39 23.2408C433.4 22.1651 429.676 20.9341 425.531 20.5079C417.264 19.6574 409.706 16.5337 401.639 14.7267C395.703 13.397 386.156 10.2436 382.308 16.946C379.279 13.3933 376.232 10.7256 372.411 8.07549C368.752 5.53708 368.154 3.00146 363.672 5.93254C354.966 11.6281 346.812 18.5762 338.68 25.0562C331.085 31.1082 323.736 37.4458 315.776 43.0112C307.658 48.6882 309.197 58.3217 313.015 66.3082C320.198 81.3404 331.276 94.1916 340.974 107.077C347.048 115.149 353.142 123.232 359.192 131.32C364.976 139.05 369.979 147.997 376.737 154.942C380.998 159.32 386.085 153.595 389.93 150.949C394.703 147.664 399.393 144.256 404.172 140.98C414.123 134.156 424.772 127.764 435.278 121.824C436.042 123.99 436.806 126.156 437.57 128.322C435.263 128.495 432.146 127.98 430.972 130.461C429.294 134.004 433.41 134.469 434.132 136.501C434.776 138.315 432.133 143.107 431.352 144.742C429.594 148.426 427.139 151.602 424.434 154.634C413.735 166.635 400.195 175.219 386.458 183.401C371.757 192.155 356.001 197.5 339.907 203.141C331.723 206.009 323.229 207.342 314.784 209.178C306.646 210.948 298.516 213.273 290.201 213.941C273.188 215.306 255.135 216.329 238.329 212.66C236.489 212.259 234.542 211.389 232.67 211.224C231.17 211.091 230.059 211.72 228.642 211.801C225.601 211.975 223.858 209.255 221.442 211.782C220.233 213.046 220.212 215.168 218.527 212.809C216.384 209.808 221.862 209.228 223.891 208.373C230.726 205.494 236.22 199.698 240.562 193.84C244.902 187.986 245.526 181.734 242.883 174.88C240.242 168.029 234.235 163.385 229.725 157.821C227.543 155.127 225.536 152.277 223.14 149.762C221.862 148.418 219.801 147.132 219.721 145.778C219.628 144.203 220.571 143.421 220.007 141.507C219.861 141.009 219.235 140.726 219.102 140.179C218.892 139.307 219.218 138.559 219.108 137.709C218.855 135.761 218.091 134.537 217.009 132.94C216.335 131.943 215.35 129.946 214.423 129.199C212.798 127.889 210.582 128.423 208.93 127.095C206.316 124.995 205.397 120.569 203.084 118.02C199.828 114.432 199.134 118.057 195.685 116.914C192.736 115.935 192.77 111.497 190.387 109.996C187.03 107.882 184.203 111.772 181.222 112.638C177.3 113.778 178.807 109.353 175.311 108.95C172.154 108.586 167.782 114.989 166.208 117.263C164.604 115.394 162.85 112.209 159.964 113.35C156.934 114.548 156.396 120.124 154.182 122.113C153.41 122.805 153.573 123.315 152.624 123.634C151.398 124.044 149.765 122.265 148.18 122.807C144.983 123.902 145.373 128.168 145.366 130.932C141.594 130.381 138.963 130.1 137.701 134.165C136.465 138.144 135.996 136.388 132.019 137.68C128.59 138.794 128.111 142.05 127.545 145.234C127.195 147.214 127.519 148.023 128.051 149.828C128.723 152.102 128.723 152.073 127.628 154.244C125.719 158.031 125.605 162.204 125.3 166.372C124.976 170.819 124.198 174.868 125.461 179.212C126.243 181.9 126.303 185.558 128.936 187.063C129.98 187.66 131.754 187.333 132.642 187.925C134.339 189.054 133.823 190.774 134.952 192.424C135.799 193.659 137.164 193.778 138.113 194.779C139.144 195.868 139.205 197.196 139.793 198.526C141.531 202.464 143.166 204.369 137.5 204.594C134.004 204.732 130.275 205.781 126.793 205.459C122.684 205.08 121.663 202.784 120.355 199.287C113.764 181.665 110.222 162.565 101.542 145.807C99.6358 142.128 91.8127 127.097 88.506 138.049C85.7178 147.286 89.3762 158.559 90.7787 167.753C86.3776 163.787 84.7499 156.642 81.4079 151.799C78.9398 148.221 71.2107 139.434 66.6803 144.469C63.1093 148.438 64.0018 156.853 64.6607 161.597C65.7021 169.103 68.1004 176.336 69.8138 183.697C67.6565 180.876 66.5928 177.431 65.0963 174.254C63.2191 170.27 60.8767 166.49 58.2076 162.989C55.8753 159.93 53.2676 157.086 50.4403 154.478C48.2793 152.483 44.4087 148.117 41.3394 147.881C33.4409 147.275 35.9248 161.764 37.1282 165.906C39.6214 174.492 42.325 182.841 44.2607 191.599C48.0448 208.711 52.6283 225.428 55.4156 242.757C56.0326 246.6 56.7762 249.667 55.2565 253.36C53.9172 256.614 52.5278 260.506 50.0569 263.008C44.4636 268.674 39.8196 274.724 35.6391 281.551C31.1608 288.863 26.5513 296.259 22.8956 304.022C21.2149 307.593 19.8403 311.455 17.9083 314.891C16.1642 317.991 14.0674 320.441 12.8278 323.874C6.90417 340.276 2.51798 356.391 0.509625 373.759C-1.1395 388.018 0.397017 406.985 17.6132 410.322C25.522 411.855 32.6229 408.348 39.7545 405.453C47.1309 402.459 52.4645 397.593 58.4812 392.421C65.9571 385.995 73.7188 379.965 81.2739 373.646C88.8327 367.324 95.8145 360.312 103.332 353.922C110.758 347.608 117.476 340.903 123.897 333.572C130.267 326.299 135.442 318.242 141.609 310.867C141.586 320.415 140.169 329.876 139.771 339.41C139.407 348.153 139.399 356.886 139.752 365.624C140.104 374.356 137.797 382.669 137.779 391.383C137.759 399.883 137.422 408.334 137.236 416.824C137.152 420.634 136.406 424.907 137.829 428.581C138.892 431.325 142.232 432.183 145.082 432.923C149.485 434.066 162.735 431.865 164.702 436.57C165.776 439.137 164.694 443.811 164.778 446.648C164.918 451.323 165.089 455.997 165.249 460.671C165.415 465.498 165.576 470.326 165.751 475.152C165.908 479.404 166.735 484.143 166.222 488.353C165.784 491.962 163.68 491.49 160.345 491.675C155.312 491.953 150.277 492.177 145.242 492.396C137.855 492.72 130.146 492.572 123.065 493.444C120.091 493.81 116.841 493.654 113.704 494.251C109.769 494.999 106.135 495.189 102.144 495.387C98.9266 495.546 94.7908 495.312 92.2631 497.691C91.3864 498.516 91.19 499.5 90.5684 500.418C89.4041 502.138 90.0519 501.686 88.1412 502.073C80.6792 503.584 73.5923 505.29 66.295 507.833C62.6421 509.106 59.2527 510.815 55.5831 512.013C52.3668 513.063 50.0094 514.355 48.4198 517.512C45.5795 523.151 46.2989 531.309 46.5046 537.386C46.8284 546.867 48.9345 555.893 51.2062 565.062C53.5692 574.6 55.4221 584.395 60.0186 593.158C61.5291 596.038 63.1596 599.712 66.2447 601.213C70.2279 603.15 76.3535 601.976 80.7006 601.983C83.6182 601.988 91.4329 602.99 93.6135 600.544C95.7251 598.175 93.6004 591.494 93.3026 588.554C92.2575 578.252 90.3767 567.854 90.4018 557.482C92.7815 560.998 96.908 567.068 101.037 561.68C102.054 560.354 101.657 559.738 103.462 558.97C104.46 558.545 106.564 558.284 107.652 558.358C109.13 558.457 109.678 559.052 111.036 558.76C112.239 558.503 113.591 557.426 114.97 557.099C132.064 553.036 149.058 548.657 166.225 545.037C170.764 544.08 170.119 547.565 170.419 551.489C170.75 555.829 170.118 560.212 170.72 564.504C171.244 568.238 171.652 571.877 170.914 575.633C170.044 580.063 170.604 583.76 171.47 588.148C174.81 605.067 174.213 623.417 174.966 640.613C175.358 649.569 174.516 658.713 175.359 667.621C175.677 670.986 177.555 672.845 178.316 675.905C179.19 679.42 176.807 683.894 176.082 687.299C174.625 694.133 172.066 703.914 176.747 709.86C179.275 713.072 182.589 713.537 186.331 714.623C190.809 715.923 195.224 717.438 199.723 718.669C216.163 723.169 233.929 724.049 250.778 726.529C254.904 727.136 258.731 727.079 262.883 726.792C265.443 726.614 271.747 727.456 273.875 725.924C275.015 725.104 274.437 724.078 275.017 723.076C275.84 721.652 276.837 721.074 278.239 720.188C280.56 718.721 283.244 717.864 283.636 714.836C284.594 707.419 275.325 703.49 270.369 700.283C264.036 696.184 256.386 694.601 249.665 691.255C245.956 689.409 242.379 687.317 238.806 685.222C237.257 684.314 234.116 683.286 233.036 681.856C231.934 680.397 233.013 678.314 233.469 676.229C235.353 667.613 234.716 658.803 235.69 650.097C236.665 641.376 236.4 632.601 236.721 623.836C237.052 614.809 237.797 605.805 238.37 596.791C238.896 588.466 239.428 580.007 239.516 571.673C239.599 563.945 240.653 556.364 240.902 548.585C240.987 545.946 240.513 541.157 242.265 538.921C243.803 536.96 248.893 537.206 251.267 536.862C257.666 535.933 263.756 535.119 270.083 534.559C285.137 533.227 301.89 532.246 316.125 526.999C321.996 524.835 329.808 521.879 331.756 515.138C333.996 507.388 331.072 497.864 330.975 489.941C330.871 481.481 328.419 473.228 326.58 465.031C324.6 456.207 323.353 447.231 321.213 438.441C319.249 430.374 316.065 423.231 313.054 415.573C311.832 412.467 304.875 401.764 307.034 399.124C308.196 397.703 312.383 397.343 314.081 396.692C317.743 395.292 321.41 393.699 324.787 391.704C329.294 389.04 339.164 384.633 339.619 378.714C340.051 373.056 334.493 367.339 331.667 362.897C327.114 355.738 321.372 349.479 317.036 342.179C308.273 327.425 301.304 311.265 294.915 295.365C291.574 287.046 290.482 279.214 289.932 270.335C299.637 270.358 309.515 271.552 319.158 270.195C329.653 268.717 340.162 266.23 350.565 264.18C369.51 260.446 387.699 256.23 405.249 247.822C421.683 239.949 438.359 231.332 451.966 218.834C459.001 212.372 466.179 205.786 472.254 198.396C478.496 190.805 483.191 182.18 488.006 173.657C493.321 164.251 497.552 154.365 500.897 144.076C501.57 142.007 501.573 139.373 502.434 137.419C503.406 135.213 505.173 135.155 507.019 133.993C509.614 132.358 511.343 126.887 506.837 126.059Z" fill="black"/>
<path fill-rule="evenodd" clip-rule="evenodd" d="M280.89 20.7595C283.109 22.6654 292.671 29.3789 295.759 27.7465C299.57 25.7313 293.537 19.6609 291.913 18.1643C289.845 16.2603 282.459 10.5002 279.631 11.0349C273.978 12.1043 278.894 19.0441 280.89 20.7595Z" fill="black"/>
<path fill-rule="evenodd" clip-rule="evenodd" d="M285.613 89.6621C286.867 87.1951 290.201 86.2882 291.742 83.9008C293.597 81.0308 294.449 78.5194 293.765 75C289.018 76.598 283.617 81.4348 280.441 85.2172C277.786 88.3781 274.015 94.9833 280.943 95C280.883 94.0597 280.822 93.1185 280.761 92.1791C282.839 92.4811 284.67 91.5214 285.613 89.6621Z" fill="black"/>
<path fill-rule="evenodd" clip-rule="evenodd" d="M262.998 48.6177C266.058 49.4974 268.584 49.3728 271.711 49.4416C273.98 49.4922 277.081 50.7394 278.92 49.3336C277.288 48.3886 279.35 48.3364 278.946 47.4149C278.607 46.6467 277.963 46.8984 277.439 46.2765C275.571 44.0608 273.947 44.0878 270.985 43.627C268.689 43.2682 265.314 42.4408 263.109 43.5817C260.788 44.7828 259.89 47.7241 262.998 48.6177Z" fill="black"/>
<path fill-rule="evenodd" clip-rule="evenodd" d="M306.563 116.579C308.542 114.919 310.7 110.113 311.1 107.633C311.257 106.661 310.557 105.917 310.64 105.202C310.8 103.839 313.601 101.205 310.667 100.087C308.101 99.1078 305.689 106.712 305.037 108.371C304.368 110.068 302.546 113.374 303.105 115.015C303.569 116.377 305.226 117.699 306.563 116.579Z" fill="black"/>
<path fill-rule="evenodd" clip-rule="evenodd" d="M330.241 13.6624C332.032 12.0003 333.166 10.1152 332.98 7.8295C332.833 6.029 331.485 -0.178605 329.967 0.00394321C324.928 0.612118 327.194 16.4929 330.241 13.6624Z" fill="black"/>
<path fill-rule="evenodd" clip-rule="evenodd" d="M223.865 291.197C223.45 289.679 221.943 280.399 219.336 281.031C217.356 281.511 219.413 289.678 219.505 290.753C219.698 293.001 215.377 292.927 213.369 292.623C210.184 292.142 210.44 290.276 209.963 287.381C209.784 286.287 209.095 281.342 206.813 283.153C205.271 284.377 206.373 290.474 206.501 291.865C206.946 296.684 207.469 304.912 210.334 309.287C211.476 311.032 212.503 311.894 213.703 309.656C214.917 307.391 212.169 300.488 211.688 298.172C213.955 298.393 220.481 297.658 221.847 300.013C223.094 302.162 221.099 308.303 225.1 308.801C227.473 309.097 227.043 306.348 226.815 304.234C226.336 299.798 225.034 295.481 223.865 291.197Z" fill="black"/>
<path fill-rule="evenodd" clip-rule="evenodd" d="M229.944 289.05C227.316 290.237 230.615 307.545 234.46 306.987C238.947 306.334 232.448 287.919 229.944 289.05Z" fill="black"/>
<path fill-rule="evenodd" clip-rule="evenodd" d="M227.015 283.319C226.691 287.216 231.755 288.668 231.995 284.433C232.179 281.166 227.356 279.222 227.015 283.319Z" fill="black"/>
<path fill-rule="evenodd" clip-rule="evenodd" d="M199.217 179.996C201.529 188.612 222.573 192.277 219.738 180.657C218.318 174.839 212.388 180.008 208.248 179.331C205.569 178.893 197.589 173.92 199.217 179.996Z" fill="black"/>
<path fill-rule="evenodd" clip-rule="evenodd" d="M193.932 164.627C194.922 160.017 184.837 154.928 181.177 156.197C175.824 158.055 175.847 169.93 179.931 173.087C180.468 173.502 182.115 174.493 182.922 173.703C184.195 172.454 182.804 172.795 182.507 171.548C182.035 169.565 180.493 167.019 182.029 164.762C184.933 160.5 192.515 171.233 193.932 164.627Z" fill="black"/>
<path fill-rule="evenodd" clip-rule="evenodd" d="M163.181 187.005C159.545 186.801 156.563 192.445 161.913 191.972C162.938 191.881 165.139 191.623 165.733 190.547C166.717 188.764 164.78 187.095 163.181 187.005Z" fill="black"/>
<path fill-rule="evenodd" clip-rule="evenodd" d="M339.581 52.4624C338.336 50.6622 335.727 47.765 333.482 49.5707C331.492 51.172 331.839 55.1242 332.603 57.0881C334.657 62.3753 339.509 67.0854 345 64.0392C343.092 60.2179 342.018 55.9866 339.581 52.4624Z" fill="black"/>
</svg>
