<svg width="1024" height="768" viewBox="0 0 1024 768" fill="none" xmlns="http://www.w3.org/2000/svg">
<path fill-rule="evenodd" clip-rule="evenodd" d="M662 292C654.364 306.928 646.298 321.46 638.153 336.116C633.841 343.875 619.934 375.965 616.343 377.192C612.475 378.512 588.784 364.58 581.984 361.851C569.901 357 558.42 352.408 545.799 349.418C531.667 346.069 517.422 343.6 502.762 344.845C496.342 345.391 485.715 346.943 492.096 337.923C496.748 331.346 501.253 325.289 507.572 320.538C512.17 317.079 518.911 310.734 524.295 308.424C529.943 305.999 538.275 306.536 544.346 306.679C550.908 306.834 582.19 316.595 583.911 306.422C587.101 309.325 588.96 308.202 592.615 309.62C596.736 311.218 599.305 314.32 603.397 316.193C606.052 317.41 610.946 322.216 613.897 322.245C617.82 322.284 618.876 319.035 621.693 316.637C628.005 311.263 636.41 307.726 643.259 303.057C649.289 298.944 655.031 294.658 662 292ZM593.276 174C592.74 180.815 594.579 187.147 594.534 194.159C594.516 197.219 594.377 200.278 595.306 203.226C596.14 205.869 595.557 210.617 596 213.384C588.194 211.008 573.691 207.483 565.721 210.688C558.101 213.751 557.143 227.918 556.874 234.809C556.691 239.505 558.776 246.74 557.196 251.236C556.459 253.333 556.453 254.01 556.499 254.199L556.505 254.219C556.354 254.142 555.743 254.143 553.585 255.7C551.446 257.242 548.893 258.092 546.779 259.795C542.934 262.897 542.275 266.411 540.379 270.906C538.536 275.272 533.627 279.152 528.147 278.994C532.551 271.01 538.668 263.554 535.158 254.177C532.51 247.099 537.151 238.793 540.803 232.07C542.012 229.843 555.413 212.784 549.475 211.582C545.619 210.8 536.768 228.908 535.074 232.07C530.352 228.877 528.231 224.941 531.866 220.132C534.657 216.439 538.085 213.281 540.803 209.457C545.215 203.25 549.515 195.842 554.755 190.329C563.959 180.649 580.024 174.059 593.276 174ZM556.505 254.219C556.557 254.254 556.535 254.288 556.511 254.236L556.505 254.219ZM716.96 163.423C722.841 169.057 730.28 173.73 735.963 179.643C740.938 184.819 747.637 193.526 750 200.441C737.874 202.778 717.725 209.936 712.897 222.662C694.037 205.35 686.742 237.001 683 250.236C671.963 245.46 674.163 229.56 674.31 220.276C674.423 212.912 678.909 204.195 668.216 203.592C660.225 203.143 652.464 206.397 645.257 209.444C636.265 213.247 626.831 218.935 619.568 225.469L612 219.577C624.415 212.607 630.886 199.28 638.153 187.078C640.471 183.187 643.567 178.861 645.257 174.656C646.427 171.748 647.25 165.878 648.532 163.293C650.549 159.228 670.246 158.109 675.464 157.061C689.239 154.297 705.703 152.639 716.96 163.423Z" fill="#5433FF"/>
<path fill-rule="evenodd" clip-rule="evenodd" d="M713.821 253.754C718.909 253.494 723.975 254.63 729.063 254.135C724.645 250.287 720.228 246.44 715.81 242.593C713.859 246.02 713.716 249.919 713.821 253.754ZM593.104 174.656C579.934 174.714 563.869 181.329 554.72 190.99C549.873 196.11 545.867 202.986 541.767 208.738C539.018 212.598 536.333 216.323 532.995 219.714C528.128 224.658 529.522 225.788 535.005 229.51C536.741 226.258 545.943 208.87 549.8 209.652C555.66 210.842 544.342 229.208 543.106 231.496C539.445 238.266 533.532 247.722 536.189 254.862C539.694 264.286 534.611 269.658 530.198 277.689C534.833 277.823 535.289 276.016 536.887 272.063C538.938 266.983 541.176 262.739 545.514 259.227C548.873 256.507 554.368 255.362 555.946 252.078C557.898 248.019 556.673 240.004 556.831 235.488C557.071 228.626 557.089 212.405 564.65 209.357C572.572 206.163 586.816 209.173 594.56 211.539C593.593 205.492 590.543 201.543 590.585 194.823C590.63 187.789 592.567 181.514 593.104 174.656ZM491.928 286.872C498.817 284.691 505.348 282.393 512.436 280.907C519.853 279.351 520.349 277.571 524.53 271.21C527.7 266.388 531.545 262.63 530.647 256.725C530.071 252.937 527.998 251.092 528.621 246.832C529.008 244.192 530.24 241.31 531.13 238.799C532.222 235.719 534.485 232.226 529.224 232.073C526.319 231.989 526.177 233.522 524.211 236.095C520.583 240.848 516.407 245.164 512.546 249.722C505.841 257.637 498.73 266.06 491.245 273.386C483.005 281.446 475.893 291.169 470.567 301.489C469.583 303.395 463.602 314.62 466.154 316.821C468.497 318.843 481.53 314.128 483.906 313.577C494.164 311.196 505.807 310.346 515.498 306.021C520.436 303.817 531.332 301.187 535.232 297.778C538.857 294.609 538.694 286.931 536.59 282.464C530.702 286.127 488.132 299.948 491.928 286.872ZM620.089 223.876C626.963 217.667 635.088 212.686 643.576 208.995C651.168 205.694 660.599 202.014 669.046 202.587C679.569 203.3 675.171 211.777 675.134 218.995C675.085 228.574 670.887 242.372 682.324 247.341C686.058 234.079 693.926 202.717 712.778 220.095C717.596 207.343 734.779 203.027 746.879 200.685C744.686 194.242 738.024 188.41 733.407 183.574C727.631 177.525 723.071 170.434 717.284 164.5C705.853 152.779 685.143 156.543 670.67 159.465C665.84 160.439 651.835 161.663 649.495 165.211C648.027 167.436 648.847 172.872 647.759 175.593C646.26 179.341 643.699 182.816 641.644 186.278C634.148 198.911 626.521 211.626 613.692 218.86L620.089 223.876ZM662.041 291.934C655.253 294.538 650.26 298.893 644.24 302.56C636.941 307.007 628.381 311.172 621.83 316.664C619.433 318.673 618.087 322.143 614.778 322.368C611.9 322.564 607.515 319.221 604.963 318.052C600.683 316.087 596.595 313.11 592.294 311.359C588.759 309.92 587.194 310.214 584.136 307.415C582.42 317.626 551.211 308.082 544.664 307.926C538.607 307.782 530.297 308.5 524.66 310.934C519.289 313.253 515.089 318.359 510.491 321.837C504.19 326.607 498.176 331.43 493.535 338.033C487.169 347.086 496.773 344.524 503.178 343.977C517.798 342.727 532.02 346.209 546.114 349.57C558.711 352.573 571.153 356.176 583.213 361.046C589.995 363.786 597.133 366.304 603.512 369.864C606.875 371.742 612.329 376.338 616.188 375.013C619.726 373.799 623.253 363.655 625.398 359.603C629.565 351.738 633.948 344.006 638.25 336.218C646.376 321.507 654.424 306.919 662.041 291.934ZM578.518 486.636C582.701 484.234 589.52 484.881 594.145 483.874C599.372 482.736 604.627 480.883 609.611 478.951C614.658 476.995 619.427 474.994 624.039 472.546C626.148 471.427 628.959 470.325 630.908 468.772C632.479 467.52 633.051 465.194 634.5 464.059C638.278 461.096 639.388 462.955 639.895 457.239C640.445 451.03 636.961 447.514 632.625 442.867C628.742 438.709 623.699 435.115 618.821 432.189C616.663 430.896 614.358 429.44 612.156 428.205C608.824 426.335 604.359 423.226 602.611 427.24C606.252 428.169 607.055 432.819 603.768 434.49C601.964 435.408 599.232 434.06 597.197 435.035C594.056 436.541 591.034 440.744 588.345 443.007C579.519 450.438 571.078 453.224 559.525 453.821C535.386 455.065 510.108 452.312 486.433 448.734C480.34 447.813 474.257 448.811 468.107 448.591C462.123 448.377 455.884 447.069 450.002 446.058C438.672 444.112 426.73 442.51 415.576 439.647C402.087 436.183 388.551 431.703 375.886 425.901C363.738 420.334 350.007 411.137 336.362 410.428C342.185 416.129 350.91 418.325 357.914 422.081C363.638 425.148 372.59 427.118 376.207 432.173C378.561 435.463 379.742 441.506 381.521 445.364C383.487 449.633 385.302 453.97 387.123 458.304C388.952 462.664 390.857 467.026 392.342 471.516C393.262 474.302 393.658 480.078 395.83 481.983C399.295 485.023 410.891 486.372 415.561 487.383C424.279 489.272 434.223 489.021 443.115 489.152C446.79 489.206 450.494 489.707 454.005 489.775C458.936 489.869 458.466 489.016 458.396 484.735C458.355 482.164 458.407 477.489 461.845 479.606C464.188 481.049 462.576 487.439 462.142 489.71C481.77 491.665 502.249 492.648 521.784 491.994C540.995 491.35 559.541 488.873 578.518 486.636ZM667.159 441.58C670.623 416.71 674.843 391.425 679.567 366.877C684.341 342.071 690.081 317.49 696.537 292.777C692.273 291.756 688.008 290.738 683.743 289.718C683.585 294.926 681.824 299.449 681.073 304.632C680.037 311.786 678.056 318.733 676.871 325.864C674.618 339.418 670.444 352.681 666.767 365.899C663.019 379.374 661.766 393.257 658.323 406.8C655.485 417.957 654.035 430.247 652.45 441.717C648.605 469.544 643.127 497.425 638.958 525.266C635.048 551.368 634.656 578 634.881 604.346C635.019 620.431 637.473 636.47 637.345 652.576C637.313 656.558 637.648 660.527 637.855 664.502C638.001 667.306 636.494 675.081 637.772 677.43C638.581 678.917 642.056 680.289 643.286 682.354C645.231 685.622 645.641 689.528 648.766 692C651.299 681.784 650.102 668.299 649.549 657.873C649.013 647.827 650.053 637.444 650.258 627.244C650.658 607.234 651.718 587.517 652.744 567.497C653.869 545.542 657.067 523.053 660.191 501.263C663.032 481.45 664.927 461.286 667.159 441.58ZM574.459 129.69C573.086 129.562 571.713 129.435 570.339 129.307C570.544 132.201 569.933 136.888 571.973 138.397C573.519 139.541 576.649 139.166 578.523 139.531C584.665 140.732 591.783 141.736 597.88 139.549C600.25 138.699 598.728 137.368 601.99 137.921C605.92 138.589 604.485 139.211 605.62 141.662C606.494 143.554 606.944 146.774 607.936 149.045C609.264 152.085 611.956 157.525 610.805 161.035C609.687 164.447 605.514 165.478 603.741 169.342C602.422 172.215 602.733 176.391 602.048 179.555C601.134 183.775 599.978 187.979 599.467 192.277C598.825 197.692 599.045 204.045 605.754 204.885C611.981 205.666 616.433 203.665 620.608 199.13C628.583 190.473 637.688 178.253 642.373 167.363C642.92 166.091 644.267 163.968 644.079 162.606C643.708 159.912 643.546 162.639 642.692 160.768C641.877 158.979 640.598 157.356 639.846 155.371C637.141 148.24 635.223 140.765 634.139 133.216C633.647 129.796 633.482 126.418 633.567 122.965C633.594 121.786 634.302 118.245 633.88 117.438C633.45 116.62 631.206 116.243 630.507 115.431C629.21 113.926 626.983 109.677 625.547 108.55C623.78 107.166 619.827 108.262 619.109 105.509C617.961 101.103 645.133 93.926 632.439 88.0464C622.961 83.6564 608.424 105.848 605.11 88.3858C604.536 85.3611 605.63 81.2553 604.303 78.4833C602.837 75.4196 598.845 74.2744 596.057 72.7834C592.499 70.8826 588.905 68.929 585.447 66.8472C583.075 65.4203 579.658 61.6313 577.134 61.2843C578.128 66.4273 576.223 71.525 576.191 76.6579C581.659 75.1783 585.422 75.1468 590.819 77.778C593.389 79.0302 603.073 86.1368 598.167 89.555C594.192 87.2054 589.94 85.1675 585.509 83.7859C583.761 83.2403 581.579 82.4986 579.72 82.4609C575.405 82.3742 576.013 82.8255 574.393 86.079C572.831 89.213 573.167 97.3869 569.738 99.3883C566.193 101.458 568.927 98.5611 565.9 99.2299C564.173 99.6121 562.292 100.896 560.711 101.621C562.877 103.972 567.248 106.118 568.684 108.729C570.78 112.536 570.053 120.409 570.381 124.574C573.124 123.592 576.011 123.552 578.792 122.823C581.405 122.136 585.03 119.166 585.303 123.533C585.607 128.399 577.914 129.69 574.459 129.69ZM610.16 257.816C610.373 253.611 610.607 249.407 611.075 245.219C611.391 242.407 614.061 234.251 612.552 231.781C610.91 229.094 605.41 228.923 602.762 228.278C597.688 227.041 592.821 226.028 587.663 225.211C582.919 224.46 578.45 224.302 573.67 224.084C568.464 223.849 567.174 222.468 566.023 228.204C565.119 232.715 563.905 237.413 563.737 242.031C563.578 246.366 564.888 250.129 560.592 253.05C570.025 253.05 582.311 244.651 590.919 252.161C603.233 262.901 581.804 265.995 576.153 268.366C580.851 270.649 587.824 272.442 590.035 277.656C592.516 283.501 588.916 285.986 583.406 286.454C583.924 288.706 585.908 290.17 586.499 292.879C587.364 296.85 584.557 295.535 588.139 298.608C592.855 302.652 602.564 305.356 608.347 307.932C609.702 308.538 611.073 309.106 612.459 309.638C614.626 311.566 616.225 311.199 617.259 308.535C620.226 306.657 622.867 302.467 625.499 300.03C631.354 294.606 637.817 289.847 644.776 285.931C641.891 284.736 638.441 287.436 635.673 286.122C633.436 285.06 634.278 283.127 632.939 281.68C633.476 279.793 632.909 279.103 631.237 279.61C630.402 279.699 629.625 279.557 628.906 279.186C627.506 277.451 626.877 276.883 626.784 274.204C626.686 271.362 628.332 270.358 628.964 268.083C631.017 266.684 630.971 265.309 628.824 263.961C627.941 262.518 627.46 260.953 627.38 259.264C626.972 252.995 632.694 250.468 637.058 247.152C629.244 246.293 629.542 237.128 634.949 233.122C640.553 228.968 652.418 230.669 659.195 231.606C660.604 231.799 664.411 233.617 665.836 232.458C666.71 231.748 666.093 225.742 666.133 224.683C666.225 222.277 666.809 219.408 666.426 217.014C665.624 212.002 667.324 214.526 663.716 214.387C655.129 214.054 644.194 221.55 636.639 225.084C628.183 229.04 622.749 229.648 622.661 239.457C622.576 248.744 619.972 257.998 618.835 267.138C618.338 271.129 617.983 291.866 610.678 284.213C607.846 281.245 609.66 276.681 609.87 273.02C610.157 267.982 609.987 262.867 610.16 257.816ZM137.767 568.71C141.948 569.452 148.756 567.052 153.317 566.8C161.291 566.362 169.503 565.602 177.316 563.943C183.428 562.644 190.393 561.501 193.689 555.585C196.636 550.298 197.677 543.676 199.264 537.906C200.107 534.842 202.281 530.4 202.281 527.23C202.281 523.11 201.725 523.922 197.428 521.666C191.989 518.813 186.697 514.836 180.83 513.217C179.055 512.87 177.279 512.531 175.502 512.198C173.203 510.864 171.906 511.52 171.605 514.162C169.361 516.528 168.046 520.889 166.163 523.656C161.871 529.965 156.774 534.264 150.115 537.902C138.132 544.447 126.967 549.498 114.133 553.778C107.06 556.136 100.538 559.445 93.6246 562.045C88.086 564.128 80.4421 564.761 76.1876 569.398C71.3872 574.629 78.7657 576.531 82.8668 580.067C86.2272 582.965 86.2926 583.63 90.8892 582.223C94.3137 581.175 97.3496 579.171 100.638 577.812C111.903 573.159 125.537 570.063 137.767 568.71ZM395.21 651.681C391.012 650.772 386.813 649.865 382.615 648.958C386.743 656.666 395.427 667.944 389.195 676.864C386.865 680.197 382.991 681.148 379.53 682.838C375.341 684.885 371.473 687.506 367.513 689.945C351.183 700 334.587 710.196 317.38 718.824C322.767 720.563 331.049 721.766 336.597 720.251C343.057 718.486 349.039 714.435 355.671 712.664C367.57 709.489 380.094 706.784 392.183 705.155C402.064 703.824 426.798 706.832 425.597 691.971C424.456 677.863 416.029 664.402 413.521 650.454C407.367 651.821 401.497 651.582 395.21 651.681ZM645.449 425.861C650.234 402.375 653.093 378.49 658.737 355.173C661.553 343.541 663.537 331.749 666.288 320.114C667.568 314.7 668.535 309.234 669.781 303.831C671.044 298.361 673.76 293.313 674.382 287.658C669.809 288.789 668.751 299.263 667.365 303.203C664.822 310.431 662.049 317.377 658.782 324.297C653.588 335.297 648.077 345.91 642.218 356.575C636.04 367.823 629.515 378.641 621.797 388.913C619.261 392.289 615.82 394.934 614.185 398.636C611.615 404.46 610.534 411.402 608.08 417.463C609.809 418.341 614.275 418.559 616.395 418.978C620.339 419.756 623.102 420.448 626.89 422.323C633.563 425.627 639.169 429.543 643.628 435.487C644.748 432.436 645.04 429.09 645.449 425.861ZM459.452 605.053C459.373 582.434 459.052 559.622 459.423 537.171C459.525 530.937 460.033 524.211 460.937 518.024C461.504 514.136 464.845 505.87 462.649 504.006C460.772 502.412 450.867 503.462 448.436 503.405C443.722 503.296 439.022 503.086 434.298 502.731C434.298 511.114 437.573 520.633 439.095 528.925C440.513 536.66 441.679 544.438 442.85 552.209C445.384 569.036 446.105 586.095 448.856 602.967C451.349 618.265 454.638 633.499 456.451 648.795C457.446 657.191 459.459 665.113 461.024 673.504C461.841 677.88 464.821 695.903 468.574 697.675C469.367 691.21 466.126 683.403 465.545 676.866C464.947 670.116 464.482 663.321 463.388 656.536C462.103 648.571 461.454 640.409 460.961 632.345C460.661 627.411 460.569 622.492 460.142 617.561C459.834 613.983 458.48 608.561 459.452 605.053ZM577.327 302.592C577.483 300.129 571.108 300.228 569.921 297.397C567.512 291.648 573.002 292.683 576.377 292.088C575.174 288.891 552.638 290.055 557.889 281.425C561.531 275.437 575.342 284.602 579.033 278.912C581.459 275.175 574.857 274.66 572.238 274.286C568.298 273.721 559.016 275.545 559.321 270.433C559.706 264.009 577.752 259.575 582.814 257.688C582.253 253.289 560.534 259.542 557.391 261.325C550.277 265.361 544.826 272.602 543.782 280.651C542.566 290.015 547.315 297.39 556.668 299.688C560.568 300.646 563.45 300.752 567.058 302.193C569.433 303.14 577.117 305.502 578.744 303.112C578.271 302.939 577.8 302.765 577.327 302.592ZM704.828 244.347C705.187 240.348 708.554 232.82 704.675 230.193C699.247 226.516 696.999 232.575 695.769 236.214C694.265 240.658 687.943 251.537 693.471 254.306C694.756 254.95 700.851 254.2 701.926 253.776C704.921 254.556 705.886 253.435 704.828 250.409V244.347ZM572.369 567.283C572.028 556.353 576.922 543.214 579.695 532.509C582.839 520.38 584.495 508.01 587.826 496.014C584.121 496.461 580.382 496.825 576.721 497.568C571.727 498.583 571.637 498.423 571.996 503.322C572.531 510.679 571.83 517.892 571.45 525.247C570.689 539.972 572.543 554.939 571.31 569.571C572.409 569.85 572.762 569.087 572.369 567.283ZM710.645 280.842C722.644 282.678 734.144 286.483 745.063 291.594C751.082 294.411 757.711 297.439 764.437 298.564C771.909 299.815 779.834 299.228 787.465 299.71C790.155 299.88 797.227 301.187 799.85 299.605C802.448 298.037 802.245 295.381 802.367 292.214C802.682 284.069 798.995 276.094 795.68 268.786C792.836 262.516 790.686 257.729 786.273 252.336C780.606 245.409 775.671 237.934 770.364 230.704C766.362 225.255 762.319 219.883 758.24 214.44C755.323 210.542 755.461 209.201 751.063 209.637C746.733 210.067 742.373 212.627 738.294 213.983C732.24 215.997 724.909 217.102 719.388 220.322C715.819 222.404 715.659 222.787 715.701 226.42C715.74 229.804 716.832 233.932 718.855 236.579C723.061 242.075 730.032 244.984 736.014 247.726C739.475 249.311 742.466 251.56 745.547 253.748C748.866 256.106 755.563 257.495 758.103 260.183C765.498 268.011 752.036 266.464 748.275 266.228C740.158 265.717 732.085 265.795 723.908 265.789C714.983 265.783 706.129 265.368 697.33 265.658C692.176 265.828 686.262 263.214 682.923 258.857C681.307 256.746 680.677 254.751 678.563 252.561C675.793 249.694 673.383 246.673 670.013 244.454C664.498 240.823 654.477 238.769 647.912 240.124C650.263 240.452 661.319 244.216 656.452 248.947C655.859 249.523 648.747 249.9 647.202 250.61C644.412 251.891 640.896 253.753 639.26 256.458C644.024 255.66 661.692 254.736 652.679 263.877C650.467 266.121 644.114 268.36 649.52 270.746C650.761 271.294 653.246 270.518 654.844 271.012C657.22 271.748 659.162 273.715 661.388 274.764C667.701 277.742 676.403 279.578 682.991 278.926C692.102 278.022 701.595 279.649 710.645 280.842ZM469.045 556.267C469.356 569.398 468.882 582.606 469.162 595.798C469.461 609.885 471.269 623.691 472.13 637.637C472.904 650.135 474.591 662.396 475.962 674.835C476.751 682 477.66 688.851 478.872 695.962C480.008 702.616 480.202 708.479 472.247 710.268C457.039 713.69 454.675 691.811 451.736 682.592C447.349 668.834 444.535 654.39 442.361 640.128C438.314 613.566 432.932 587.373 430.832 560.586C429.539 544.091 427.664 527.765 426.6 511.285C426.391 508.055 427.215 503.079 424.379 501.641C422.673 500.778 417.975 500.77 415.822 500.144C409.823 498.399 404.29 495.83 398.437 493.163C402.591 514.884 403.963 536.497 407.079 558.408C408.732 570.034 411.896 582.081 414.638 593.525C417.479 605.382 418.11 618.15 421.387 629.749C422.831 634.862 424.054 636.945 421.958 642.192C419.388 648.634 421.093 650.175 424.316 656.501C430.245 668.14 434.771 681.875 433.766 694.996C432.946 705.712 424.85 711.321 414.82 714.213C402.274 717.828 389.137 717.401 376.515 721.507C365.519 725.083 354.346 727.726 343.667 732.448C339.361 734.351 335.27 736.61 330.489 736.96C323.931 737.436 319.509 733.631 313.316 732.837C309.445 732.343 303.777 734.19 301.547 730.132C299.779 726.915 301.779 719.895 303.999 717.305C310.233 710.028 322.718 703.687 331.125 699.392C340.815 694.443 350.191 688.248 359.169 681.86C364.611 677.987 370.16 674.271 375.598 670.391C379.195 667.823 380.562 667.807 380.195 663.727C379.902 660.474 378.436 657.318 378.179 653.987C377.983 651.435 378.877 647.956 377.671 646.291C376.784 645.062 373.454 644.196 372.145 643.266C367.357 639.872 366.269 635.673 364.095 630.51C359.156 618.783 353.482 607.386 348.713 595.565C338.473 570.185 332.225 543.497 323.736 517.598C315.064 491.139 307.309 463.363 302.533 435.912C296.142 437.856 290.11 446.463 285.02 450.721C278.144 456.476 271.098 462.041 264.355 467.954C253.302 477.646 242.11 487.072 232.976 498.68C228.576 504.27 224.972 510.287 220.988 516.16C218.687 519.553 216.541 523.394 214.049 526.622C213.649 527.14 213.637 528.204 213.206 528.645C212.257 529.614 210.444 528.323 209.836 528.962C206.08 532.889 206.129 544.04 204.959 549.222C203.346 556.364 201.535 564.575 195.959 569.497C187.345 577.099 171.46 578.277 160.559 578.672C146.569 579.178 132.998 583.077 119.725 587.264C113.534 589.216 107.505 591.501 101.291 593.396C97.7169 594.489 93.6397 596.665 89.8228 596.246C85.2198 595.742 81.5853 591.869 78.2136 588.99C72.8196 584.385 67.8256 579.846 67.9995 572.29C68.1941 564.292 72.5266 558.256 79.3517 554.283C92.5468 546.602 107.305 541.679 121.528 536.371C126.978 534.336 131.644 532.084 136.855 529.345C144.219 525.473 152.695 522.313 159.229 517.201C161.155 515.692 168.235 511.071 168.838 508.688C168.917 508.377 167.148 504.738 167.14 504.161C167.123 502.676 168.002 501.068 168.543 499.797C171.946 491.797 177.654 484.093 182.018 476.549C190.01 462.73 198.033 448.839 207.299 435.842C225.776 409.931 246.532 384.561 268.934 361.943C279.855 350.916 289.292 338.409 300.367 327.535C304.755 323.228 309.387 319.72 314.793 316.924C320.82 313.808 327.585 313.197 334.493 312.245C351.233 309.941 365.213 314.893 380.929 319.202C395.787 323.275 410.661 326.711 425.602 330.954C442.01 335.613 458.25 340.082 474.606 345.16C483.346 347.873 492.336 349.538 501.117 352.142C505.345 353.394 521.33 361.244 524.855 358.665C513.75 353.454 502.374 348.705 490.493 345.56C486.994 344.634 484.759 345.659 484.889 341.641C484.96 339.45 487.423 336.492 488.309 334.688C490.432 330.369 492.836 326.149 494.913 321.818C487.381 323.957 467.136 331.359 461.46 323.707C455.521 315.697 460.479 299.994 464.202 292.152C473.92 271.681 490.447 254.598 506.551 239.166C510.035 235.83 517.544 231.473 519.401 227.223C519.965 225.931 518.736 224.033 520.01 222.354C520.768 221.356 523.81 220.674 525.026 219.598C529.454 215.678 532.987 207.43 536.046 202.29C539.251 196.909 542.138 191.081 546.165 186.252C552.752 178.356 559.552 169.986 570.217 168.139C575.448 167.234 581.004 167.717 586.017 165.91C592.08 163.725 597.841 160.283 603.963 158.02C602.444 154.897 601.213 149.932 598.266 149.591C595.429 149.262 591.268 151.701 588.02 151.683C583.278 151.657 579.23 150.898 574.653 149.995C569.587 148.993 567.918 149.175 566.072 143.68C564.136 137.924 564.624 131.238 564.64 125.259C564.647 122.337 565.227 118.711 564.978 115.843C564.605 111.522 563.765 111.356 560.378 108.608C556.146 105.175 550.929 100.632 556.113 94.6665C558.914 91.4432 564.67 93.9499 567.151 90.4865C569.678 86.959 569.556 78.0974 570.326 73.9538C562.536 77.7831 565.392 63.468 565.391 60.0234C565.389 55.0112 562.03 45.9975 566.866 41.8275C569.113 39.8915 570.782 41.4931 573.351 40.3806C576.283 39.1108 578.129 35.7807 581.248 34.4896C587.447 31.9225 593.777 35.0138 600.141 34.5034C607.442 33.9188 614.613 32.7899 621.954 33.9616C625.432 34.5147 626.896 35.836 629.839 37.3169C632.669 38.7412 635.54 39.131 638.614 40.0474C641.349 40.8633 643.747 41.2756 645.595 43.6592C647.056 45.5449 646.461 48.7167 647.936 50.3422C649.391 51.9438 652.27 51.7112 654.004 53.6132C655.669 55.4386 656.665 58.4558 657.531 60.7274C658.7 63.7873 658.837 64.9363 660.896 67.3852C662.691 69.5224 665.275 71.2409 666.773 73.6785C670.302 79.4249 670.392 87.7346 669.266 94.1988C668.883 96.4001 665.693 102.09 666.192 103.963C666.667 105.746 669.659 105.277 671.014 106.404C672.185 107.379 673.215 111.72 674.138 111.985C676.132 112.557 678.592 108.618 680.104 108.027C682.73 107 683.829 105.947 685.284 109.818C686.362 112.69 684.86 116.589 684.069 119.33C683.063 122.82 681.951 127.023 679.285 129.662C676.151 132.764 673.642 131.068 670.184 132.739C665.001 135.243 666.53 143.073 660.153 145.31C654.076 147.443 647.38 140.734 642.784 137.651C643.736 145.137 647.32 152.35 645.6 160.023C659.577 154.547 673.401 146.775 688.633 145.063C696.4 144.189 704.247 143.154 711.578 146.379C720.161 150.153 725.419 158.478 731.228 165.395C742.145 178.395 753.347 191.03 763.825 204.449C773.436 216.758 781.539 231.02 792.118 242.545C802.845 254.233 810.94 273.196 809.765 289.38C809.66 290.841 808.528 294.16 808.705 295.735C808.843 296.942 809.94 298.472 809.923 299.445C809.863 302.72 808.78 304.606 805.659 306.422C800.247 309.574 792.184 311.169 786.068 311.951C777.942 312.991 767.991 313.103 759.861 311.993C751.477 310.846 744.107 306.153 736.397 303.317C729.633 300.828 722.841 299.274 715.734 297.686C711.814 296.81 707.474 294.385 705.051 296.732C702.827 298.889 702.365 309.957 701.847 312.9C696.224 344.799 689.542 375.617 683.624 407.353C676.917 443.325 672.33 479.283 667.666 515.56C663.426 548.537 662.041 581.886 661.092 614.832C660.64 630.548 660.574 646.095 660.67 661.824C660.724 670.632 665.127 700.032 652.07 701.157C644.397 701.821 638.259 690.82 636.203 684.821C633.114 675.807 631.505 666.101 631.012 656.632C630.016 637.463 628.71 618.28 627.936 599.104C627.099 578.328 628.164 557.169 629.872 536.462C631.591 515.616 635.922 495.074 637.25 474.197C633.265 479.884 631.99 480.953 625.352 483.429C618.406 486.023 611.724 489.09 604.715 491.508C602.331 492.33 598.61 492.845 596.655 494.191C593.048 496.676 595.418 493.857 594.266 498.692C593.036 503.858 592.804 510.059 592.477 515.367C590.942 540.277 584.041 565.01 580.858 589.788C580.09 595.771 581.186 621.168 570.89 613.164C562.961 607 563.118 587.639 561.99 578.57C560.488 566.481 561.325 554.052 561.562 541.89C561.833 528.039 562.066 513.511 565.371 499.987C559.457 498.975 551.232 501.732 545.28 502.196C540.126 502.597 534.99 502.852 529.865 503.134C517.644 503.805 505.055 504.34 492.627 504.1C490.364 504.056 475.584 501.987 473.695 503.655C473.081 504.197 472.893 511.649 472.779 512.56C472.344 515.984 471.754 519.405 471.314 522.81C469.91 533.696 468.643 545.385 469.045 556.267Z" fill="black"/>
<path fill-rule="evenodd" clip-rule="evenodd" d="M688.546 659.718C697.873 663.363 707.773 664.686 717.179 668.007C725.588 670.976 733.398 674.967 741.678 677.984C742.162 674.143 742.42 667.639 741.001 664.019C738.993 658.892 733.708 658.767 728.504 656.941C715.838 652.497 702.515 651.561 689.941 646.369C692.094 650.513 691.133 656 688.546 659.718ZM849.557 646.313C829.412 646.904 810.161 651.592 790.308 654.491C780.647 655.901 770.977 657.16 761.307 658.476C757.586 658.982 750.804 658.386 748.099 661.607C745.857 664.276 748.314 673.384 747.318 677.295C751.39 677.596 758.619 673.792 763.038 673.162C769.92 672.184 776.711 670.813 783.664 670.377C794.675 669.683 805.495 669.093 816.488 667.867C827.667 666.621 838.485 664.305 849.753 663.459C855.23 663.047 857.434 664.074 857.756 658.291C857.883 656.03 858.193 652.246 857.559 650.016C858.572 647.275 857.673 645.945 854.862 646.023C853.077 645.822 851.309 645.919 849.557 646.313ZM810.595 627.858C816.043 627.347 821.513 626.614 826.974 626.307C828.082 626.244 833.699 626.583 834.616 625.553C835.915 624.097 834.468 618.769 834.23 617.121C833.42 611.516 832.525 608.256 826.411 608.244C821.25 608.231 815.908 609.323 810.768 609.826C787.435 612.113 764.22 613.079 741.144 617.421C742.549 623.403 744.143 629.574 742.463 635.691C753.533 636.262 765.686 634.132 776.505 631.947C787.562 629.714 799.294 628.605 810.595 627.858ZM773.665 571.54C765.328 571.577 756.517 575.249 748.291 574.431C748.168 575.961 750.801 574.691 751.528 576.123C753.081 576.127 753.622 576.633 753.148 577.646C753.177 578.336 752.824 578.741 752.088 578.858C751.725 578.89 751.362 578.921 751.001 578.952C749.41 579.004 749.149 580.076 750.22 582.173C749.76 584.771 750.45 588.071 750.55 590.678C765.333 588.667 779.695 586.574 794.583 585.676C801.611 585.253 808.634 585.254 815.654 584.676C823.377 584.039 831.808 585.404 839.358 583.958C843.395 583.184 842.972 583.238 842.678 577.989C842.498 574.8 842.565 571.014 839.969 568.688C835.632 564.803 825.758 567.048 820.573 567.186C804.955 567.598 789.073 569.049 773.665 571.54ZM782.198 646.501C804.531 644.473 826.696 640.03 849.155 640.03C847.567 638.444 844.108 638.035 842.132 637.169C839.878 636.183 837.751 634.082 835.549 633.219C831.13 631.489 826.633 633.893 822.094 634.932C811.145 637.439 799.911 637.524 788.944 639.984C777.607 642.525 766.122 644.869 754.575 646.161C749.077 646.776 743.178 648.024 737.745 646.571C737.305 646.256 736.861 645.94 736.421 645.626C735.946 643.604 734.628 643.064 732.466 644.006C729.72 643.483 726.224 644.158 723.459 644.228C723.347 645.331 733.56 648.794 735.507 649.652C740.199 651.718 743.38 653.23 748.391 652.345C759.674 650.352 770.772 647.973 782.198 646.501ZM703.637 581.208C704.51 584.61 708.175 583.062 711.33 583.437C715.565 583.939 719.778 585.4 723.88 586.501C731.329 588.503 738.78 590.477 746.197 592.593C745.905 589.597 746.568 582.778 744.985 580.12C743.323 577.334 735.448 576.113 731.781 575.263C722.536 573.124 712.662 574.341 703.271 574.791C703.437 576.928 703.56 579.065 703.637 581.208ZM792.434 602.493C801.205 601.75 809.986 601.172 818.782 600.863C828.839 600.511 821.529 598.904 821.317 592.771C808.099 594.879 794.765 595.295 781.588 597.097C770.672 598.592 757.667 602.494 746.532 600.398C741.281 599.41 735.919 599.029 730.332 598.47C725.061 597.943 720.088 595.488 714.882 594.878C709.037 594.193 703.066 597.478 697.252 598.346C694.788 598.714 694.215 600.385 693.051 597.419C691.845 594.342 695.301 591.828 696.662 589.988C698.251 587.839 697.591 591.328 698.474 587.972C698.721 587.032 698.051 584.669 697.928 583.656C697.616 581.095 696.811 578.316 696.686 575.76C696.57 573.412 696.55 569.829 699.099 568.458C700.654 567.622 701.757 568.841 703.113 568.605C713.698 566.764 726.148 566.613 736.883 568.39C748.52 570.315 758.536 565.218 770.006 563.151C783.462 560.726 797.058 560.363 810.63 559.338C822.235 558.463 843.437 553.921 847.858 568.743C849.11 572.943 850.934 584.505 847.566 588.078C843.146 592.771 832.913 591.273 827.198 592.493C828.053 594.924 830.598 596.578 829.717 599.474C837.726 599.852 839.142 607.417 840.397 614.479C841.695 621.786 839.163 624.69 846.146 628.495C855.878 633.798 866.188 639.153 865.997 651.782C865.902 658.132 865.191 667.708 858.672 671.002C852.294 674.225 841.908 673.68 834.879 674.85C821.267 677.117 807.607 679.776 793.912 681.137C779.33 682.586 764.505 683.776 749.898 684.423C741.94 684.778 735.065 685.98 727.379 683.302C719.822 680.669 712.43 678.746 704.633 676.791C696.936 674.863 673.373 672.266 680.239 659.102C681.337 656.996 685.093 655.321 685.699 653.33C686.677 650.117 683.373 647.61 683.511 644.707C683.763 639.395 689.755 638.729 693.894 638.729C686.801 634.293 696.299 629.041 696.243 625.275C696.143 618.64 687.891 614.333 687.424 608.771C686.289 595.235 729.228 609.329 735.837 612.257C730.75 619.8 707.15 613.273 700.121 612.129C701.08 614.648 701.997 616.912 702.274 619.491C702.499 621.592 701.696 623.994 702.431 626.109C703.591 629.453 703.551 628.813 707.658 629.725C710.696 630.399 713.7 631.178 716.728 631.893C721.38 632.99 728.697 635.935 733.306 635.774C737.349 635.633 736.55 636.887 737.291 632.397C737.69 629.984 737.01 627.419 736.603 625.055C735.754 620.101 734.512 615.412 738.839 611.858C742.964 608.468 751.66 606.854 756.72 605.659C767.95 603.006 780.912 602.356 792.434 602.493Z" fill="black"/>
<path fill-rule="evenodd" clip-rule="evenodd" d="M845.875 517.936C833.678 515.892 821.286 515.389 808.946 516.008C809.614 519.062 810.283 522.115 810.953 525.167C822.514 522.19 834.242 520.445 845.875 517.936ZM746.698 541.624C741.807 541.266 745.21 543.453 746.418 546.655C747.902 550.588 747.584 555.561 747.925 559.701C762.236 554.244 778.887 551.05 794.103 549.213C801.319 548.343 808.64 548.093 815.896 547.721C818.041 547.611 825.787 548.509 827.356 547.066C828.521 545.993 827.704 540.073 826.584 538.766C820.494 531.667 796.952 537.797 788.435 538.433C774.47 539.476 760.76 541.971 746.698 541.624ZM767.024 522.6C779.696 523.817 791.932 523.701 804.605 525.6C803.644 517.545 804.792 515.489 795.654 515.061C787.511 514.681 779.394 514.373 771.288 514.377C753.062 514.387 734.878 514.039 716.631 514.039V522.225C733.507 520.497 750.115 523.618 767.024 522.6ZM706.089 552.703C714.086 552.669 721.645 555.686 729.643 556.468C734.43 556.936 732.926 557.53 736.247 559.934C741.419 563.678 742.909 561.683 742.26 556.596C740.063 539.386 718.274 543.245 705.718 542.289C706.543 546.393 704.646 549.873 701.852 552.703H706.089ZM792.531 530.608C781.028 530.794 769.512 531.448 758.089 531.209C752.976 531.102 746.352 530.089 741.341 530.961C737.67 531.599 734.6 533.469 730.574 534.164C736.488 537.349 739.486 535.197 745.704 534.472C751.916 533.749 758.22 533.763 764.458 533.385C774.701 532.765 785.62 530.311 795.712 530.979C795.896 529.557 794.837 529.433 792.531 530.608ZM701.295 567.88C696.017 567.868 703.279 561.866 704.232 561.271C698.389 561.271 696.974 557.766 698.667 552.136C700.262 546.833 701.442 548.456 697.429 544.04C694.408 540.715 693.951 538.265 697.512 534.547C701.136 530.765 708.476 531.835 711.687 528.713C717.154 523.399 710.099 512.816 717.674 508.745C722.795 505.995 731.049 506.335 736.702 505.754C742.166 505.192 747.822 505.084 753.323 505.009C765.313 504.845 777.768 506.856 789.705 507.963C794.058 508.365 798.95 510.124 803.238 510.127C807.611 510.132 812.191 509.157 816.706 509.269C821.955 509.402 827.011 509.015 832.424 509.876C836.571 510.537 846.254 510.884 849.424 513.967C859.986 524.241 834.939 528.959 830.629 530.113C835.015 534.918 834.833 541.27 834.172 547.319C836.26 547.319 839.859 546.41 840.939 548.752C842.282 551.659 837.314 552.415 836.139 552.754C829.381 554.706 821.472 554.171 814.508 554.88C800.585 556.297 786.83 557.114 773.052 559.752C766.337 561.037 759.662 562.628 752.952 563.879C751.794 564.096 750.629 564.269 749.459 564.4C747.663 564.247 747.083 565.373 747.716 567.786C745.853 568.696 738.909 566.429 736.762 566.082C724.47 564.088 713.473 564.916 701.295 567.88Z" fill="black"/>
<path fill-rule="evenodd" clip-rule="evenodd" d="M949.514 687.245C941.586 693.484 934.216 699.372 925.63 704.793C931.699 704.604 951.884 694.925 949.514 687.245ZM946.418 677.076C942.091 673.358 937.792 673.738 932.436 672.611C927.504 671.573 922.711 669.786 917.789 668.596C913.926 667.663 910.103 666.401 906.254 665.519C900.819 664.273 900.282 665.645 895.284 668.492C877.558 678.595 857.721 685.544 839.05 693.744C844.532 698.57 856.864 698.778 863.715 700.317C868.718 701.439 873.478 702.975 878.269 704.752C882.731 706.409 889.919 710.218 894.624 710.345C898.595 710.452 901.824 706.544 905.243 704.439C909.741 701.668 914.219 698.947 918.752 696.246C928.345 690.53 937.314 683.526 946.418 677.076ZM866.308 717.997C864.261 716.028 858.102 716.114 855.536 715.513C850.482 714.332 845.502 713.105 840.38 712.218C832.069 710.781 818.94 710.137 818.037 699.354C817.285 690.393 828.112 688.267 834.445 685.231C843.968 680.664 853.684 676.45 863.449 672.422C872.604 668.648 881.893 665.455 891.215 662.193C893.033 661.557 894.509 661.645 895.993 660.189C897.164 659.041 896.803 656.812 898.086 655.612C901.024 652.864 904.837 654.31 908.368 655.015C916.387 656.614 924.713 658.714 932.358 661.681C940.303 664.764 947.409 665.408 949.317 674.415C953.38 672.509 956.435 672.232 955.949 677.832C955.807 679.478 954.612 681.268 954.325 682.965C953.903 685.467 954.642 688.104 954.224 690.613C952.704 699.734 940.406 706.49 932.785 710.072C923.388 714.487 911.263 721.012 900.771 721.874C889.591 722.793 877.407 718.402 866.308 717.997Z" fill="black"/>
<path fill-rule="evenodd" clip-rule="evenodd" d="M724 566.677C720.667 566.698 717.332 566.719 714 566.74C717.326 566.115 720.661 566.108 724 566.677Z" fill="black"/>
<path fill-rule="evenodd" clip-rule="evenodd" d="M529 214C528 215.666 527.001 217.332 526 219C526.341 216.852 527.103 215.011 529 214Z" fill="black"/>
<path fill-rule="evenodd" clip-rule="evenodd" d="M724 614.473C726.004 614.491 728.007 614.508 730 614.527C727.992 614.511 725.997 614.492 724 614.473Z" fill="black"/>
<path fill-rule="evenodd" clip-rule="evenodd" d="M770 505.69C767.665 505.564 765.333 505.437 763 505.311C765.333 505.437 767.665 505.564 770 505.69Z" fill="black"/>
<path fill-rule="evenodd" clip-rule="evenodd" d="M730 566.726C727.999 566.707 725.998 566.689 724 566.67C726.007 566.123 728.008 566.142 730 566.726Z" fill="black"/>
<path fill-rule="evenodd" clip-rule="evenodd" d="M809.585 283C809.529 280.999 809.473 278.998 809.416 277C809.474 279.002 809.529 281 809.585 283Z" fill="black"/>
<path fill-rule="evenodd" clip-rule="evenodd" d="M469.561 585C469.52 583.333 469.479 581.665 469.438 580C469.48 581.669 469.52 583.334 469.561 585Z" fill="black"/>
<path fill-rule="evenodd" clip-rule="evenodd" d="M524 503.497C525.338 503.498 526.673 503.5 528 503.503C526.661 503.503 525.33 503.499 524 503.497Z" fill="black"/>
<path fill-rule="evenodd" clip-rule="evenodd" d="M703 144.319C701.333 144.44 699.666 144.56 698 144.681C699.667 144.56 701.334 144.44 703 144.319Z" fill="black"/>
<path fill-rule="evenodd" clip-rule="evenodd" d="M829 509.52C827 509.507 824.999 509.493 823 509.48C824.999 509.493 827 509.507 829 509.52Z" fill="black"/>
<path fill-rule="evenodd" clip-rule="evenodd" d="M660.574 633C660.524 631.665 660.473 630.328 660.425 629C660.474 630.337 660.524 631.67 660.574 633Z" fill="black"/>
<path fill-rule="evenodd" clip-rule="evenodd" d="M662.554 582C662.518 580.666 662.482 579.331 662.446 578C662.483 579.334 662.519 580.667 662.554 582Z" fill="black"/>
<path fill-rule="evenodd" clip-rule="evenodd" d="M628.428 605C628.476 606.335 628.525 607.671 628.572 609C628.524 607.663 628.476 606.333 628.428 605Z" fill="black"/>
<path fill-rule="evenodd" clip-rule="evenodd" d="M532 502.521C533.004 502.507 534.006 502.494 535 502.48C533.994 502.494 532.997 502.507 532 502.521Z" fill="black"/>
<path fill-rule="evenodd" clip-rule="evenodd" d="M822 554.565C823.003 554.522 824.005 554.478 825 554.435C823.994 554.479 822.996 554.522 822 554.565Z" fill="black"/>
<path fill-rule="evenodd" clip-rule="evenodd" d="M630.415 637C630.472 638.335 630.529 639.671 630.586 641C630.529 639.661 630.472 638.331 630.415 637Z" fill="black"/>
<path fill-rule="evenodd" clip-rule="evenodd" d="M737.601 630C737.534 631.336 737.466 632.671 737.399 634C737.466 632.664 737.534 631.332 737.601 630Z" fill="black"/>
<path fill-rule="evenodd" clip-rule="evenodd" d="M622.344 34.1468C620.932 33.9668 619.518 33.7883 618.104 33.6083C619.506 33.9323 621.041 32.7308 622.344 34.1468Z" fill="black"/>
<path fill-rule="evenodd" clip-rule="evenodd" d="M561.557 547C561.519 548.335 561.481 549.67 561.442 551C561.479 549.662 561.518 548.331 561.557 547Z" fill="black"/>
<path fill-rule="evenodd" clip-rule="evenodd" d="M475.603 669C475.535 667.666 475.465 666.332 475.397 665C475.466 666.334 475.535 667.667 475.603 669Z" fill="black"/>
<path fill-rule="evenodd" clip-rule="evenodd" d="M799 556.531C800.005 556.51 801.007 556.488 802 556.469C800.994 556.491 799.997 556.511 799 556.531Z" fill="black"/>
<path fill-rule="evenodd" clip-rule="evenodd" d="M459.489 314C459.497 315.336 459.504 316.671 459.51 318C459.502 316.663 459.496 315.332 459.489 314Z" fill="black"/>
<path fill-rule="evenodd" clip-rule="evenodd" d="M438.508 614C438.504 615.335 438.499 616.672 438.492 618C438.496 616.663 438.502 615.331 438.508 614Z" fill="black"/>
<path fill-rule="evenodd" clip-rule="evenodd" d="M687.743 606C687.707 607.335 687.672 608.671 687.634 610C687.086 608.629 687.148 607.3 687.743 606Z" fill="black"/>
<path fill-rule="evenodd" clip-rule="evenodd" d="M661.516 600C661.505 598.665 661.495 597.331 661.484 596C661.495 597.338 661.505 598.668 661.516 600Z" fill="black"/>
<path fill-rule="evenodd" clip-rule="evenodd" d="M866 718.459C867.004 718.486 868.008 718.514 869 718.542C867.992 718.515 866.996 718.487 866 718.459Z" fill="black"/>
<path fill-rule="evenodd" clip-rule="evenodd" d="M830 591.517C830.669 591.505 831.339 591.495 832 591.483C831.327 591.495 830.664 591.505 830 591.517Z" fill="black"/>
<path fill-rule="evenodd" clip-rule="evenodd" d="M805 594.502C805.671 594.5 806.339 594.499 807 594.498C806.329 594.5 805.664 594.501 805 594.502Z" fill="black"/>
<path fill-rule="evenodd" clip-rule="evenodd" d="M415.56 601C415.52 600 415.479 598.998 415.44 598C415.481 599.002 415.521 600.002 415.56 601Z" fill="black"/>
<path fill-rule="evenodd" clip-rule="evenodd" d="M825 600.241C824.131 601.12 823.014 600.601 822 600.657C823 600.518 824.001 600.38 825 600.241Z" fill="black"/>
<path fill-rule="evenodd" clip-rule="evenodd" d="M706 568.247C704.68 568.871 703.345 568.957 702 568.29C703.334 568.276 704.667 568.262 706 568.247Z" fill="black"/>
<path fill-rule="evenodd" clip-rule="evenodd" d="M793 602.517C791.666 602.506 790.332 602.495 789 602.483C790.334 602.495 791.668 602.506 793 602.517Z" fill="black"/>
<path fill-rule="evenodd" clip-rule="evenodd" d="M737 567.681C735.667 567.56 734.332 567.44 733 567.319C734.332 567.44 735.667 567.56 737 567.681Z" fill="black"/>
<path fill-rule="evenodd" clip-rule="evenodd" d="M431.539 563C431.514 564.003 431.487 565.004 431.46 566C431.485 564.996 431.512 563.997 431.539 563Z" fill="black"/>
<path fill-rule="evenodd" clip-rule="evenodd" d="M661.423 617C661.475 615.998 661.526 614.996 661.577 614C661.526 615.004 661.475 616.002 661.423 617Z" fill="black"/>
<path fill-rule="evenodd" clip-rule="evenodd" d="M799 559.332C797.667 559.444 796.333 559.556 795 559.668C796.334 559.556 797.667 559.444 799 559.332Z" fill="black"/>
<path fill-rule="evenodd" clip-rule="evenodd" d="M469.542 556C469.515 554.998 469.486 553.996 469.458 553C469.485 554.005 469.515 555.002 469.542 556Z" fill="black"/>
<path fill-rule="evenodd" clip-rule="evenodd" d="M636.618 479C636.539 480.002 636.46 481.003 636.382 482C636.461 480.998 636.54 480 636.618 479Z" fill="black"/>
<path fill-rule="evenodd" clip-rule="evenodd" d="M819 509.26C817.664 509.952 816.332 509.865 815 509.253C816.333 509.255 817.667 509.258 819 509.26Z" fill="black"/>
<path fill-rule="evenodd" clip-rule="evenodd" d="M660.588 648C660.528 646.998 660.47 645.998 660.411 645C660.47 646.003 660.528 647.001 660.588 648Z" fill="black"/>
<path fill-rule="evenodd" clip-rule="evenodd" d="M660.563 656C660.521 654.999 660.478 653.998 660.437 653C660.48 654.002 660.522 655 660.563 656Z" fill="black"/>
<path fill-rule="evenodd" clip-rule="evenodd" d="M471.479 524C471.494 522.999 471.507 521.996 471.521 521C471.506 522.004 471.493 523.001 471.479 524Z" fill="black"/>
<path fill-rule="evenodd" clip-rule="evenodd" d="M756 683.527C756.669 683.508 757.339 683.49 758 683.473C757.327 683.493 756.664 683.509 756 683.527Z" fill="black"/>
<path fill-rule="evenodd" clip-rule="evenodd" d="M433.581 692C433.527 690.999 433.473 689.998 433.419 689C433.474 690.001 433.527 691.001 433.581 692Z" fill="black"/>
<path fill-rule="evenodd" clip-rule="evenodd" d="M650 700.48C650.67 700.494 651.34 700.506 652 700.521C651.328 700.508 650.664 700.494 650 700.48Z" fill="black"/>
<path fill-rule="evenodd" clip-rule="evenodd" d="M795 508.652C793.667 508.551 792.333 508.45 791 508.349C792.333 508.45 793.667 508.551 795 508.652Z" fill="black"/>
<path fill-rule="evenodd" clip-rule="evenodd" d="M802 509.708L799 509.293L802 509.708Z" fill="black"/>
<path fill-rule="evenodd" clip-rule="evenodd" d="M650.416 615C650.473 611.999 650.528 608.999 650.584 606C650.527 609.001 650.472 612 650.416 615Z" fill="black"/>
<path fill-rule="evenodd" clip-rule="evenodd" d="M572.448 505C572.482 507.335 572.516 509.67 572.552 512C572.518 509.663 572.483 507.331 572.448 505Z" fill="black"/>
<path fill-rule="evenodd" clip-rule="evenodd" d="M400 651.469C398.331 651.489 396.659 651.509 395 651.531C396.674 651.511 398.337 651.49 400 651.469Z" fill="black"/>
<path fill-rule="evenodd" clip-rule="evenodd" d="M537 452.539C535.329 452.513 533.659 452.486 532 452.462C533.675 452.489 535.338 452.514 537 452.539Z" fill="black"/>
<path fill-rule="evenodd" clip-rule="evenodd" d="M494 491.503C495.668 491.502 497.335 491.499 499 491.497C497.333 491.498 495.667 491.501 494 491.503Z" fill="black"/>
<path fill-rule="evenodd" clip-rule="evenodd" d="M516 451.467C514.662 451.489 513.325 451.512 512 451.533C513.342 451.511 514.671 451.489 516 451.467Z" fill="black"/>
<path fill-rule="evenodd" clip-rule="evenodd" d="M408 651.511C406.663 651.504 405.326 651.497 404 651.49C405.342 651.498 406.671 651.504 408 651.511Z" fill="black"/>
<path fill-rule="evenodd" clip-rule="evenodd" d="M588 140.674C589.666 140.558 591.334 140.443 593 140.327C591.333 140.443 589.666 140.558 588 140.674Z" fill="black"/>
<path fill-rule="evenodd" clip-rule="evenodd" d="M610.407 258C610.469 256.333 610.531 254.666 610.593 253C610.53 254.669 610.469 256.334 610.407 258Z" fill="black"/>
<path fill-rule="evenodd" clip-rule="evenodd" d="M570 273.499C568.997 273.499 567.993 273.5 567 273.501C568.007 273.501 569.003 273.5 570 273.499Z" fill="black"/>
<path fill-rule="evenodd" clip-rule="evenodd" d="M485 448.484C483.997 448.495 482.993 448.506 482 448.517C483.007 448.507 484.003 448.496 485 448.484Z" fill="black"/>
<path fill-rule="evenodd" clip-rule="evenodd" d="M462 489.337C463.334 489.445 464.667 489.555 466 489.663C464.666 489.555 463.334 489.445 462 489.337Z" fill="black"/>
<path fill-rule="evenodd" clip-rule="evenodd" d="M459.468 540C459.489 538.665 459.511 537.332 459.531 536C459.51 537.336 459.489 538.668 459.468 540Z" fill="black"/>
<path fill-rule="evenodd" clip-rule="evenodd" d="M574 486.696C575.333 486.565 576.667 486.435 578 486.304C576.666 486.435 575.333 486.565 574 486.696Z" fill="black"/>
<path fill-rule="evenodd" clip-rule="evenodd" d="M665.381 463C665.461 461.666 665.54 460.33 665.619 459C665.54 460.336 665.46 461.668 665.381 463Z" fill="black"/>
<path fill-rule="evenodd" clip-rule="evenodd" d="M683 278.656C684.334 278.552 685.666 278.448 687 278.345C685.666 278.448 684.334 278.552 683 278.656Z" fill="black"/>
<path fill-rule="evenodd" clip-rule="evenodd" d="M547 453.514C545.997 453.504 544.993 453.495 544 453.486C545.007 453.495 546.004 453.504 547 453.514Z" fill="black"/>
<path fill-rule="evenodd" clip-rule="evenodd" d="M459.573 615C459.523 613.998 459.474 612.998 459.426 612C459.474 613.002 459.523 614.001 459.573 615Z" fill="black"/>
<path fill-rule="evenodd" clip-rule="evenodd" d="M571.692 564C573.878 569.42 572.651 565.582 572.707 566.833C570.845 567.083 570.506 566.138 571.692 564Z" fill="black"/>
<path fill-rule="evenodd" clip-rule="evenodd" d="M480 448.555C478.998 448.519 477.993 448.482 477 448.445C478.009 448.481 479.003 448.518 480 448.555Z" fill="black"/>
<path fill-rule="evenodd" clip-rule="evenodd" d="M684.405 347C684.468 345.666 684.532 344.332 684.594 343C684.531 344.335 684.467 345.668 684.405 347Z" fill="black"/>
<path fill-rule="evenodd" clip-rule="evenodd" d="M459.505 605C459.502 603.666 459.498 602.333 459.495 601C459.498 602.337 459.501 603.669 459.505 605Z" fill="black"/>
<path fill-rule="evenodd" clip-rule="evenodd" d="M459.396 575C459.465 573.999 459.535 572.998 459.604 572C459.534 573.002 459.465 574.002 459.396 575Z" fill="black"/>
<path fill-rule="evenodd" clip-rule="evenodd" d="M667.36 444C667.453 442.999 667.547 441.998 667.64 441C667.547 442.002 667.453 443.002 667.36 444Z" fill="black"/>
<path fill-rule="evenodd" clip-rule="evenodd" d="M446.366 578C446.455 579.002 446.545 580.004 446.634 581C446.544 579.999 446.455 579 446.366 578Z" fill="black"/>
<path fill-rule="evenodd" clip-rule="evenodd" d="M444.352 570C444.451 571.001 444.549 572.003 444.648 573C444.549 571.997 444.451 570.998 444.352 570Z" fill="black"/>
<path fill-rule="evenodd" clip-rule="evenodd" d="M644.388 433C644.463 432 644.537 430.999 644.612 430C644.536 431.002 644.462 432.001 644.388 433Z" fill="black"/>
<path fill-rule="evenodd" clip-rule="evenodd" d="M134 568.658C135.332 568.553 136.666 568.446 138 568.342C136.663 568.447 135.331 568.553 134 568.658Z" fill="black"/>
<path fill-rule="evenodd" clip-rule="evenodd" d="M635.557 593C635.518 594.002 635.479 595.006 635.442 596C635.481 594.995 635.519 593.998 635.557 593Z" fill="black"/>
<path fill-rule="evenodd" clip-rule="evenodd" d="M651.389 596C651.463 595 651.537 593.998 651.612 593C651.537 594.002 651.463 595.001 651.389 596Z" fill="black"/>
<path fill-rule="evenodd" clip-rule="evenodd" d="M645.342 429C645.447 427.999 645.554 426.999 645.658 426C645.553 427.002 645.447 428.001 645.342 429Z" fill="black"/>
<path fill-rule="evenodd" clip-rule="evenodd" d="M142 567.697C143.334 567.566 144.668 567.434 146 567.303C144.668 567.434 143.332 567.566 142 567.697Z" fill="black"/>
<path fill-rule="evenodd" clip-rule="evenodd" d="M566 452.489C565.331 452.496 564.66 452.504 564 452.511C564.673 452.504 565.336 452.496 566 452.489Z" fill="black"/>
<path fill-rule="evenodd" clip-rule="evenodd" d="M459.505 566C459.502 564.998 459.498 563.997 459.495 563C459.498 564.003 459.502 565 459.505 566Z" fill="black"/>
<path fill-rule="evenodd" clip-rule="evenodd" d="M653.578 564C653.223 562.966 653.049 561.947 653.734 561C653.682 562.002 653.63 563.001 653.578 564Z" fill="black"/>
<path fill-rule="evenodd" clip-rule="evenodd" d="M636.543 545C636.515 546.001 636.485 547.003 636.458 548C636.487 546.997 636.515 545.998 636.543 545Z" fill="black"/>
<path fill-rule="evenodd" clip-rule="evenodd" d="M637.406 644C637.468 645 637.531 646.003 637.593 647C637.531 645.998 637.468 644.998 637.406 644Z" fill="black"/>
<path fill-rule="evenodd" clip-rule="evenodd" d="M711 280.287C712.001 280.43 713.001 280.573 714 280.714C712.999 280.571 712 280.429 711 280.287Z" fill="black"/>
<path fill-rule="evenodd" clip-rule="evenodd" d="M707 280.38C708.342 280.461 709.816 279.816 711 280.761L707 280.38Z" fill="black"/>
<path fill-rule="evenodd" clip-rule="evenodd" d="M536 491.51C537.333 491.504 538.668 491.497 540 491.49C538.667 491.497 537.333 491.504 536 491.51Z" fill="black"/>
<path fill-rule="evenodd" clip-rule="evenodd" d="M566 279.327L570 279.674C568.665 279.558 567.334 279.443 566 279.327Z" fill="black"/>
<path fill-rule="evenodd" clip-rule="evenodd" d="M500 491.239C501.335 491.245 502.667 491.251 504 491.257C502.661 491.901 501.328 491.964 500 491.239Z" fill="black"/>
<path fill-rule="evenodd" clip-rule="evenodd" d="M463.614 659C463.538 657.997 463.462 656.997 463.385 656C463.462 657.003 463.538 658.001 463.614 659Z" fill="black"/>
<path fill-rule="evenodd" clip-rule="evenodd" d="M609.478 281C609.493 279.998 609.507 278.998 609.522 278C609.507 279.003 609.493 280.002 609.478 281Z" fill="black"/>
<path fill-rule="evenodd" clip-rule="evenodd" d="M525 491.661C526.334 491.554 527.667 491.447 529 491.339C527.666 491.447 526.334 491.554 525 491.661Z" fill="black"/>
<path fill-rule="evenodd" clip-rule="evenodd" d="M638.466 668C638.488 669.001 638.511 670.003 638.533 671C638.511 669.996 638.488 668.999 638.466 668Z" fill="black"/>
<path fill-rule="evenodd" clip-rule="evenodd" d="M642 255.691C643.333 255.564 644.667 255.437 646 255.31C644.667 255.437 643.333 255.564 642 255.691Z" fill="black"/>
<path fill-rule="evenodd" clip-rule="evenodd" d="M659.363 511C659.455 509.999 659.547 508.998 659.637 508C659.546 509.002 659.454 510 659.363 511Z" fill="black"/>
<path fill-rule="evenodd" clip-rule="evenodd" d="M705.385 244C705.462 242.998 705.538 241.998 705.614 241C705.538 242.002 705.461 243.001 705.385 244Z" fill="black"/>
<path fill-rule="evenodd" clip-rule="evenodd" d="M610.471 158C610.49 159.001 610.508 160.003 610.529 161C610.51 159.997 610.491 158.998 610.471 158Z" fill="black"/>
<path fill-rule="evenodd" clip-rule="evenodd" d="M575 139.334C576.333 139.445 577.668 139.557 579 139.667C577.667 139.556 576.333 139.445 575 139.334Z" fill="black"/>
<path fill-rule="evenodd" clip-rule="evenodd" d="M375 707.696C376.334 707.565 377.666 707.435 379 707.304C377.666 707.435 376.334 707.566 375 707.696Z" fill="black"/>
<path fill-rule="evenodd" clip-rule="evenodd" d="M577 129.501C576.331 129.5 575.66 129.499 575 129.499C575.672 129.501 576.336 129.501 577 129.501Z" fill="black"/>
<path fill-rule="evenodd" clip-rule="evenodd" d="M331 720.72C332.335 720.032 333.667 720.228 335 720.725C333.667 720.723 332.332 720.722 331 720.72Z" fill="black"/>
<path fill-rule="evenodd" clip-rule="evenodd" d="M850 662.679C852.334 662.559 854.667 662.44 857 662.321C854.667 662.44 852.334 662.56 850 662.679Z" fill="black"/>
<path fill-rule="evenodd" clip-rule="evenodd" d="M850 645.454C848.662 645.484 847.326 645.515 846 645.546C847.34 645.516 848.67 645.484 850 645.454Z" fill="black"/>
<path fill-rule="evenodd" clip-rule="evenodd" d="M830 625.621C831.667 625.494 833.333 625.367 835 625.24C833.445 626.217 831.667 625.494 830 625.621Z" fill="black"/>
<path fill-rule="evenodd" clip-rule="evenodd" d="M811 627.681C812.667 627.56 814.333 627.44 816 627.319C814.334 627.44 812.667 627.56 811 627.681Z" fill="black"/>
<path fill-rule="evenodd" clip-rule="evenodd" d="M783 645.656C784.333 645.552 785.667 645.448 787 645.344C785.667 645.448 784.333 645.552 783 645.656Z" fill="black"/>
<path fill-rule="evenodd" clip-rule="evenodd" d="M790 645.658C791.333 645.553 792.667 645.447 794 645.342C792.667 645.447 791.333 645.552 790 645.658Z" fill="black"/>
<path fill-rule="evenodd" clip-rule="evenodd" d="M795 644.677C796.333 644.559 797.666 644.442 799 644.323C797.667 644.441 796.334 644.559 795 644.677Z" fill="black"/>
<path fill-rule="evenodd" clip-rule="evenodd" d="M802 610.491C800.997 610.498 799.994 610.505 799 610.509C800.007 610.501 801.004 610.496 802 610.491Z" fill="black"/>
<path fill-rule="evenodd" clip-rule="evenodd" d="M827 665.582C828.333 665.47 829.667 665.356 831 665.244C829.756 666.118 828.35 665.615 827 665.582Z" fill="black"/>
<path fill-rule="evenodd" clip-rule="evenodd" d="M789 585.691C790.333 585.564 791.666 585.436 793 585.309C791.666 585.436 790.333 585.564 789 585.691Z" fill="black"/>
<path fill-rule="evenodd" clip-rule="evenodd" d="M784 569.501C782.996 569.5 781.993 569.5 781 569.499C782.008 569.5 783.004 569.5 784 569.501Z" fill="black"/>
<path fill-rule="evenodd" clip-rule="evenodd" d="M774 571.496C773.331 571.5 772.661 571.502 772 571.504C772.673 571.501 773.336 571.499 774 571.496Z" fill="black"/>
<path fill-rule="evenodd" clip-rule="evenodd" d="M750 574.281C749.664 575.103 747.897 574.998 748.005 574.154C748.669 574.196 749.334 574.239 750 574.281Z" fill="black"/>
<path fill-rule="evenodd" clip-rule="evenodd" d="M703.439 578C703.48 579 703.521 580.002 703.561 581C703.52 579.998 703.48 578.998 703.439 578Z" fill="black"/>
<path fill-rule="evenodd" clip-rule="evenodd" d="M840 583.301C841 583.284 842 583.268 843 583.251C842.012 583.957 841.011 583.858 840 583.301Z" fill="black"/>
<path fill-rule="evenodd" clip-rule="evenodd" d="M802 568.486C801.331 568.496 800.661 568.506 800 568.514C800.673 568.505 801.336 568.496 802 568.486Z" fill="black"/>
<path fill-rule="evenodd" clip-rule="evenodd" d="M776 631.686C777.334 631.561 778.668 631.438 780 631.314C778.666 631.438 777.334 631.562 776 631.686Z" fill="black"/>
<path fill-rule="evenodd" clip-rule="evenodd" d="M760 633.675L764 633.326L760 633.675Z" fill="black"/>
<path fill-rule="evenodd" clip-rule="evenodd" d="M838 663.688C839.333 663.562 840.667 663.437 842 663.312C840.667 663.437 839.333 663.562 838 663.688Z" fill="black"/>
<path fill-rule="evenodd" clip-rule="evenodd" d="M790 669.709C791.336 669.221 792.671 669.054 794 669.721C792.666 669.717 791.333 669.713 790 669.709Z" fill="black"/>
<path fill-rule="evenodd" clip-rule="evenodd" d="M787.88 531.868L786 531.218C788.333 531.189 790.667 531.16 793 531.132C793.005 531.133 788.149 531.889 787.88 531.868Z" fill="black"/>
<path fill-rule="evenodd" clip-rule="evenodd" d="M770 514.501C768.329 514.5 766.658 514.5 765 514.499C766.673 514.501 768.337 514.501 770 514.501Z" fill="black"/>
<path fill-rule="evenodd" clip-rule="evenodd" d="M707 552.727C708.664 552.061 710.331 552.191 712 552.709C710.333 552.715 708.667 552.721 707 552.727Z" fill="black"/>
<path fill-rule="evenodd" clip-rule="evenodd" d="M808 536.482C806.997 536.494 805.993 536.506 805 536.518C806.007 536.505 807.003 536.494 808 536.482Z" fill="black"/>
<path fill-rule="evenodd" clip-rule="evenodd" d="M787 523.337C788.668 523.446 790.335 523.555 792 523.664C790.334 523.554 788.666 523.446 787 523.337Z" fill="black"/>
<path fill-rule="evenodd" clip-rule="evenodd" d="M766 533.677C767.667 533.559 769.334 533.442 771 533.323C769.334 533.442 767.667 533.559 766 533.677Z" fill="black"/>
<path fill-rule="evenodd" clip-rule="evenodd" d="M779 531.669C780.333 531.556 781.666 531.444 783 531.331C781.666 531.444 780.333 531.556 779 531.669Z" fill="black"/>
<path fill-rule="evenodd" clip-rule="evenodd" d="M768 522.336C769.334 522.445 770.667 522.555 772 522.664C770.666 522.554 769.333 522.445 768 522.336Z" fill="black"/>
<path fill-rule="evenodd" clip-rule="evenodd" d="M749 541.521C748.33 541.507 747.662 541.493 747 541.479C747.672 541.493 748.336 541.507 749 541.521Z" fill="black"/>
<path fill-rule="evenodd" clip-rule="evenodd" d="M770 531.562C769.33 531.521 768.661 531.479 768 531.438C768.672 531.479 769.336 531.521 770 531.562Z" fill="black"/>
<path fill-rule="evenodd" clip-rule="evenodd" d="M757 531.527C756.33 531.508 755.66 531.49 755 531.473C755.672 531.492 756.336 531.509 757 531.527Z" fill="black"/>
<path fill-rule="evenodd" clip-rule="evenodd" d="M793 530.597C793 530.856 796.012 529.542 796 530.764L793 530.597Z" fill="black"/>
<path fill-rule="evenodd" clip-rule="evenodd" d="M782 514.499C781.33 514.5 780.661 514.5 780 514.501C780.673 514.5 781.336 514.5 782 514.499Z" fill="black"/>
<path fill-rule="evenodd" clip-rule="evenodd" d="M427 467.076C428.083 462.657 427.788 459.199 431.645 462.023C433.761 463.574 437.251 471.436 436.986 474.099C436.66 477.384 435.162 478.693 432.07 477.648C428.516 476.444 427.106 470.382 427 467.076Z" fill="black"/>
<path fill-rule="evenodd" clip-rule="evenodd" d="M621.83 440.247C630.786 440.247 626.878 449.778 619.413 449.991C615.983 450.09 611.048 449.413 612.16 444.821C612.754 442.37 621.456 439.066 621.83 440.247Z" fill="black"/>
<path fill-rule="evenodd" clip-rule="evenodd" d="M525.774 459C532.239 462.128 523.143 475.863 517.269 472.463C509.747 468.111 523.116 460.96 525.774 459Z" fill="black"/>
<path fill-rule="evenodd" clip-rule="evenodd" d="M510.044 472C512.16 474.308 521.696 482.133 516.44 485.28C509.976 489.149 505.056 476.376 510.044 472Z" fill="black"/>
<path fill-rule="evenodd" clip-rule="evenodd" d="M401.678 466C399.575 461.933 402.469 451.29 408.891 453.235C415.353 455.194 405.234 464.92 401.678 466Z" fill="black"/>
<path fill-rule="evenodd" clip-rule="evenodd" d="M544.34 468.344C548.533 466.656 547.734 471.65 548.368 473.261C549.086 475.091 552.778 479.549 551.852 481.497C550.478 484.388 547.193 482.545 545.409 480.669C542.282 477.378 542.504 472.1 544.34 468.344Z" fill="black"/>
<path fill-rule="evenodd" clip-rule="evenodd" d="M480.44 472.973C476.946 472.973 468.603 462.897 473.505 461.206C479.589 459.108 484.676 473.713 480.44 472.973Z" fill="black"/>
<path fill-rule="evenodd" clip-rule="evenodd" d="M601.208 457C604.409 457.789 608.645 466.851 603.821 467.902C598.481 469.067 597.528 459.506 601.208 457Z" fill="black"/>
<path fill-rule="evenodd" clip-rule="evenodd" d="M581.803 474C579.292 469.166 578.674 458.818 584.803 467.124C586.131 468.923 587.501 468.195 586.819 471.163C586.223 473.754 583.844 474 581.803 474Z" fill="black"/>
<path fill-rule="evenodd" clip-rule="evenodd" d="M449.585 449C452.143 452.851 451.388 464.926 446.042 457.784C443.768 454.748 445.334 449.144 449.585 449Z" fill="black"/>
<path fill-rule="evenodd" clip-rule="evenodd" d="M578.188 86.0979C583.152 84.8164 584.342 96.5193 581.447 97.8093C577.394 99.6146 577.902 88.0555 578.188 86.0979Z" fill="black"/>
<path fill-rule="evenodd" clip-rule="evenodd" d="M892.156 680.649C887.549 680.38 881.095 679.124 888.074 675.854C892.501 673.782 899.085 673.638 903.76 674.488C906.982 675.074 911.817 677.745 906.9 681.208C904.021 683.233 895.656 680.748 892.156 680.649Z" fill="black"/>
<path fill-rule="evenodd" clip-rule="evenodd" d="M886.993 689C885.66 688.85 884.329 688.699 883 688.551C884.068 686.612 887.171 686.205 886.993 689Z" fill="black"/>
<path fill-rule="evenodd" clip-rule="evenodd" d="M893 680.457C894.337 680.486 895.674 680.515 897 680.543C895.659 680.514 894.329 680.486 893 680.457Z" fill="black"/>
</svg>
