<svg width="834" height="651" viewBox="0 0 834 651" fill="none" xmlns="http://www.w3.org/2000/svg">
<path fill-rule="evenodd" clip-rule="evenodd" d="M208.253 362.074C212.999 397.666 217.744 433.258 222.49 468.85L226.322 497.592C226.806 501.219 226.349 508.373 228.192 511.62C228.843 512.765 230.554 513.309 231.812 513.984C236.142 516.309 240.473 518.634 244.803 520.959C281.433 540.625 318.063 560.291 354.691 579.957C389.845 598.83 424.999 617.704 460.152 636.577C463.79 638.531 469.674 643.627 473.601 642.284C477.334 641.008 481.149 637.86 484.538 635.875C491.044 632.062 497.549 628.25 504.055 624.437C543.421 601.367 582.786 578.296 622.152 555.226C638.394 545.708 654.635 536.19 670.877 526.671C675.32 524.067 679.765 521.463 684.209 518.858C686.533 517.496 686.835 517.544 687.75 515.232C691.17 506.589 692.754 496.688 695.174 487.72C697.841 477.837 700.508 467.954 703.175 458.071C704.364 453.661 703.806 453.092 701.866 448.835C698.028 440.409 694.19 431.984 690.352 423.559C681.833 404.859 673.315 386.159 664.795 367.459C661.35 359.897 653.052 354.576 647.078 349.014L554.321 262.655C551.965 260.461 549.609 258.268 547.253 256.074C546.865 269.258 544.26 283.431 548.081 296.167C554.352 317.068 560.622 337.969 566.892 358.87C569.923 368.973 572.953 379.075 575.984 389.177C576.547 391.054 579.975 398.497 579.059 400.148C578.551 401.063 574.221 401.989 573.283 402.345C569.254 403.878 565.225 405.411 561.195 406.944C549.969 411.215 538.743 415.486 527.517 419.756C517.42 423.598 507.323 427.439 497.226 431.28C493.802 432.583 489.781 434.995 486.165 434.794C482.93 434.614 479.252 433.013 476.122 432.207C470.619 430.79 465.115 429.372 459.612 427.954C448.802 425.17 437.991 422.386 427.181 419.601C415.019 416.468 404.748 407.267 394.347 400.457C376.469 388.751 358.591 377.045 340.714 365.34C336.621 362.66 336.606 361.131 334.975 356.238C331.31 345.242 327.644 334.246 323.979 323.25C322.022 317.379 319.615 311.483 318.137 305.472C315.699 295.552 314.253 285.283 312.322 275.253C311.74 272.227 311.157 269.2 310.575 266.174C303.088 269.212 295.601 272.251 288.113 275.29C287.028 275.73 281.74 277.043 281.27 278.122C280.972 278.804 282.545 281.899 282.77 282.564C288.978 300.951 295.186 319.337 301.395 337.723C303.348 343.507 305.3 349.29 307.253 355.074C302.587 347.741 297.92 340.407 293.253 333.074C289.587 345.407 285.92 357.741 282.253 370.074C273.587 360.074 264.92 350.074 256.253 340.074C253.253 350.074 250.253 360.074 247.253 370.074C237.92 357.741 228.587 345.407 219.253 333.074C218.144 339.51 217.034 345.946 215.924 352.382C215.589 354.325 215.656 359.898 214.363 361.436C213.298 362.702 210.232 362.074 208.253 362.074Z" fill="#5433FF"/>
<path fill-rule="evenodd" clip-rule="evenodd" d="M799.187 439.009C798.662 455.763 799.026 477.512 789.857 492.243C788.377 494.62 783.364 502.026 782.804 495.511C782.255 489.115 783.829 482.781 782.27 476.311C781.436 472.849 778.631 465.287 773.836 468.414C771.393 470.008 770.749 473.943 769.793 476.427C768.379 480.102 766.795 483.719 765.306 487.366C760.106 500.097 754.718 515.29 743.159 523.715C744.672 512.737 748.795 501.015 746.023 489.918C745.079 486.136 742.217 479.23 737.29 481.446C732.488 483.605 729.376 493.239 727.11 497.529C720.239 510.536 713.212 523.298 705.477 535.819C701.586 542.117 697.384 547.873 692.293 553.26C689.11 556.63 685.141 562.325 680.124 562.827C680.124 553.224 683.284 543.946 686.169 534.903C689.272 525.179 692.101 515.372 695.147 505.63C697.789 497.179 699.958 488.793 701.717 480.127C702.446 476.543 703.022 472.832 706.077 470.517C708.823 468.437 713.161 467.447 716.223 465.918C724.263 461.901 732.532 457.567 740.001 452.574C743.068 450.524 745.708 447.876 748.919 446.037C752.578 443.942 755.994 442.179 759.379 439.626C773.985 428.609 787.152 415.057 796.024 398.925C797.464 405.406 799.372 411.739 799.583 418.42C799.798 425.27 799.402 432.163 799.187 439.009ZM678.978 516.018C676.642 512.073 673.083 513.689 669.947 515.591C665.081 518.542 660.202 521.472 655.311 524.386C645.358 530.316 635.589 536.556 625.865 542.852C606.07 555.665 585.585 566.152 564.716 576.998C544.546 587.479 525.173 599.952 506.275 612.56C501.733 615.59 497.223 618.691 492.862 621.977C488.991 624.894 485.895 628.99 481.82 631.587C477.576 634.291 474.659 632.097 470.6 630.103C465.524 627.609 460.234 625.519 455.045 623.27C434.106 614.192 413.107 604.769 392.738 594.465C372.492 584.225 353.309 572.425 333.91 560.706C324.671 555.125 315.59 549.19 306.477 543.404C296.779 537.247 286.738 532.635 276.565 527.4C272.064 525.083 268.077 521.938 263.454 519.832C258.594 517.619 253.46 516.031 249.108 512.838C247.157 511.406 245.511 509.695 243.281 508.682C241.45 507.851 239.372 507.711 237.564 506.828C233.886 505.032 232.833 501.387 232.121 497.596C227.54 473.259 225.105 448.248 222.45 423.64C220.958 409.802 219.293 396.018 217.231 382.253C216.301 376.047 218.171 371.239 219.153 365.202C220.299 358.151 220.752 350.952 221.52 343.853C225.144 350.567 228.278 357.613 232.889 363.74C236.288 368.255 242.094 374.658 248.353 374.507C258.081 374.272 257.636 357.587 258.028 350.964C262.459 354.919 263.803 361.362 267.481 365.956C270.839 370.15 275.409 375.354 280.566 377.232C291.424 381.187 290.379 361.032 289.782 355.316C289.482 352.449 287.863 347.913 291.704 349.22C295.241 350.424 298.683 355.415 301.656 357.704C306.795 361.662 312.432 364.951 317.704 368.729C324.245 373.417 331.303 376.805 337.972 381.171C342.143 383.902 346.693 384.515 351.24 386.523C357.902 389.466 363.787 393.852 370.128 397.38C382.685 404.363 396.615 410.625 410.35 414.835C414.794 416.197 420.716 420.037 424.087 416.091C426.163 413.663 427.527 409.954 429.289 407.232C431.518 403.786 433.885 400.431 436.343 397.144C445.081 385.463 454.778 374.433 465.547 364.581C478.076 353.12 491.776 342.806 506.43 334.216C512.726 330.525 539.016 313.982 544.795 325.625C540.046 325.329 535.93 327.066 531.869 329.241C530.878 329.772 525.767 333.422 526.963 330.205C525.478 330.483 524.176 332.419 523.052 333.28C521.109 334.768 518.162 336.486 515.912 337.718C513.688 338.935 510.94 339.233 508.913 340.709C508.173 341.248 507.724 342.122 507.018 342.705L504.994 342.721C504.691 343.842 504.388 344.962 504.085 346.083C502.941 342.416 501.309 347.185 499.398 348.734C498.249 349.665 496.43 350.624 495.077 351.225C494.066 351.674 493.91 350.63 492.928 351.424C492.056 352.129 491.5 353.682 490.562 354.566C489.411 355.648 487.938 356.489 486.655 357.413C484.197 359.183 481.597 360.573 479.107 362.251C475.757 364.509 474 368.392 470.748 370.753C469.207 371.871 466.814 372.002 465.98 372.718C463.889 374.516 464.578 377.24 460.678 377.36C461.033 377.928 461.246 378.544 461.319 379.209C460.39 379.049 459.564 378.664 458.841 378.053C459.003 381.943 455.178 383.332 452.885 385.727C451.563 387.107 449.916 389.048 448.984 390.709C448.829 390.987 448.533 393.204 448.469 393.234C448.115 393.404 445.96 391.511 446.164 391.669C445.563 395.263 442.085 398.661 440.562 401.988C439.76 403.741 438.945 406.559 437.364 407.792C436.934 408.127 435.611 407.777 434.518 408.942C433.716 409.796 432.791 411.375 432.465 412.508C432.248 413.265 432.509 415.223 432.197 415.677C431.625 416.507 430.735 415.673 429.839 416.287C428.183 417.421 428.141 419.193 425.718 419.426C427.388 423.484 437.472 424.735 441.137 425.889C451.502 429.151 462.376 432.409 472.065 437.405C474.571 438.697 476.942 439.762 477.386 442.739C478.005 446.881 475.894 452.389 475.491 456.573C474.4 467.872 474.177 479.504 474.405 490.851C474.621 501.599 474.969 512.448 475.47 523.183C475.934 533.136 477.941 542.892 479.024 552.775C479.321 555.488 479.123 567.72 483.787 567.104C487.681 566.59 485.222 558.235 485.149 555.84C484.986 550.539 486.102 545.127 486.055 539.779C486.033 537.208 487.157 534.993 487.265 532.533C487.372 530.102 486.164 528.181 486.526 525.661C486.874 523.243 494.022 509.335 487.157 510.964C487.559 508.976 487.911 506.971 488.442 505.012C489.176 505.672 489.768 506.443 490.214 507.323C490.825 503.051 490.621 498.787 491 494.513C491.17 492.576 491.955 490.455 491.687 488.503C491.738 487.694 491.635 486.9 491.379 486.122C490.957 485.675 490.434 485.44 489.813 485.417C489.486 484.348 489.402 484.054 489.982 483.005C490.231 482.294 490.725 481.85 491.464 481.674C492.872 481.507 493.033 480.698 491.946 479.247C492.513 476.383 492.586 474.575 492.177 471.717C491.833 469.316 493.098 464.667 491.809 462.529C490.304 460.03 489.556 462.454 489.276 458.99C489.216 458.257 489.168 456.729 489.463 455.998C489.786 455.202 490.757 455.528 490.881 455.245C491.724 453.32 491.78 449.53 488.797 449.859C488.914 448.484 489.031 447.109 489.147 445.734C491.302 448.215 490.549 446.115 491.771 444.736C493.417 442.878 495.027 442.558 497.38 441.823C503.651 439.867 509.693 436.924 515.821 434.536C528.797 429.479 542.014 424.964 554.61 418.988C581.103 406.417 607.07 392.774 633.725 380.535C631.821 377.001 633.005 376.829 634.397 373.511C636.255 374.801 635.864 373.901 637.186 373.822C637.066 372.715 637.41 372.381 638.218 372.82C638.861 373.017 639.52 373.087 640.196 373.029C641.846 373.312 643.194 374.22 644.694 374.565C645.186 374.928 645.727 375.2 646.317 375.383C646.847 375.262 647.299 375 647.673 374.596C650.101 375.046 650.919 376.875 651.026 379.523C651.044 379.984 649.634 380.456 650.038 381.075C650.743 382.157 652.641 381.899 653.727 382.037C653.489 383.161 653.251 384.284 653.014 385.407C657.779 383.208 656.536 390.091 657.981 392.352C658.384 392.983 659.281 392.479 659.748 393.21C660.356 394.164 660.173 395.515 660.692 396.465C661.865 398.614 663.039 398.353 664.208 400.814C670.317 413.663 678.444 425.634 684.308 438.759C687.1 445.006 689.618 451.36 692.533 457.552C695.215 463.251 696.748 468.096 694.836 474.319C690.402 488.756 685.66 503.456 679.849 517.401C679.559 516.94 679.269 516.479 678.978 516.018ZM369.685 623.78C369.269 624.488 368.853 625.196 368.437 625.905C367.513 620.59 369.975 623.055 369.685 623.78ZM350.127 613.828C348.794 613.429 349.37 611.252 349.413 610.321C350.256 611.372 351.083 612.443 351.785 613.597C351.232 613.674 350.679 613.751 350.127 613.828ZM296.524 593.396C297.924 592.611 298.931 592.047 300.518 591.157C298.905 594.301 298.905 594.301 296.524 593.396ZM212.195 316.459C210.056 321.709 216.578 354.125 210.506 355.183C209.635 352.338 209.526 344.504 205.921 343.569C201.448 342.408 201.889 350.473 201.278 352.967C192.095 346.578 188.016 334.24 183.629 324.462C178.037 311.999 173.637 299.036 169.435 286.05C165.842 274.947 162.871 263.648 159.24 252.563C156.959 245.601 154.5 238.622 152.966 231.446C152.633 229.887 151.322 225.934 152.436 224.452C154.055 222.297 159.883 224.765 161.761 225.331C173.944 228.997 186.582 230.575 199.099 232.705C213.006 235.07 226.882 237.515 240.873 239.349C244.369 239.807 247.867 240.241 251.367 240.663C253.637 240.937 257.073 240.663 259.229 241.681C263.593 243.74 264.522 251.62 266.143 255.708C272.19 270.96 279.307 285.73 285.674 300.844C291.41 314.459 295.758 328.944 304.003 341.341C297.854 338.615 290.061 324.203 283.19 332.51C280.236 336.082 280.981 340.788 281.217 345.063C281.559 351.243 281.666 357.469 281.666 363.659C274.942 361.912 270.424 354.279 266.894 348.872C262.072 341.487 259.035 334.528 256.9 326.062C255.975 322.396 253.523 322.305 251.344 320.111C249.944 318.701 249.24 316.801 247.232 318.852C244.708 321.43 246.387 328.569 246.823 331.613C247.858 338.856 251.253 350.003 247.953 356.809C243.499 365.994 231.564 342.883 230.166 339.545C229.455 337.846 216.757 305.261 212.195 316.459ZM203.857 159.049C204.609 159.164 205.36 159.279 206.112 159.394C205.506 159.929 204.245 161.805 203.215 161.309C203.429 160.556 203.643 159.803 203.857 159.049ZM243.687 150.502C243.452 150.761 243.215 151.019 242.979 151.278C241.901 149.93 242.283 147.965 242.283 146.406C243.708 147.267 244.056 148.989 243.687 150.502ZM246.906 165.458V169.864C243.92 168.57 243.861 167.902 246.906 165.458ZM250.532 171.06C248.44 170.486 248.19 170.023 248.484 166.808C249.351 168.609 249.922 169.796 250.532 171.06ZM262.574 203.69C261.697 205.946 256.572 200.57 256.76 198.961C256.939 197.426 257.726 196.968 258.812 197.955C259.171 198.282 258.638 199.463 258.867 199.873C259.694 201.357 261.361 202.571 262.574 203.69ZM262.631 217.282C261.347 220.488 259.058 215.439 262.413 215.301C262.633 215.946 262.706 216.606 262.631 217.282ZM260.14 212.227C259.643 211.564 259.16 210.892 258.691 210.208C260.419 210.557 261.791 213.075 263.614 211.395C263.398 213.957 261.578 214.028 260.14 212.227ZM148.395 170.583C145.616 167.55 163.737 165.421 165.923 164.9C181.787 161.117 196.765 155.643 211.598 148.926C218.674 145.722 225.714 142.479 232.624 138.927C235.608 137.394 239.698 136.094 242.19 133.792C243.969 132.149 243.898 130.906 246.21 129.927C248.173 129.098 248.271 129.881 249.17 128.381C249.71 127.481 250.321 124.183 250.005 123.207C249.144 120.544 247.871 122.703 246.084 120.868C244.797 119.545 245.109 115.783 245.46 114.225C245.916 114.967 246.178 115.773 246.248 116.641C248.187 115.685 247.405 112.402 249.526 111.864C251.761 111.298 251.53 113.039 252.113 114.819C253.802 112.339 252.448 110.224 251.534 107.802C256.181 106.932 261.174 106.089 265.78 107.635C269.111 108.752 271.962 111.499 275.479 112.03C278.923 112.549 279.585 110.916 282.124 109.259C284.185 107.914 285.955 109.498 287.016 108.482C286.362 111.912 280.739 111.443 281.431 115.729C281.743 117.658 284.107 119.391 285.183 120.892C286.534 122.776 287.611 124.859 288.531 126.982C292.11 135.24 293.64 144.823 295.142 153.654C298.848 175.452 299.317 197.68 302.803 219.548C304.464 229.964 306.129 240.386 306.992 250.904C307.208 253.534 308.814 259.499 307.5 262.029C306.389 264.165 303.917 264.171 301.747 264.688C297.501 265.697 293.514 267.068 289.441 268.587C285.79 269.948 284.729 270.783 282.385 267.348C280.118 264.024 278.997 260.062 277.375 256.418C275.309 251.775 272.813 247.295 270.417 242.816C275.124 242.816 277.833 240.275 277.708 235.492C277.572 230.194 273.215 228.937 271.419 224.583C269.672 226.852 269.525 226.916 268.28 224.762C266.856 222.299 265.895 217.792 265.024 214.998C265.647 215.663 266.27 216.328 266.893 216.992C268.464 214.83 266.003 211.422 265.18 209.386C263.91 206.242 263.686 202.843 262.481 199.708C261.824 197.997 260.302 196.65 259.929 194.865C259.68 193.67 260.678 192.533 260.441 191.32C260.029 189.208 257.64 186.942 256.897 184.794C255.754 181.49 254.513 178.581 253.095 175.362C251.176 171.005 251.622 166.433 251.271 161.796C250.907 156.988 249.367 152.388 248.823 147.601C248.447 144.294 249.624 140.13 247.122 137.481C246.829 141.884 248.091 141.816 243.954 142.608C239.244 143.509 235.828 147.018 231.375 148.065C230.457 148.281 229.788 144.271 230.146 149.741C228.01 148.164 223.451 150.122 225.152 151.058C223.863 152.437 221.324 151.483 220.9 153.549C216.519 149.29 209.494 163.787 204.277 156.225C203.416 161.35 199.705 164.38 194.723 165.058C192.218 165.398 190.674 166.233 188.451 166.984C188 167.135 187.834 167.784 187.3 167.959C186.484 168.225 185.286 167.422 184.698 167.578C183.501 167.896 182.17 169.471 180.499 169.784C178.583 170.143 176.493 169.978 174.575 169.756C172.177 169.478 171.122 169.194 168.774 169.984C166.662 170.695 164.4 172.686 162.44 170.518C159.361 175.845 152.02 174.543 148.395 170.583ZM290.739 106.3C288.409 106.021 290.027 104.017 291.106 103.415C294.038 101.781 293.255 106.602 290.739 106.3ZM161.719 125.416C175.395 105.686 198.787 92.1304 219.369 80.7244C230.611 74.4944 242.086 68.4554 253.89 63.3564C259.759 60.8224 265.696 58.3864 271.689 56.1604C274.889 54.9714 278.128 53.8904 281.369 52.8144C282.265 52.5174 283.895 51.6054 284.833 51.6944C284.671 51.6784 287.164 52.3564 286.674 52.5694C288.28 51.8704 289.044 50.0474 290.932 49.3184C293.054 48.4984 295.757 48.1594 298.03 48.0854C300.041 48.0194 301.782 48.8504 303.698 48.9154C304.957 48.9574 306.027 48.3594 307.26 48.2714C307.891 48.2274 307.835 49.1714 308.215 49.2264C308.38 49.2504 310.06 48.6194 310.076 48.6304C310.688 49.0234 311.23 50.5574 311.783 51.1564C313.369 52.8744 315.697 54.0714 317.812 54.9754C320.386 56.0754 326.665 57.1814 323.755 61.2514C325.822 60.9544 326.784 62.8224 324.196 63.2954C322.794 63.5524 322.195 62.2684 321.154 61.3924C318.749 59.3724 312.911 56.4964 309.447 56.6264C307.498 56.6994 305.992 58.1784 304.195 58.7154C302.426 59.2434 301.55 58.4244 299.998 58.5544C298.184 58.7054 297.016 60.2404 295.287 60.5134C293.668 60.7694 292.766 59.6654 291.319 59.7424C289.599 59.8334 287.933 61.3274 286.291 61.8294C283.679 62.6274 281.761 63.1714 279.211 64.4944C274.269 67.0594 268.75 68.0334 263.657 70.2414C259.585 72.0064 254.968 72.9354 251.2 74.8874C247.01 77.0564 242.801 79.2174 238.698 81.5744C235.734 83.2774 229.708 83.8634 226.44 83.4304C226.393 89.4484 223.431 85.2294 220.446 87.8654C221.152 88.4884 221.954 88.9464 222.849 89.2394C219.614 90.5314 216.624 92.1394 213.49 93.6244C210.251 95.1604 206.795 95.4984 204.667 98.4034C202.707 101.08 203.371 99.6994 200.446 100.753C199.104 101.237 197.937 102.713 196.97 103.704C195.308 105.408 194.94 107.988 193.991 104.486C193.714 104.913 192.624 107.632 192.412 107.701C191.223 106.439 191.052 107.935 190.387 108.47C190.737 109.633 190.237 110.395 188.887 110.756C188.204 111.264 187.512 111.762 186.813 112.249C184.277 114.008 181.049 115.517 179.263 118.138C177.946 117.361 177.458 116.02 178.26 114.651C175.743 116.971 172.74 119.354 172.059 122.925C171.746 122.623 171.381 122.405 170.967 122.271C169.945 122.961 171.276 125.017 171.924 125.48C174.75 124.382 171.218 124.78 173.117 124.957C173.658 125.007 174.214 125.412 174.811 125.419C176.562 125.442 178.207 125.358 179.943 125.091C183.771 124.501 187.533 123.402 191.239 122.3C195.275 121.1 199.312 119.902 203.259 118.43C206.509 117.218 209.705 115.867 212.9 114.521C214.176 113.983 215.451 113.438 216.729 112.904C219.156 111.89 220.436 110.224 220.097 113.078C222.03 112.757 223.705 110.025 225.189 108.91C227.277 107.343 229.625 106.174 232.099 105.374C233.101 105.05 233.837 104.638 234.873 104.635C235.381 104.634 235.685 106.066 236.005 105.988C238.225 105.45 237.213 104.22 238.211 102.448C240.394 98.5754 246.274 96.4334 249.885 94.2334C252.177 92.8364 253.804 90.9574 255.92 89.4104C256.91 88.6874 257.629 88.3674 258.666 88.0614C259.46 87.8264 260.434 89.6504 260.949 87.8174C259.102 87.0624 257.579 86.1314 255.802 85.5804C254.545 85.1894 256.053 83.8524 254.061 84.6484C253.261 84.9684 252.986 86.5164 252.692 87.1644C250.467 85.1774 244.211 87.2364 241.571 88.0684C241.389 88.1254 240.574 87.6954 240.19 87.7214C238.666 87.8234 237.605 89.8744 236.602 90.7584C233.935 93.1074 231.042 94.0894 227.758 95.4304C228.632 90.6554 235.055 88.6994 238.804 86.8704C244.284 84.1964 249.386 80.7834 255.386 79.3454C259.382 78.3864 264.677 77.6154 266.403 82.2614C267.436 85.0464 267.566 91.9654 264.071 93.2504C263.702 91.9504 264.884 90.8394 265.24 89.7114C261.761 91.0394 261.188 95.2184 258.546 97.3994C257.061 98.6244 256.53 99.0174 255.812 100.201C255.099 101.377 254.757 102.474 253.086 103.725C250.355 97.9244 250.817 105.87 249.432 106.867C249.989 106.466 247.175 107.637 247.511 107.513C247.381 107.561 246.155 105.575 245.36 105.617C243.913 105.693 244.191 107.286 243.494 108.088C241.131 110.802 238.078 112.582 234.275 112.155C234.186 114.086 234.782 116.393 232.145 116.569L231.799 112.288C230.364 113.74 228.475 115.119 227.307 116.8C225.978 118.713 226.12 119.891 223.915 121.166C221.611 122.499 216.709 125.125 213.967 125.352C214.645 124.39 214.525 123.521 213.609 122.747C212.23 124.169 210.194 124.309 208.726 125.593C213.822 127.722 204.811 127.612 203.668 127.853C202.903 128.015 202.235 128.712 201.46 128.869C200.431 129.078 200.298 127.996 199.412 128.339C198.116 128.841 198.642 130.258 197.286 130.97C196.312 131.482 194.66 131.475 193.561 131.961C190.942 133.121 185.363 135.69 183.593 132.574C182.696 137.92 173.535 134.666 170.144 134.306C165.5 133.813 157.411 131.633 161.719 125.416ZM181.225 70.7184C181.882 70.1574 182.54 70.1984 183.198 70.8424C182.282 66.0044 189.367 63.6554 192.458 61.5984C196.558 58.8704 201.384 53.5774 206.749 53.9964C205.834 54.6744 204.921 55.3524 204.007 56.0304C205.312 56.1994 206.616 56.3684 207.919 56.5374C207.184 57.6174 206.448 58.6964 205.711 59.7754C204.507 53.1394 198.225 61.5174 196.407 62.7384C194.576 63.9674 192.75 64.8834 191.123 66.3824C189.511 67.8674 188.056 70.5414 185.391 69.2054C185.148 72.9954 182.101 71.9674 179.994 74.0664C179.906 72.7494 180.66 71.8184 181.225 70.7184ZM209.059 51.7994C215.544 49.3704 221.19 44.8794 227.301 41.6714C233.138 38.6064 239.093 35.8544 245.027 32.9954C248.037 31.5444 253.551 27.7924 256.992 29.7044C261.635 32.2864 255.243 33.1194 253.583 34.0134C252.969 30.0374 250.818 33.6394 252.103 35.8514C248.56 34.3214 240.833 40.3074 237.453 41.9584C236.688 42.3324 237.031 42.5484 236.161 42.9884C235.947 43.0964 233.729 43.6014 233.094 43.8144C229.912 44.8794 227.815 44.0334 226.444 47.8744C226.157 46.9704 225.87 46.0654 225.583 45.1604C223.591 49.6334 217.536 51.5914 213.664 54.2364C212.666 54.9184 209.816 57.5634 208.55 57.0164C206.788 56.2544 207.495 52.3844 209.059 51.7994ZM326.046 65.2854C328.784 65.4664 326.144 66.7434 326.896 67.5874C326.811 67.4924 328.545 68.9714 328.318 68.5654C328.624 69.1114 329.359 69.0914 329.735 70.2014C331.03 74.0184 325.375 77.9624 323.468 80.1284C319.76 84.3414 317.617 89.6764 313.753 93.7544C312.008 95.5964 310.272 96.8684 307.853 97.5554C306.16 98.0364 304.369 97.5214 302.813 99.1494C301.56 100.46 301.844 101.205 300.459 101.902C298.019 103.131 296.944 102.053 294.57 104.709C292.527 99.1554 298.397 99.1644 301.46 96.0604C305.688 91.7754 310.321 87.4524 314.286 82.8684C317.808 78.7954 319.219 75.2244 320.891 70.2764C321.418 68.7164 321.992 65.3714 323.445 64.3924C325.708 62.8684 324.35 65.1724 326.046 65.2854ZM339.51 209.565C346.691 201.533 355.599 194.321 365.255 189.483C368.706 187.753 373.619 185.483 377.196 188.146C380.704 190.756 379.949 195.963 378.535 199.505C377.18 198.973 378.459 193.995 377.756 192.765C376.222 190.081 372.912 191.506 370.66 192.406C368.022 193.46 365.668 194.624 363.579 196.537C362.731 197.312 361.108 198.007 360.565 198.54C359.749 198.201 359.268 198.448 359.124 199.28C359.292 199.79 359.272 200.292 359.063 200.786C358.944 200.943 357.883 200.299 357.732 200.428C357.044 201.017 356.4 201.71 355.723 202.257C354.364 203.356 353.208 203.876 351.957 205.408C349.541 208.369 346.345 210.104 343.918 212.925C343.37 213.563 342.713 215.198 342.59 215.341C341.363 216.773 339.544 217.906 338.16 219.422C335.767 222.041 333.212 223.799 330.451 226.045C329.262 227.011 327.875 228.052 327.084 229.396C326.724 230.009 326.521 233.369 326.508 233.383C323.8 236.351 324.327 230.385 324.531 229.637C326.73 221.588 334.165 215.545 339.51 209.565ZM324.729 263.992C325.066 265.256 325.343 266.301 325.685 267.584C323.538 265.823 323.538 265.823 324.729 263.992ZM322.41 268.132C321.621 268.927 320.828 269.717 320.029 270.502C318.272 268.645 322.732 267.814 322.41 268.132ZM321.295 236.17C320.455 239.568 317.38 243.687 315.266 246.369C315.499 246.073 313.462 246.668 313.23 246.803C312.477 247.239 314.28 250.065 311.671 248.802C310.745 249.326 312.568 251.46 311.31 252.415C307.674 244.13 317.602 236.952 321.446 230.802C323.326 232.528 321.767 234.265 321.295 236.17ZM297.678 280.964C300.329 281.646 301.708 281.217 303.498 278.613C304.574 277.049 304.967 274.279 307.428 276.619L307.862 273.61C311.375 275.051 311.08 280.259 312.615 283.145C313.362 279.88 315.131 270.759 320.548 272.222C326.629 273.865 316.508 284.323 315.568 286.885C313.501 283.677 314.314 286.661 312.737 287.113C311.384 287.502 309.27 286.506 307.626 286.596C302.624 286.868 298.23 289.118 293.661 291.023C292.504 287.904 291.348 284.785 290.191 281.666C292.881 281.873 298.443 274.713 299.233 279.917C297.238 279.57 296.676 279.658 295.704 281.474C296.325 281.159 296.983 280.989 297.678 280.964ZM308.906 321.675C308.898 321.65 314.08 321.97 314.542 321.801C318.088 320.506 316.777 316.484 317.502 313.641C318.964 314.985 318.189 317.438 318.64 319.177C319.169 321.221 320.701 322.963 320.843 325.149C321.166 330.088 317.113 328.992 314.041 330.59C311.416 331.956 311.125 333.674 308.908 329.993C308.308 328.997 307.018 326.402 307.15 325.128C307.28 323.866 309.279 322.817 308.906 321.675ZM313.082 343.047L311.649 341.442C315.919 342.749 313.401 340.784 314.383 338.097C317.66 340.279 320.333 342.522 322.926 338.153L327.406 356.223C324.397 356.931 320.515 352.282 318.451 350.685C317.259 349.762 310.644 346.207 314.616 345.171C314.104 344.463 313.593 343.755 313.082 343.047ZM342.326 286.305C339.839 288.67 337.334 289.994 334.626 291.853C332.251 293.485 333.069 295.358 331.01 297.178C329.643 298.388 326.438 299.62 324.749 300.543C321.74 302.187 319.045 302.5 315.95 300.66C316.792 307.441 312.148 307.972 306.367 309.315C303.61 309.956 301.978 310.935 299.991 308.41C298.63 306.682 298.097 303.553 299.79 301.972C302.479 299.46 309.643 300.327 313.093 298.747C315.711 297.549 318.378 290.798 321.608 293.255C319.941 290.6 321.882 289.885 323.331 287.992C324.918 285.917 325.893 283.491 327.535 281.433C330.655 277.521 335.445 273.586 339.876 271.227C343.775 269.152 345.822 270.621 346.406 274.979C346.7 277.17 346.689 280.434 345.462 282.378C345.071 282.998 343.78 283.005 343.389 283.587C342.708 284.604 343.333 285.347 342.326 286.305ZM388.079 233.712C391.19 236.12 390.887 241.18 391.377 244.626C392.068 249.483 391.567 254.183 391.493 259.13C391.415 264.313 388.872 267.689 387.675 272.547C386.345 277.951 384.628 280.813 381.644 285.348C384.88 285.857 380.064 295.521 379.27 296.772C378.408 298.13 371.457 304.388 374.437 304.388C372.793 306.556 371.003 308.781 369.365 310.889C368.72 311.719 367.589 312.045 367.081 312.631C366.046 313.822 365.983 314.884 365.242 316.274C364.117 318.383 363.747 317.82 362.268 319.35C361.247 320.407 360.577 321.802 359.574 322.815C356.342 326.078 355.93 323.405 354.123 320.892C353.846 321.565 353.354 321.987 352.647 322.158C352.081 319.314 355.977 316.441 357.615 314.713C360.298 311.881 362.75 308.761 365.122 305.664C370.202 299.028 374.767 291.978 378.369 284.426C382.201 276.389 385.262 267.691 386.852 258.923C388.064 252.24 389.216 240.776 380.286 239.076C373.791 237.84 366.631 241.786 361.277 244.981C358.014 246.927 354.733 248.862 351.625 251.051C348.251 253.425 345.335 256.785 341.673 258.69C343.676 257.648 337.067 260.784 338.079 259.902C337.605 260.314 338.014 261.573 337.701 262.141C337.293 262.88 335.875 263.61 335.239 264.088C333.559 265.35 330.875 266.641 330.111 268.725C319.455 261.123 340.646 247.627 346.078 244.19C356.853 237.373 375.602 224.053 388.079 233.712ZM416.823 159.779C416.721 154.305 421.179 146.832 424.19 142.368C425.663 140.183 428.016 140.27 428.879 137.693C429.377 136.209 428.724 134.653 428.872 133.163C429.072 131.148 429.946 129.532 430.954 127.8C440.067 112.143 451.139 98.2854 462.932 84.6254C468.747 77.8914 474.26 70.8984 480.531 64.5724C483.151 61.9304 490.192 52.4324 494.22 53.3824C496.353 53.8854 497.594 57.1404 498.557 58.8014C500.149 61.5484 501.9 64.1214 503.835 66.6474C508.942 73.3164 514.833 79.1704 521.79 83.8974C526.134 86.8514 530.523 89.7224 534.771 92.8174C538.268 95.3644 543.555 98.2764 546.052 101.852C548.55 105.429 544.882 108.458 542.877 111.428C539.761 116.047 536.895 120.833 533.766 125.447C532.523 124.553 532.844 122.737 531.992 121.592C531.236 120.577 530.167 120.164 529.123 119.537C527.122 118.338 525.158 116.872 523.351 118.881C520.188 122.397 524.537 130.708 529.225 129.796C529.777 133.266 520.416 138.981 518.07 140.891C510.87 146.749 503.443 151.842 493.932 152.372C490.083 152.586 486.078 152.294 482.421 151.006C480.669 150.389 478.732 149.542 477.389 148.197C475.781 146.587 475.371 144.191 473.811 142.597C472.458 141.214 470.6 141.001 469.248 139.613C467.894 138.224 467.225 136.03 466.676 134.231C465.602 130.716 465.399 127.009 464.367 123.486C463.746 121.367 463.236 118.534 461.211 120.57C458.27 123.528 459.747 132.829 460.5 136.373C461.577 141.429 464.102 145.505 466.747 149.855C469.615 154.574 470.674 158.951 471.188 164.411C472.15 174.632 475.083 184.44 479.647 193.636C481.568 197.508 483.869 201.149 485.943 204.932C486.912 206.697 489.083 212.719 491.718 212.687C495.928 212.635 489.931 200.358 489.099 198.297C484.487 186.882 480.082 174.884 479.094 162.524C485.705 164.227 492.911 165.843 499.757 164.764C495.338 174.646 499.954 184.485 499.389 194.657C499.107 199.758 498.903 204.464 499.008 209.55C499.101 214.01 497.087 218.468 495.346 222.501C491.888 230.51 487.535 240.39 481.113 246.525C475.744 251.654 468.562 252.055 461.547 250.874C445.589 248.186 435.104 235.919 428.407 221.987C424.104 213.037 420.815 203.483 418.773 193.763C416.409 182.514 417.033 171.189 416.823 159.779ZM437.547 83.9684C422.655 73.1934 444.295 60.9574 455.31 62.6234C457.894 63.0134 462.648 64.0814 462.406 67.4534C462.208 70.2094 457.611 73.2814 455.846 74.9824C450.813 79.8364 445.691 89.8594 437.547 83.9684ZM545.881 323.385C545.37 322.927 541.202 324.051 542.853 321.585C544.225 319.536 548.029 322.104 549.411 322.631C548.272 323.418 547.281 324.637 545.881 323.385ZM483.872 453.704C482.592 453.862 481.254 450.41 485.868 452.989C485.203 453.227 484.537 453.466 483.872 453.704ZM483.74 509.965C483.899 511.512 484.372 512.532 483.273 513.657C482.344 512.512 482.224 510.897 483.74 509.965ZM485.613 533.211C485.477 534.053 485.341 534.895 485.207 535.736C484.141 535.197 483.077 534.658 482.011 534.118C483.211 533.816 484.413 533.514 485.613 533.211ZM486.917 513.609C488.505 514.203 487.766 512.304 488.919 512.037C489.332 514.014 488.823 515.707 487.688 517.338C487.58 516.952 486.998 513.638 486.917 513.609ZM527.501 373.334C525.273 373.05 524.936 375.404 523.275 376.317C522.203 376.907 518.939 376.464 518.33 377.593C519.134 377.825 519.939 378.058 520.743 378.29C518.902 379.282 517.061 380.275 515.22 381.267C519.648 381.267 524.262 379.152 528.66 379.773C530.519 380.036 531.882 380.664 533.048 382.176C533.756 383.094 534.378 384.571 534.492 385.695C534.615 386.911 533.667 387.751 533.835 388.331C535.817 388.385 535.583 391.636 535.138 392.961C534.173 395.834 530.34 400.333 526.905 398.511C528.342 400.55 527.976 401.714 525.851 402.897C526.044 402.223 526.186 401.044 525.1 401.161C524.821 402.291 524.928 404.083 524.005 404.935C522.972 405.888 522.05 404.774 521.062 405.394C519.891 406.13 520.243 407.285 519.322 408.083C518.104 409.137 517.93 408.388 516.474 408.593C514.269 408.905 515.676 407.535 513.91 409.321C513.299 409.937 513.402 411.54 512.412 412.442C510.51 414.173 505.435 415.977 503.613 413.757C499.232 420.7 486.101 422.366 479.989 416.885C470.241 408.144 488.417 390.367 494.418 384.733C500.441 379.079 507.131 374.195 513.9 369.481C517.746 366.803 521.693 364.372 525.723 361.986C528.209 360.513 531.331 357.824 534.386 358.082C537.126 358.314 539.467 360.44 542.352 360.861C544.438 361.165 548.491 361.667 545.859 364.497C544.628 365.819 539.794 367.957 538.148 368.279C537.181 368.468 536.162 368.106 535.204 368.302C533.582 368.635 532.468 370.004 530.703 369.83C531.262 372.449 530.242 373.682 527.501 373.334ZM556.35 276.104C556.351 278.153 552.611 277.642 551.83 276.946C550.544 275.801 550.499 272.377 550.022 270.82C552.196 271.367 556.348 273.369 556.35 276.104ZM526.222 208.506C534.078 202.049 542.338 196.129 551.07 190.915C554.197 189.048 558.612 185.282 562.496 185.752C564.125 185.95 567.493 187.821 566.266 189.884C566.037 190.27 564.224 190.425 563.664 190.705C563.029 191.022 562.531 191.896 561.942 192.328C557.862 195.321 552.96 197.16 548.867 200.225C545.503 202.742 542.366 205.558 538.745 207.718C535.271 209.789 531.641 211.1 528.343 213.394C528.408 213.348 524.053 214.914 524.907 215.199C521.084 213.92 525.122 209.411 526.222 208.506ZM578.6 206.101C583.267 204.241 587.833 201.984 592.719 200.734C595.157 200.11 597.66 199.641 600.184 199.922C600.613 199.171 601.184 199.005 601.898 199.424C602.455 200.28 603.189 200.937 604.101 201.396C605.493 202.466 610.618 203.865 609.594 206.228C608.917 207.791 603.778 207.921 602.368 208.272C598.117 209.331 594.153 211.713 589.774 212.298C589.363 212.353 588.021 211.855 588.006 211.858C586.297 212.231 584.875 214.004 583.407 214.854C580.247 216.683 575.707 216.99 573.438 220.147C580.786 225.128 587.161 220.188 593.621 216.427C597.491 214.175 601.645 212.55 605.874 211.106C608.084 210.352 610.314 209.568 612.554 208.906C613.481 208.568 614.434 208.325 615.412 208.176C616.322 207.995 616.973 208.326 617.366 209.17C620.074 209.08 620.306 207.381 621.936 210.55C624.234 215.018 620.718 214.791 617.414 215.34C612.832 216.1 608.172 217.812 603.657 218.947C602.616 219.209 593.485 221.326 593.474 221.401C593.06 224.283 619.266 221.614 621.516 221.182C625.486 220.418 629.744 218.249 633.854 218.772C637.01 219.173 644.199 223.803 639.165 226.879C638.174 222.135 634.772 226.053 632.996 227.654C630.63 229.785 627.24 229.58 623.995 230.415C619.557 231.555 608.196 235.833 605.044 230.379C606.041 235.159 587.931 232.73 585.441 232.572C583.014 232.417 579.881 232.933 577.535 232.241C576.005 231.79 575.154 230.795 573.714 230.571C573.361 230.951 572.938 231.21 572.446 231.347C571.716 230.978 571.057 230.508 570.469 229.939C565.619 227.71 558.115 226.478 560.81 219.377C563.352 212.68 572.435 208.559 578.6 206.101ZM624.059 210.24C624.18 209.823 624.301 209.406 624.421 208.988C624.436 210.267 627.486 210.813 627.134 212.47C626.353 216.139 622.833 210.626 622.531 210.025C623.041 210.097 623.549 210.168 624.059 210.24ZM642.681 216.336C643.034 217.839 647.09 221.039 646.085 221.777C644.486 219.603 640.066 220.59 642.681 216.336ZM574.264 353.476C575.749 350.531 580.238 355.546 579.764 350.518C582.205 350.739 580.681 352.596 583.606 351.78C584.702 351.474 585.443 350.259 586.779 349.979C587.135 349.904 588.674 350.026 589.205 350.01C590.964 349.956 597.858 349.76 593.113 347.453C595.769 345.697 596.096 346.588 598.493 348.197C597.878 344.871 601.405 346.759 603.047 347.174C601.876 345.277 604.782 343.259 605.725 341.977C605.387 343.952 605.565 346.163 608.423 344.9C609.135 344.586 608.975 343.19 609.54 342.962C610.574 342.545 611.152 343.304 611.523 343.261C611.888 343.22 612.657 343.425 613.424 343.136C614.421 342.761 613.94 341.423 615.204 341.224C616.027 341.095 616.628 342.305 617.633 342.315C618.149 342.32 619.01 341.796 619.402 341.824C619.471 341.829 619.962 340.645 620.565 340.616C621.447 340.573 621.806 342.936 622.128 343.395C623.672 345.585 625.725 347.013 628.093 348.181C623.809 352.109 615.167 351.693 609.78 353.017C606.862 353.735 604.373 354.77 601.703 356.104C601.059 356.523 600.504 357.037 600.04 357.646C599.662 357.395 599.283 357.144 598.905 356.893C597.442 356.983 596.058 356.259 594.411 356.537C589.324 357.395 585.341 361.206 580.171 362.055C577.848 362.437 575.939 362.97 574.426 360.956C573.098 359.19 573.318 355.354 574.264 353.476ZM567.289 330.003C568.442 330.978 567.055 334.152 569.287 333.807C570.871 333.562 570.555 331.105 571.799 330.584C573.433 329.901 574.419 331.522 575.955 331.372C578.818 331.09 578.654 328.59 576.235 327.492C578.75 326.828 579.556 329.802 581.783 329.775C584.708 329.74 584.01 326.289 586.499 325.717C587.577 325.469 587.217 327.052 587.916 327.249C589.316 327.642 590.291 326.967 591.529 326.373C592.637 325.842 593.426 324.816 594.637 324.468C595.188 324.309 596.588 324.6 596.992 324.305C597.807 323.711 598.537 321.397 599.339 321.091C599.175 321.153 601.805 322.471 602.182 322.595C601.951 323.572 601.416 323.688 600.576 322.944C600.576 325.149 606.704 325.836 605.447 323.111C608.761 324.483 606.293 325.189 605.962 327.104C605.83 327.874 605.382 327.853 605.515 328.667C605.576 329.042 607.313 328.719 607.292 329.23C607.145 332.521 596.656 333.533 594.669 333.823C590.555 334.424 586.662 335.435 582.696 336.68C579.743 337.607 574.653 340.262 571.511 340.097C566.992 339.86 566.403 333.964 567.289 330.003ZM557.192 296.421C556.09 292.76 559.625 285.198 564.229 286.143C565.361 286.375 565.64 287.313 566.518 287.729C567.744 288.311 569.738 288.005 570.801 288.606C573.184 289.955 571.983 293.392 574.371 294.634C570.601 295.548 558.943 302.24 557.192 296.421ZM561.555 310.645C563.179 309.772 565.812 309.66 566.919 307.981C567.471 308.363 568.514 310.682 569.503 310.327C569.965 310.162 570.442 308.905 570.409 308.906C571.29 308.881 571.465 307.688 572.812 307.822C574.048 307.946 575.432 309.432 576.533 309.986C576.344 306.302 577.288 305.95 580.275 303.978C580.93 303.546 581.477 301.924 582.081 301.268C581.503 305.134 582.96 305.155 586.047 305.736C589.917 306.464 592.328 308.542 593.879 312.281C590.581 311.638 586.327 312.412 585.027 315.957C582.395 311.148 572.829 317.784 569.734 319.143C567.437 320.152 564.765 321.508 562.839 319.157C561.483 317.501 562.26 315.509 562.289 314.038C562.297 313.576 562.774 313.549 562.73 312.861C562.674 311.983 561.531 311.632 561.555 310.645ZM596.765 386.266C595.894 386.596 591.411 386.781 591.382 385.296C591.358 383.984 599.294 385.306 596.765 386.266ZM589.483 381.462C586.091 383.553 582.296 376.185 581.049 374.063C584.607 374.518 586.344 371.542 588.44 369.28C590.434 373.649 593.462 371.34 596.647 369.881C600.403 368.16 604.519 368.147 608.367 366.766C609.568 366.335 610.675 365.694 611.847 365.201C612.791 364.848 613.732 364.486 614.669 364.115C615.334 363.515 615.571 362.776 615.377 361.9C615.062 361.164 615.277 360.699 616.022 360.507C616.908 360.771 617.812 360.925 618.736 360.966C620.219 360.672 622.35 359.273 620.56 357.765C622.478 356.023 624.399 357.755 626.246 358.518C625.807 357.267 625.37 356.016 624.931 354.765C625.847 355.154 628.567 358.954 628.844 358.933C630.602 358.801 630.419 356.442 631.429 355.49C632.012 356.209 632.179 361.57 634.471 359.764C635.451 358.992 633.341 356.362 632.821 355.763C635.443 356.355 637.732 359.485 638.441 361.915C637.196 362.095 636.045 361.845 634.988 361.163C634.312 364.547 640.576 363.176 641.59 364.944C643.576 368.405 630.658 370.809 628.975 371.13C625.607 371.772 621.632 372.011 618.545 373.504C615.587 374.933 614.887 375.342 611.431 375.61C607.486 375.916 603.637 377.216 599.821 378.228C596.508 379.106 592.42 379.652 589.483 381.462ZM661.583 257.571C664.698 256.45 675.19 250.633 677.861 253.22C677.579 252.946 679.787 257.508 679.764 257.221C679.954 259.594 679.896 260.549 676.975 261.686C674.883 262.5 673.061 260.77 671.179 261.457C669.112 262.212 670.558 263.548 669.494 264.481C668.328 265.504 666.08 265.946 664.629 266.394C661.077 267.491 657.497 268.408 653.962 269.59C646.769 271.995 639.152 274.233 631.76 275.934C626.236 277.205 616.86 280.364 611.77 276.633C611.273 278.754 610.059 278.464 608.373 278.773C607.05 279.015 604.658 279.67 603.482 279.704C601.525 279.761 596.084 279.248 596.833 276.503C596.627 277.259 601.065 274.671 600.297 274.51C602.182 274.907 601.571 273.958 603.115 273.43C605.132 272.741 607.24 272.778 609.299 272.048C614.49 270.208 618.844 267.82 624.323 266.667C636.838 264.034 649.509 261.916 661.583 257.571ZM159.886 541.163C158.872 541.19 158.083 538.309 161.168 540.366C160.741 540.632 160.314 540.897 159.886 541.163ZM135.516 537.435C134.137 537.788 133.587 537.018 133.868 535.127C135.791 534.367 136.34 535.136 135.516 537.435ZM116.702 533.576C116.349 531.89 117.599 531.51 118.732 530.753C118.618 532.987 118.618 532.987 116.702 533.576ZM69.3644 519.702C67.4574 519.283 64.9164 517.418 64.4794 520.549C64.1604 519.824 62.5324 516.414 63.2314 515.625C63.5964 515.212 64.9784 517.122 64.8314 516.933C66.5004 513.557 69.3774 517.631 70.9854 518.836C70.4454 519.125 69.9044 519.414 69.3644 519.702ZM565.18 146.606C565.838 145.214 566.615 144.772 567.507 145.281C566.105 148.537 561.357 150.302 565.18 146.606ZM598.17 116.042C599.346 118.247 597.577 119.179 596.314 121.012C597.053 119.035 597.565 117.665 598.17 116.042ZM741.549 331.286C745.791 331.285 754.827 329.046 757.385 333.895C759.078 330.6 761.002 336.779 762.471 337.77C762.636 337.882 763.694 337.073 764.186 337.371C764.928 337.82 765.568 339.043 765.993 339.77C767.274 341.962 767.825 344.568 768.535 346.98C761.126 346.98 753.529 345.255 746.126 344.628C741.267 344.216 736.503 344.204 731.637 344.466C730.67 344.518 728.75 344.199 727.923 344.381C727.083 344.566 725.56 346.277 724.634 346.002C726.073 348.703 744.502 355.242 745.908 352.251C744.242 351.243 740.542 350.469 740.545 348.033C740.548 345.304 744.016 345.309 745.854 345.389C749.874 345.565 756.606 346.903 758.254 351.083C758.96 352.875 759.177 357.387 758.401 359.117C757.9 360.234 757.052 361.577 755.708 361.804C755.157 361.897 754.363 361.164 754.279 361.182C751.521 361.767 746.416 363.982 743.408 360.859C741.239 363.666 730.791 360.6 727.592 359.541C721.998 357.689 714.295 355.146 710.897 349.926C706.755 343.564 715.176 338.187 720.011 335.601C726.62 332.067 734.171 331.289 741.549 331.286ZM769.78 345.996C771.081 346.363 772.381 346.731 773.681 347.098C773.333 349.378 768.203 347.574 769.78 345.996ZM809.089 428.873C809.489 419.738 806.848 411.693 805.323 402.858C804.945 400.668 805.331 396.839 803.667 395.038C802.078 393.316 798.531 394.716 798.39 391.672C796.825 393.505 796.983 393.888 795.054 391.78C795.406 392.684 795.457 393.603 795.207 394.539C794.01 393.853 789.672 391.575 790.037 394.69C786.47 393.901 787.503 391.67 785.468 389.967C785.179 389.725 784.018 390.584 783.565 390.218C782.747 389.555 782.342 388.953 781.652 388.099C780.775 389.159 779.581 389.925 778.509 390.763C777.886 389.406 776.673 388.41 775.215 388.08C776.578 390.932 779.948 394.626 775.326 396.249C772.567 397.217 768.048 396.03 765.126 396.256C754.296 397.096 742.434 394.735 731.963 392.155C721.206 389.505 710.328 385.764 700.654 380.296C698.592 379.13 697.293 377.75 695.517 376.304C693.791 374.898 692.536 374.676 690.461 373.777C686.726 372.159 683.31 369.564 680.469 366.672C674.36 360.453 668.684 352.32 670.385 343.215C672.081 334.14 678.319 327.048 684.994 321.072C692.877 314.014 701.778 308.121 711.224 303.37C715.448 301.247 726.252 293.269 730.425 297.937C733.092 300.919 731.592 304.724 727.948 305.387C727.049 305.551 726.11 304.948 725.201 305.361C723.891 305.957 724.352 306.661 723.811 307.158C722.872 308.021 721.874 309.367 720.471 310.115C715.574 312.726 710.84 314.795 706.159 317.975C704.001 319.44 701.924 320.07 700.022 321.349C698.13 322.62 697.7 324.724 695.156 323.426C696.062 327.126 690.622 331.088 688.49 333.355C685.187 336.865 681.227 341.345 682.768 346.538C685.785 356.704 699.416 364.425 708.139 368.894C719.025 374.47 731.03 378.909 743.151 380.746C749.177 381.659 755.405 382.223 761.476 382.802C766.203 383.253 773.457 381.602 776.858 385.859C776.963 380.895 792.467 381.333 795.767 380.698C789.151 358.083 776.16 337.976 762.272 319.19C755.456 309.968 748.762 300.484 740.993 292.03C732.487 282.775 722.769 274.504 713.536 265.988C695.426 249.285 674.944 234.378 654.102 221.246C633.308 208.145 611.773 195.251 588.992 185.91C562.973 175.242 535.58 168.225 508.157 162.249C511.877 157.509 517.928 155.197 522.691 151.729C524.359 150.515 526.613 147.601 528.779 147.203C531.125 146.771 532.972 149.295 534.642 150.562C539.435 154.198 542.75 152.654 548.24 152.435C551.525 152.304 559.304 154.133 560.689 149.69C562.531 152.142 559.86 154.108 558.493 155.906C559.488 157.294 560.29 155.854 561.273 155.637C561.576 155.386 561.878 155.134 562.181 154.883C562.669 154.177 563.109 154.173 563.5 154.869C564.086 155.751 564.676 155.556 565.27 154.283C565.433 154.181 565.595 154.078 565.758 153.976C566.468 153.598 567.153 153 567.813 152.529C572.802 148.964 577.248 145.927 582.755 143.301C587.38 141.097 584.893 136.88 587.942 133.902C588.632 133.228 589.793 133.566 590.531 132.995C591.253 132.434 591.362 131.798 591.889 131.197C593.156 129.752 591.648 128.075 594.88 129.844L593.714 123.283C600.051 129.431 600.026 111.739 600.892 109.121C600.778 109.467 601.461 106.788 601.46 106.811C601.646 101.502 602.371 97.6544 596.153 97.3464C598.507 95.8654 599.227 98.7574 600.314 95.7634C600.858 94.2634 599.159 91.6854 601.867 92.6524C602.438 89.4644 601.874 86.8844 601.164 83.7864C600.436 80.6154 600.864 78.4994 600.897 75.3284C600.934 71.7314 599.25 68.1164 598.711 64.5744C598.289 61.8004 598.724 57.4254 595.138 58.4444C594.634 57.6554 596.405 55.2284 596.333 54.0284C596.221 52.1644 594.198 50.2704 593.625 48.4804C592.782 49.3504 591.594 49.6404 590.447 49.2474C591.524 46.8154 590.513 45.9984 589.482 43.9014C588.891 42.7004 589.248 41.3744 587.983 40.5134C587.258 40.0194 586.022 40.8514 585.454 40.2724C584.236 39.0324 584.686 37.3874 583.848 35.7534C582.797 33.7044 580.396 32.1394 578.742 30.6014C569.441 21.9564 559.339 15.3494 546.967 11.9714C534.486 8.56343 519.935 7.34243 507.496 11.2734C502.524 12.8444 498.11 12.6834 493.635 15.6174C492.184 16.5694 492.028 16.3144 491.291 17.9014C491.121 18.2714 492.666 19.2564 491.72 19.8614C490.692 20.5184 489.557 19.1824 489.033 18.0734C482.559 22.7594 476.493 29.0064 472.806 36.1694C469.142 43.2874 468.806 51.6494 467.407 59.3844C460.954 52.0124 452.226 48.4784 442.737 52.0224C434.466 55.1104 428.057 61.8984 426.439 70.6924C425.452 76.0534 426.53 81.4824 428.965 86.3194C430.018 88.4094 431.293 90.7234 433.229 92.1304C434.76 93.2424 437.382 93.0864 438.103 95.0924C439.208 98.1654 432.826 104.802 431.169 107.492C428.172 112.36 425.387 117.387 423.267 122.704C415.666 111.967 408.39 100.24 399.747 90.3404C391.59 80.9964 381.866 72.6164 372.329 64.7184C352.535 48.3264 331.953 32.9264 309.811 19.8674C289.194 7.70743 264.29 0.956429 240.262 3.34343C216.785 5.67643 198.811 20.5244 183.686 37.6494C154.604 70.5764 136.792 117.507 135.052 161.338C134.529 174.505 135.532 187.5 138.784 200.271C140.333 206.352 140.108 212.333 141.008 218.492C142.024 225.44 143.781 232.363 145.48 239.169C151.952 265.096 160.198 291.003 169.451 316.071C174.262 329.107 180.083 341.851 187.958 353.346C191.595 358.656 196.307 362.81 200.221 367.852C204.018 372.742 205.021 378.744 205.856 384.744C207.858 399.131 209.186 413.579 210.39 428.05C210.901 434.183 211.498 440.262 212.31 446.352C213.018 451.662 211.237 451.401 206.77 453.204C207.676 448.433 186.334 451.679 184.319 452.005C182.126 452.359 179.804 452.364 178.077 452.646C176.146 452.96 174.256 453.415 172.032 453.351C168.763 453.257 162.642 452.422 161.394 456.595C160.535 451.757 154.861 457.047 159.059 456.149C154.75 456.631 150.353 455.829 145.992 456.235C140.994 456.699 135.953 457.141 130.99 457.893C127.535 458.416 124.238 459.747 120.777 460.133C116.348 460.628 111.726 460.582 107.254 460.976C90.7594 462.431 73.6624 466.029 57.6284 470.149C53.9964 471.082 49.8234 471.745 46.3534 473.243C45.4244 473.643 44.5884 474.539 43.6984 474.883C42.2064 475.459 42.4104 475.061 41.0854 475.325C33.1464 476.912 24.9564 479.504 17.0184 481.538C12.6154 482.667 5.45342 483.685 1.86142 486.758C0.251421 488.134 -1.15558 490.575 1.42442 492.139C3.48542 493.388 6.42742 491.394 8.09542 490.316C6.60942 494.189 3.80642 496.119 5.32042 500.525C6.51542 504.007 9.21342 508.298 13.3644 506.052C13.9204 507.345 14.1454 509.917 15.7824 510.392C17.2534 510.819 18.3184 508.955 19.7594 509.394C20.2754 509.551 20.0794 510.526 20.5414 510.781C21.3374 511.219 22.1444 511.405 23.0564 511.714C23.8404 511.98 25.1024 512.526 25.9204 512.584C26.4394 512.621 27.6624 511.733 27.6584 511.733C28.8504 511.914 29.4914 514.195 30.3494 514.854C31.4634 515.71 32.3834 515.905 33.7784 516.215C36.6784 516.859 40.4164 517.963 42.3304 514.994C41.8924 517.114 44.7754 516.906 46.0474 517.175C45.9064 516.058 45.2894 515.035 44.3374 514.422C47.1814 514.61 46.0284 517.437 48.1304 518.184C49.6284 518.715 49.4584 517.365 50.6044 517.215C52.1144 517.018 53.2604 518.114 55.6184 517.103C56.1294 519.374 56.3164 521.664 59.1054 522.003C60.7424 522.202 64.5594 519.246 64.3434 521.706C68.0004 520.634 69.3884 521.359 71.2994 524.582C71.6224 522.603 73.1854 523.177 74.6194 523.055C76.8924 522.861 76.9504 523.044 78.7124 521.757C78.8734 521.64 80.2594 518.465 80.8754 520.438C81.1524 521.322 79.3214 523.402 78.6434 523.931C79.4854 524.357 82.2444 525.848 83.3054 525.574C84.2234 525.337 84.2264 523.768 85.3294 523.687C85.0594 524.589 84.7904 525.492 84.5194 526.394C86.6654 526.706 88.4584 525.27 90.1534 524.218C91.7694 528.304 96.3884 526.002 98.9004 529.077C100.229 530.704 100.291 531.94 102.823 532.365C105.414 532.8 107.677 531.663 109.879 533.8C109.181 532.474 107.442 531.374 109.17 529.949C110.346 531.618 110.953 533.628 112.309 535.18C112.496 534.391 112.683 533.602 112.87 532.812C116.405 536.593 120.855 536.626 125.383 538.722V535.955C128.625 540.903 128.798 537.772 132.671 535.751C132.408 537.206 132.144 538.661 131.881 540.115C134.668 539.905 137.272 543.207 139.56 540.402C140.942 542.72 142.617 541.579 144.882 542.315C146.17 542.734 147.129 544.002 148.382 544.461C150.261 545.149 150.822 545.117 152.591 545.716C154.164 546.248 155.058 547.284 157.027 547.616C158.306 547.832 159.466 547.816 160.69 547.757C161.163 547.734 161.007 546.67 162.058 546.918C163.683 547.303 164.893 549.341 166.063 550.386C167.823 545.962 172.751 551.888 175.133 552.677C175.361 551.543 175.32 550.176 176.141 549.244C177.105 551.356 177.473 553.131 179.474 554.491C180.629 555.276 182.325 555.838 183.659 556.125C184.502 556.306 186.034 556.089 186.564 556.349C187.468 556.792 187.801 557.975 188.714 558.086C189.251 558.151 190.047 556.738 190.449 556.848C192.289 557.35 193.311 559.585 195.169 560.794C200.698 564.391 207.656 564.74 213.816 565.529C215.362 565.726 215.586 565.304 216.842 566.211C217.512 566.696 217.208 568.17 218.032 568.583C221.137 570.139 221.139 566.819 221.79 564.756C222.817 566.111 222.994 567.9 224.399 568.978C225.166 568.956 225.934 568.973 226.7 569.03C227.132 569.523 227.416 570.092 227.548 570.737C229.408 571.993 231.515 571.556 233.436 572.499C234.066 572.808 235.182 574.677 235.958 575.214C237.347 576.176 239.495 576.69 241.082 577.108C244.41 577.984 249.182 576.82 251.162 580.295C253.791 577.477 252.774 580.842 254.559 581.549C255.613 581.966 257.198 580.307 258.367 580.472C260.472 580.768 261.23 583.047 261.904 584.704C263.186 584.418 262.306 580.791 262.27 579.996C263.863 579.808 264.217 584.003 264.492 584.925C267.007 583.714 262.879 579.945 265.583 578.736C265.335 581.947 267.894 584.591 263.324 585.051C263.955 586.985 278.695 589.133 279.719 587.426C279.946 590.582 282.066 587.634 282.848 586.554C282.936 588.395 282.309 591.008 284.375 591.864C285.779 592.445 288.945 590.942 289.496 589.566C290.125 591.668 291.179 591.6 292.489 592.935C293.389 593.852 293.982 595.442 294.926 596.21C296.663 597.623 299.894 597.407 301.918 597.091C305.878 596.473 305.41 595.714 306.821 599.83C307.14 598.268 308.14 595.001 309.884 597.43C310.994 598.973 308.631 602.374 307.948 603.729C309.474 602.891 310.989 601.897 312.725 601.536C312.822 602.071 312.911 603.206 312.655 603.701C312.707 603.601 314.559 604.843 315.246 605.187C315.081 605.104 315.789 602.012 315.769 602.113C318.212 603.621 316.517 606.504 318.681 607.991C319.24 608.376 320.552 607.927 321.228 608.161C322.405 608.569 323.423 609.672 324.469 610.317C323.634 609.197 323.754 607.317 323.811 606.024C324.343 606.318 324.723 607.418 325.26 607.505C325.463 607.538 327.568 607.817 327.554 607.807C329.745 609.341 329.294 609.534 327.413 611.379C328.085 612.435 330.894 610.6 331.654 610.295C331.813 610.708 331.854 612.208 332.153 612.476C332.334 612.92 332.516 613.364 332.698 613.808C333.259 613.39 333.861 613.25 334.503 613.389C334.909 613.53 338.078 614.819 338.293 614.378C337.6 614.154 336.971 613.81 336.409 613.347C338.238 611.703 339.441 610.829 341.126 613.203C341.338 613.502 340.609 614.576 340.825 614.966C341.63 616.418 343.284 617.573 344.407 618.756C344.872 617.123 343.79 613.034 346.372 613.183C348.435 613.301 350.004 618.299 349.29 619.853C350.11 618.956 355.006 618.065 355.93 618.345C358.543 619.137 357.81 621.553 361.025 618.013C363.217 619.526 361.285 620.099 361.68 621.943C362.259 622.064 362.807 621.921 363.326 621.514C362.938 629.351 368.721 623.363 372.476 624.56C373.95 625.03 374.327 626.703 375.909 627.192C376.746 627.45 377.677 626.839 378.491 626.988C379.143 626.895 379.791 626.78 380.435 626.643C381.251 626.234 381.634 626.691 381.584 628.015C382.896 628.695 382.4 628.961 383.934 629.093C384.922 629.179 385.831 628.151 386.954 628.326C388.891 628.63 388.635 630.117 389.873 630.894C390.987 631.594 392.243 631.571 393.615 631.436C394.314 631.367 396.277 630.466 396.513 630.463C397.979 630.443 397.184 630.131 398.944 631.39C400.314 632.372 400.889 633.008 402.571 633.46C404.5 633.977 407.922 635.108 409.22 633.714C410.973 636.342 412.346 634.413 414.66 634.587C415.844 634.677 416.032 635.138 417.086 635.322C418.794 635.62 420.925 635.362 422.742 635.945C425.605 636.865 425.928 637.327 428.854 637.451C429.382 637.245 429.91 637.038 430.437 636.832C430.595 637.713 431.01 638.432 431.683 638.989C433.32 639.332 434.395 638.506 435.745 637.601C436.751 640.734 440.015 641.008 442.807 641.42C447.312 642.085 451.62 642.448 455.964 643.929C459.633 645.179 463.309 646.583 466.838 648.184C469.944 649.593 472.875 651.7 476.389 650.711C484.351 648.469 492.067 640.296 498.728 635.603C506.618 630.045 515.127 625.465 523.371 620.468C556.191 600.574 590.864 583.745 623.224 563.111C640.891 551.846 657.284 538.461 676.257 529.347C673.556 540.508 668.958 551.838 669.789 563.523C670.123 568.232 671.51 573.795 675.162 577.082C679.677 581.147 684.706 578.559 689.024 575.655C698.277 569.434 704.447 560.356 711.372 551.832C719.563 541.748 725.916 530.914 731.931 519.421C733.372 521.444 732.276 524.833 732.297 527.076C732.325 529.938 733.097 532.696 734.424 535.251C737.85 541.845 744.37 543.444 750.261 538.926C761.599 530.231 768.179 514.746 774.254 502.276C777.719 508.722 782.637 516.836 790.958 512.232C797.824 508.433 801.858 499.944 803.958 492.754C810.09 471.766 808.147 450.387 809.089 428.873Z" fill="black"/>
<path fill-rule="evenodd" clip-rule="evenodd" d="M798.677 302.806C797.894 300.904 797.55 301.215 798.99 299.371C800.112 300.476 799.214 301.389 798.677 302.806ZM833.377 417.919C831.175 411.659 832.535 404.861 831.198 398.44C830.584 395.494 829.615 392.636 829.266 389.637C829.111 388.306 827.926 382.315 828.733 381.372C826.249 379.868 826.241 378.755 825.667 375.806C826.552 374.867 826.441 374.066 825.333 373.401C824.609 372.525 823.884 371.648 823.159 370.772C826.328 372.321 824.453 368.356 824.13 366.071C823.874 364.265 823.702 362.381 823.1 360.65C822.359 358.522 820.711 357.446 824.139 357.446C823.011 356.163 821.324 354.839 820.762 353.268C819.954 351.007 821.287 348.019 819.639 346.022C818.72 344.908 813.983 344.472 814.814 342.066C815.237 340.84 817.157 341.755 817.751 340.896C820.086 337.52 813.192 336.121 812.854 334.685C812.416 332.823 814.906 332.407 815.059 330.666C815.208 328.962 812.559 326.162 811.859 324.638C810.905 324.87 809.859 326.379 808.767 325.658C808.56 325.522 808.871 319.623 808.623 318.84C808.379 318.07 807.88 316.028 807.702 315.65C806.995 314.149 804.972 313.418 804.651 311.645C804.459 310.587 808.605 308.985 803.85 308.935C805.558 305.925 802.429 304.096 801.29 301.524C799.826 298.217 798.963 294.645 797.459 291.321C795.997 288.09 794.362 285.024 792.254 282.167C790.346 279.58 789.521 277.092 787.996 274.36C787.691 274.12 787.386 273.88 787.081 273.64C785.809 273.824 785.401 273.245 785.857 271.902C784.884 270.461 784.161 268.923 783.303 267.418C782.306 265.669 780.961 264.243 779.931 262.542C778.564 260.287 778.16 257.744 776.615 255.482C774.716 252.699 772.58 250.245 770.819 247.358C768.613 243.741 766.17 241.493 763.394 238.692C762.073 237.358 761.914 234.026 760.295 232.132C758.532 230.069 756.791 229.51 755.569 226.802C753.979 223.279 751.646 221.597 749.375 218.552C747.501 216.04 746.586 213.153 744.522 210.723C742.747 208.636 740.732 206.729 738.837 204.75C736.445 202.251 734.679 199.214 732.189 196.838C732.548 197.181 730.022 195.179 730.149 195.243C729.59 194.958 727.786 194.729 728.049 194.884C724.291 192.675 719.582 184.59 713.927 188.874C710.952 191.127 712.379 195.259 714.456 197.503C715.348 198.467 719.983 203.219 720.984 201.215C722.065 202.747 725.394 210.153 728.163 208.031C727.881 210.562 729.347 209.722 730.315 211.433C730.952 212.562 730.642 213.116 731.106 214.878C732.383 219.722 737.255 224.453 739.85 228.677C746.309 239.19 753.434 249.161 759.899 259.686C766.06 269.717 772.96 279.235 778.871 289.401C785.594 300.961 793.97 311.873 799.035 324.335C799.206 324.754 800.613 325.417 800.962 326.046C801.571 327.139 801.44 329.029 801.832 330.267C803.191 334.559 805.394 338.784 807.904 342.339C810.106 345.458 810.266 349.697 811.781 353.356C813.918 358.513 816.175 363.616 818.251 368.799C821.482 376.866 823.671 384.598 825.904 393.02C827.351 398.478 828.502 403.933 828.963 409.569C829.387 414.752 829.491 420.151 831.409 425.058C832.717 423.038 834.258 420.421 833.377 417.919Z" fill="black"/>
<path fill-rule="evenodd" clip-rule="evenodd" d="M94.2395 528.98C91.9175 528.511 89.7325 527.885 89.2405 525.219C88.9035 526.476 88.5675 527.733 88.2305 528.99C91.0575 529.63 93.8855 530.271 96.7125 530.911C96.0525 529.748 95.5705 529.249 94.2395 528.98Z" fill="black"/>
<path fill-rule="evenodd" clip-rule="evenodd" d="M100.47 91.4389C100.646 90.6869 100.874 89.9499 101.155 89.2309C101.346 89.9319 102.282 91.4479 101.737 92.1089C101.043 92.9479 100.341 92.4729 100.47 91.4389ZM111.853 69.7809C112.615 70.1169 114.264 70.1819 115.21 70.4659C112.756 72.5769 112.324 71.9559 109.151 71.7109C109.01 69.5749 109.878 68.9119 111.853 69.7809ZM90.5817 122.659C90.9107 122.668 91.2407 122.676 91.5717 122.684C91.5917 121.754 91.5677 120.825 91.4977 119.897C94.8437 120.628 92.9497 114.781 91.8987 113.569C95.1627 113.678 96.7527 103.344 97.7867 101.353C98.7047 99.5849 99.7447 98.9009 100.416 96.7449C101.003 94.8579 101.638 93.1599 102.485 91.3749C104.431 87.2709 106.984 83.5439 106.513 78.7609C108.162 82.3499 109.612 78.7669 110.658 77.0509C112.343 74.2859 116.454 70.7579 116.891 67.4739C117.277 64.5829 115.129 64.4299 116.397 61.7489C117.679 59.0349 118.733 59.3069 120.979 58.4389C122.473 57.8609 122.77 58.5629 123.824 56.6769C124.507 55.4559 124.266 54.5459 125.141 53.5449C125.502 53.8589 125.913 53.9889 126.373 53.9349C127.083 52.9979 127.549 51.9539 127.77 50.8029C128.349 49.2489 128.629 47.8219 129.501 46.3419C130.328 44.9399 131.796 41.1889 132.574 40.5129C133.4 39.7949 138.085 40.1599 138.065 40.1859C140 37.7519 136.449 35.3269 141.366 35.8399C140.395 34.0319 143.806 31.7879 144.796 30.7819C147.269 28.2709 147.466 27.1089 147.988 23.9509C148.253 22.3409 146.523 22.5269 148.842 22.1599C149.801 22.0089 150.721 23.2349 151.413 23.0549C154.468 22.2629 151.272 22.4139 152.115 21.1689C152.381 20.7739 153.74 19.1799 153.727 19.1969C153.661 19.2769 154.033 17.8099 154.341 17.4329C154.925 17.3829 155.5 17.2809 156.065 17.1269C156.352 16.5469 156.606 15.9529 156.826 15.3449C159.037 13.5009 162.345 12.6759 163.874 10.6499C164.863 9.33992 164.567 8.05692 165.845 6.75092C167.062 5.50692 168.672 6.40792 168.913 3.59792C169.22 0.0229161 165.38 -1.56808 163.809 2.03992C159.549 -3.20708 141.743 16.0439 139.686 18.5589C130.751 29.4769 121.969 40.6649 114.64 52.7379C107.499 64.5019 101.638 76.8799 97.0567 89.8549C94.8477 96.1109 93.5027 102.339 92.1537 108.81C91.7007 110.977 88.3157 120.634 89.7247 122.795C90.0097 122.75 90.2957 122.704 90.5817 122.659Z" fill="black"/>
<path fill-rule="evenodd" clip-rule="evenodd" d="M793.887 390.399C795.392 389.395 795.392 389.395 795.656 387.498C793.638 387.866 793.638 387.866 793.887 390.399Z" fill="black"/>
<path fill-rule="evenodd" clip-rule="evenodd" d="M52.0497 518.024C52.0687 518.022 52.0827 518.027 52.0937 518.038C52.0617 517.997 51.9457 517.876 52.0497 518.024Z" fill="black"/>
<path fill-rule="evenodd" clip-rule="evenodd" d="M51.0398 519.041C51.5048 520.046 52.2518 520.296 53.2818 519.789C53.6878 520.369 49.7598 516.17 51.0398 519.041Z" fill="black"/>
<path fill-rule="evenodd" clip-rule="evenodd" d="M118.966 60.3463C116.609 64.9673 119.561 61.6063 119.41 63.1073C119.509 62.1213 119.918 60.7163 118.966 60.3463Z" fill="black"/>
<path fill-rule="evenodd" clip-rule="evenodd" d="M502.157 131.868C503.178 140.154 514.514 136.235 517.064 131.223C518.921 127.574 523.61 113.155 518.565 110.109C514.825 107.851 514.026 117.583 513.104 119.757C511.559 123.398 510.352 120.818 506.917 121.752C503.126 122.783 501.735 128.432 502.157 131.868Z" fill="black"/>
<path fill-rule="evenodd" clip-rule="evenodd" d="M489.771 116.701C493.823 117.601 497.795 117.137 500.673 113.937C502.267 112.165 504.388 108.65 501.518 106.935C498.917 105.382 495.968 109.019 493.229 108.267C489.504 107.244 491.422 103.25 490.144 100.612C485.448 103.316 482.828 115.159 489.771 116.701Z" fill="black"/>
<path fill-rule="evenodd" clip-rule="evenodd" d="M493.973 137.624C490.067 137.616 490.035 142.42 492.074 144.479C494.025 146.449 498.959 148.443 501.604 146.911C506.822 143.887 497.134 137.936 493.973 137.624Z" fill="black"/>
<path fill-rule="evenodd" clip-rule="evenodd" d="M266.704 328.661C267.538 329.066 269.996 331.15 271.032 330.209C269.57 328.736 268.107 327.263 266.645 325.79C265.837 326.676 265.283 327.971 266.704 328.661Z" fill="black"/>
<path fill-rule="evenodd" clip-rule="evenodd" d="M248.245 117.9C247.83 118.21 247.414 118.519 246.999 118.828C248.4 119.995 248.365 120.342 249.777 119.237C249.358 118.685 248.848 118.24 248.245 117.9Z" fill="black"/>
<path fill-rule="evenodd" clip-rule="evenodd" d="M512.975 392.815C512.19 391.405 510.707 394.005 509.704 394.428C508.072 395.115 506.733 391.475 507.201 395.838C503.512 394.149 501.273 398.024 498.894 400.042C495.533 402.894 491.422 404.441 489.18 408.491C499.733 410.96 511.328 401.862 519.197 395.886C520.481 394.91 526.899 389.987 522.549 389.511C520.77 389.317 514.295 395.185 512.975 392.815Z" fill="black"/>
<path fill-rule="evenodd" clip-rule="evenodd" d="M509.845 384.273C511.913 382.645 507.454 382.496 506.749 382.325C506.81 383.62 506.869 384.914 506.93 386.209C507.928 385.604 508.9 384.958 509.845 384.273Z" fill="black"/>
<path fill-rule="evenodd" clip-rule="evenodd" d="M502.079 389.703C502.697 389.317 504.42 388.112 503.248 387.214C502.189 387.888 501.432 388.988 501.266 390.243C501.537 390.063 501.808 389.883 502.079 389.703Z" fill="black"/>
<path fill-rule="evenodd" clip-rule="evenodd" d="M331.167 284.695C329.846 285.213 329.254 286.032 329.393 287.154C331.423 286.739 331.036 284.822 331.167 284.695Z" fill="black"/>
</svg>
